<svg width="515" height="408" viewBox="0 0 515 408" fill="none" xmlns="http://www.w3.org/2000/svg">
<g clip-path="url(#clip0_2_46)">
<path d="M309.978 104.188H307.575V38.196C307.575 28.0658 303.561 18.3505 296.415 11.1874C289.269 4.02422 279.578 5.01548e-06 269.473 0H129.998C119.892 0 110.201 4.02421 103.055 11.1874C95.9097 18.3505 91.8953 28.0658 91.8953 38.196V400.241C91.8953 410.371 95.9097 420.086 103.055 427.249C110.201 434.413 119.892 438.437 129.998 438.437H269.473C279.578 438.437 289.269 434.412 296.415 427.249C303.56 420.086 307.574 410.371 307.574 400.241V151.163H309.977L309.978 104.188Z" fill="#F4F4F4"/>
<path d="M271.01 9.93359H252.805C253.642 11.9914 253.962 14.2241 253.736 16.4349C253.509 18.6457 252.744 20.7668 251.507 22.6113C250.271 24.4558 248.601 25.9671 246.644 27.012C244.687 28.0569 242.504 28.6034 240.287 28.6033H160.384C158.167 28.6032 155.984 28.0566 154.028 27.0116C152.071 25.9666 150.401 24.4553 149.164 22.6108C147.928 20.7663 147.163 18.6453 146.937 16.4346C146.71 14.2239 147.03 11.9913 147.867 9.93359H130.863C123.316 9.93359 116.079 12.9388 110.743 18.2882C105.406 23.6376 102.409 30.8929 102.409 38.458V399.977C102.409 407.542 105.406 414.797 110.743 420.147C116.079 425.496 123.316 428.501 130.863 428.501H271.01C278.556 428.501 285.794 425.496 291.13 420.147C296.466 414.797 299.464 407.542 299.464 399.977V38.4574C299.464 30.8924 296.466 23.6372 291.13 18.288C285.794 12.9387 278.556 9.93359 271.01 9.93359H271.01Z" fill="white"/>
<path d="M200.936 223.779C187.877 223.779 175.112 219.897 164.254 212.624C153.396 205.351 144.933 195.014 139.936 182.92C134.939 170.826 133.631 157.517 136.179 144.678C138.726 131.839 145.015 120.045 154.248 110.789C163.482 101.532 175.247 95.2283 188.055 92.6744C200.862 90.1205 214.138 91.4313 226.203 96.4409C238.267 101.451 248.579 109.934 255.834 120.819C263.089 131.703 266.961 144.5 266.961 157.591C266.941 175.139 259.979 191.962 247.601 204.371C235.223 216.779 218.441 223.759 200.936 223.779V223.779ZM200.936 92.6633C188.126 92.6633 175.603 96.4713 164.952 103.606C154.301 110.74 146 120.88 141.098 132.744C136.196 144.608 134.913 157.663 137.412 170.257C139.911 182.852 146.08 194.421 155.138 203.501C164.196 212.582 175.736 218.765 188.3 221.271C200.864 223.776 213.886 222.49 225.721 217.576C237.556 212.662 247.671 204.34 254.788 193.662C261.905 182.985 265.704 170.432 265.704 157.591C265.684 140.377 258.854 123.874 246.712 111.702C234.57 99.5296 218.107 92.6828 200.936 92.6633V92.6633Z" fill="#3F3D56"/>
<path d="M225.186 138.363C230.841 133.573 234.276 126.007 233.375 118.64C232.474 111.274 226.895 104.503 219.658 102.938C212.422 101.374 204.172 105.704 201.974 112.791C200.764 99.128 199.37 84.8927 192.124 73.2576C185.563 62.7222 174.199 55.1838 161.883 53.8352C149.566 52.4865 136.599 57.5802 128.918 67.3251C121.237 77.0701 119.356 91.2372 124.736 102.425C128.699 110.667 136 116.801 143.65 121.791C168.056 137.711 198.331 143.09 227.139 138.84L225.186 138.363Z" fill="#CFDEF3"/>
<path d="M141.097 57.8625C151.259 66.1603 160.582 75.4407 168.931 85.5696C181.996 101.367 192.569 119.079 200.281 138.088C200.845 139.474 198.599 140.078 198.041 138.707C185.423 107.813 165.28 80.5838 139.454 59.5092C138.294 58.5625 139.947 56.9237 141.097 57.8625V57.8625Z" fill="white"/>
<path d="M144.555 288.706C148.376 288.706 151.472 285.602 151.472 281.772C151.472 277.943 148.376 274.838 144.555 274.838C140.735 274.838 137.638 277.943 137.638 281.772C137.638 285.602 140.735 288.706 144.555 288.706Z" fill="#17275F"/>
<path d="M259.203 286.815H171.169C169.835 286.815 168.556 286.284 167.612 285.338C166.669 284.392 166.139 283.11 166.139 281.772C166.139 280.435 166.669 279.152 167.612 278.206C168.556 277.261 169.835 276.729 171.169 276.729H259.203C260.538 276.729 261.817 277.261 262.76 278.206C263.704 279.152 264.234 280.435 264.234 281.772C264.234 283.11 263.704 284.392 262.76 285.338C261.817 286.284 260.538 286.815 259.203 286.815Z" fill="#DAE9FF"/>
<path d="M231.9 286.876H170.806C169.456 286.876 168.161 286.338 167.206 285.381C166.251 284.424 165.715 283.126 165.715 281.772C165.715 280.419 166.251 279.12 167.206 278.163C168.161 277.206 169.456 276.668 170.806 276.668H231.9C233.25 276.668 234.545 277.206 235.5 278.163C236.455 279.12 236.991 280.419 236.991 281.772C236.991 283.126 236.455 284.424 235.5 285.381C234.545 286.338 233.25 286.876 231.9 286.876Z" fill="#5784F5"/>
<path d="M144.555 318.963C148.376 318.963 151.472 315.859 151.472 312.029C151.472 308.2 148.376 305.095 144.555 305.095C140.735 305.095 137.638 308.2 137.638 312.029C137.638 315.859 140.735 318.963 144.555 318.963Z" fill="#17275F"/>
<path d="M259.203 317.072H171.169C169.835 317.072 168.556 316.541 167.612 315.595C166.669 314.65 166.139 313.367 166.139 312.029C166.139 310.692 166.669 309.409 167.612 308.464C168.556 307.518 169.835 306.987 171.169 306.987H259.203C260.538 306.987 261.817 307.518 262.76 308.464C263.704 309.409 264.234 310.692 264.234 312.029C264.234 313.367 263.704 314.65 262.76 315.595C261.817 316.541 260.538 317.072 259.203 317.072Z" fill="#DAE9FF"/>
<path d="M144.555 349.221C148.376 349.221 151.472 346.117 151.472 342.287C151.472 338.457 148.376 335.353 144.555 335.353C140.735 335.353 137.638 338.457 137.638 342.287C137.638 346.117 140.735 349.221 144.555 349.221Z" fill="#17275F"/>
<path d="M259.203 347.33H171.169C169.835 347.33 168.556 346.799 167.612 345.853C166.669 344.907 166.139 343.625 166.139 342.287C166.139 340.95 166.669 339.667 167.612 338.721C168.556 337.775 169.835 337.244 171.169 337.244H259.203C260.538 337.244 261.817 337.775 262.76 338.721C263.704 339.667 264.234 340.95 264.234 342.287C264.234 343.625 263.704 344.907 262.76 345.853C261.817 346.799 260.538 347.33 259.203 347.33Z" fill="#DAE9FF"/>
<path d="M211.778 317.133H170.806C169.456 317.133 168.161 316.596 167.206 315.639C166.251 314.681 165.715 313.383 165.715 312.03C165.715 310.676 166.251 309.378 167.206 308.421C168.161 307.464 169.456 306.926 170.806 306.926H211.778C213.128 306.926 214.423 307.464 215.378 308.421C216.333 309.378 216.869 310.676 216.869 312.03C216.869 313.383 216.333 314.681 215.378 315.639C214.423 316.596 213.128 317.133 211.778 317.133V317.133Z" fill="#5784F5"/>
<path d="M248.249 347.391H170.806C169.456 347.391 168.161 346.853 167.206 345.896C166.251 344.939 165.715 343.64 165.715 342.287C165.715 340.933 166.251 339.635 167.206 338.678C168.161 337.721 169.456 337.183 170.806 337.183H248.249C249.599 337.183 250.894 337.721 251.849 338.678C252.804 339.635 253.34 340.933 253.34 342.287C253.34 343.64 252.804 344.939 251.849 345.896C250.894 346.853 249.599 347.391 248.249 347.391V347.391Z" fill="#5784F5"/>
<path d="M235.894 147.299H227.251V121.697C227.252 120.945 227.55 120.224 228.081 119.692C228.611 119.161 229.33 118.861 230.081 118.861H233.064C233.814 118.861 234.533 119.161 235.064 119.692C235.594 120.224 235.893 120.945 235.894 121.697V147.299Z" fill="#3F3D56"/>
<path d="M241.133 190.865H158.52L158.223 144.189C158.22 143.468 158.361 142.754 158.639 142.088C158.916 141.423 159.324 140.821 159.838 140.316L180.592 120.053C181.576 119.088 182.895 118.543 184.272 118.533L219.006 118.215C219.794 118.21 220.573 118.379 221.288 118.709C222.004 119.039 222.638 119.522 223.147 120.125L223.15 120.129L239.648 140.411C240.607 141.593 241.132 143.07 241.133 144.594L241.133 190.865Z" fill="#161B3D"/>
<path d="M241.134 190.865H196.738V149.034C196.738 147.759 197.191 146.527 198.016 145.557L217.306 122.886V122.886C217.807 122.296 218.43 121.822 219.132 121.497C219.834 121.172 220.599 121.004 221.372 121.005H221.392C222.169 121.007 222.936 121.18 223.639 121.51C224.343 121.84 224.966 122.32 225.465 122.917L239.881 140.122C240.69 141.088 241.133 142.308 241.134 143.568V190.865Z" fill="#7398F6"/>
<path d="M222.301 174.798H215.878C215.461 174.798 215.062 174.632 214.767 174.336C214.472 174.041 214.306 173.64 214.306 173.222V167.824C214.306 167.406 214.472 167.005 214.767 166.71C215.062 166.414 215.461 166.248 215.878 166.248H222.301C222.718 166.248 223.118 166.414 223.412 166.71C223.707 167.005 223.873 167.406 223.873 167.824V173.222C223.873 173.64 223.707 174.041 223.412 174.336C223.118 174.632 222.718 174.798 222.301 174.798V174.798Z" fill="white"/>
<path d="M222.301 160.964H215.878C215.461 160.964 215.062 160.798 214.767 160.502C214.472 160.207 214.306 159.806 214.306 159.388V154.115C214.306 153.697 214.472 153.297 214.767 153.001C215.062 152.706 215.461 152.54 215.878 152.539H222.301C222.718 152.54 223.118 152.706 223.412 153.001C223.707 153.297 223.873 153.697 223.873 154.115V159.388C223.873 159.806 223.707 160.207 223.412 160.502C223.118 160.798 222.718 160.964 222.301 160.964V160.964Z" fill="white"/>
<path d="M182.578 172.696H176.155C175.738 172.696 175.339 172.53 175.044 172.234C174.749 171.939 174.583 171.538 174.583 171.121V165.722C174.583 165.304 174.749 164.904 175.044 164.608C175.339 164.313 175.738 164.147 176.155 164.146H182.578C182.995 164.147 183.395 164.313 183.689 164.608C183.984 164.904 184.15 165.304 184.15 165.722V171.121C184.15 171.538 183.984 171.939 183.689 172.234C183.395 172.53 182.995 172.696 182.578 172.696Z" fill="white"/>
<path d="M182.578 158.862H176.155C175.738 158.862 175.339 158.696 175.044 158.4C174.749 158.105 174.583 157.704 174.583 157.286V152.014C174.583 151.596 174.749 151.195 175.044 150.9C175.339 150.604 175.738 150.438 176.155 150.438H182.578C182.995 150.438 183.395 150.604 183.689 150.9C183.984 151.195 184.15 151.596 184.15 152.014V157.286C184.15 157.704 183.984 158.105 183.689 158.4C183.395 158.696 182.995 158.862 182.578 158.862Z" fill="white"/>
<path d="M257.121 191.411H144.749C144.583 191.411 144.423 191.345 144.305 191.226C144.187 191.108 144.121 190.948 144.121 190.781C144.121 190.614 144.187 190.453 144.305 190.335C144.423 190.217 144.583 190.15 144.749 190.15H257.121C257.288 190.15 257.448 190.217 257.566 190.335C257.684 190.453 257.75 190.614 257.75 190.781C257.75 190.948 257.684 191.108 257.566 191.226C257.448 191.345 257.288 191.411 257.121 191.411Z" fill="#3F3D56"/>
</g>
<defs>
<clipPath id="clip0_2_46">
<rect width="515" height="439.363" fill="white"/>
</clipPath>
</defs>
</svg>
