<svg width="816" height="700" viewBox="0 0 816 700" fill="none" xmlns="http://www.w3.org/2000/svg">
<g clip-path="url(#clip0_4_2)">
<path d="M657.917 664.379C657.917 684.055 541.498 700 397.877 700C254.256 700 137.837 684.055 137.837 664.379C137.837 644.704 254.256 628.759 397.877 628.759C541.498 628.759 657.917 644.72 657.917 664.379Z" fill="#3C2177"/>
<path d="M632.708 560.342C761.192 432.155 761.192 224.324 632.708 96.1379C504.223 -32.0483 295.909 -32.0483 167.424 96.1379C38.9399 224.324 38.9399 432.155 167.424 560.342C295.909 688.528 504.223 688.528 632.708 560.342Z" fill="#848EE7" fill-opacity="0.2"/>
<path d="M400.068 647.679C550.818 647.679 673.025 525.755 673.025 375.355C673.025 224.955 550.818 103.032 400.068 103.032C249.318 103.032 127.111 224.955 127.111 375.355C127.111 525.755 249.318 647.679 400.068 647.679Z" fill="#848EE7" fill-opacity="0.2"/>
<path d="M400.068 625.767C507.141 625.767 593.941 539.169 593.941 432.345C593.941 325.52 507.141 238.922 400.068 238.922C292.995 238.922 206.196 325.52 206.196 432.345C206.196 539.169 292.995 625.767 400.068 625.767Z" fill="#848EE7" fill-opacity="0.2"/>
<path d="M402.408 635.794C411.717 633.789 456.811 622.628 488.544 589.423C483.601 584.903 475.215 574.35 467.801 560.279L401.518 570.586L335.235 560.279C327.821 574.35 319.435 584.903 314.492 589.423C346.241 622.611 391.336 633.772 400.645 635.794L400.661 636.156C400.661 636.156 400.974 636.09 401.518 635.992C402.062 636.107 402.375 636.156 402.375 636.156L402.408 635.794Z" fill="#3C2177"/>
<path d="M303.585 589.917C272.61 583.884 217.729 581.632 193.559 594.437C169.389 607.242 155.038 639.148 208.42 666.023C261.802 692.899 329.535 667.026 383.411 666.533C437.287 666.023 453.648 677.579 475.314 673.815C529.701 678.335 596.824 663.607 607.962 638.622C621.143 609.034 588.619 581.122 542.289 583.128C495.958 585.133 486.139 579.117 463.978 608.508C412.87 620.063 402.787 620.819 386.937 609.017C371.071 597.215 363.525 607.768 351.184 604.497C338.827 601.226 325.482 581.139 303.585 589.917Z" fill="#FFC7AB"/>
<path d="M335.054 278.685C319.188 293.002 285.956 291.49 277.141 314.355C268.327 337.22 277.899 374.139 339.074 377.163C400.266 380.171 463.451 375.651 478.313 373.399C493.174 371.131 523.885 362.846 515.581 329.182C507.277 295.517 480.833 298.788 471.261 269.398C461.688 240.007 481.591 185.746 432.477 179.713C392.967 176.196 374.333 240.254 335.054 278.685Z" fill="#6F438F"/>
<path d="M433.564 183.478C449.809 183.1 463.402 209.663 459.25 235.47C455.098 261.277 447.354 285.77 471.525 300.284C495.695 314.799 508.53 335.132 487.77 356.797" stroke="#43205C" stroke-miterlimit="10" stroke-linecap="round"/>
<path d="M367.083 249.985C350.097 261.294 342.353 328.179 365.947 340.984C389.557 353.789 451.869 347.575 453.384 340.228C441.489 327.045 440.55 304.048 445.641 280.69C450.748 257.332 454.324 246.582 453.566 231.147C452.808 215.696 446.58 191.204 429.396 192.338C410.712 193.094 374.827 222.665 367.083 249.985Z" fill="#4E256B"/>
<path d="M436.398 193.275C443.384 194.031 458.113 217.208 452.445 247.536C446.778 277.863 431.867 319.319 455.839 342.496" stroke="#43205C" stroke-miterlimit="10" stroke-linecap="round"/>
<path d="M372.751 267.885C363.492 280.131 390.496 311.412 376.903 334.573" stroke="#43205C" stroke-miterlimit="10" stroke-linecap="round"/>
<path d="M537.61 498.49C535.715 482.283 530.426 462.311 519.865 409.184C509.287 356.057 483.601 350.403 451.885 339.472C420.152 328.541 420.91 302.914 422.426 282.959L402.029 281.134V281.068L401.65 281.101L401.271 281.068V281.134L380.874 282.959C382.39 302.931 383.148 328.557 351.415 339.472C319.699 350.403 294.013 356.057 283.435 409.184C272.857 462.311 267.569 482.283 265.674 498.49C263.796 514.698 269.826 520.352 284.555 519.218C299.285 518.084 303.437 492.457 307.968 467.604C312.499 442.733 317.408 416.367 320.803 418.241C324.197 420.132 330.243 448.766 334.016 453.286C337.624 457.61 396.378 451.61 401.617 451.067C406.856 451.61 465.61 457.61 469.218 453.286C472.991 448.766 479.038 420.132 482.432 418.241C485.826 416.351 490.735 442.733 495.266 467.604C499.797 492.474 503.949 518.1 518.679 519.218C533.458 520.336 539.504 514.698 537.61 498.49Z" fill="#FFC7AB"/>
<path d="M402.029 326.108C410.679 326.108 418.752 322.754 425.59 316.952C421.026 306.103 421.602 293.725 422.41 282.975L402.012 281.151V281.085L401.634 281.118L401.255 281.085V281.151L380.857 282.975C381.665 293.561 382.241 305.741 377.892 316.475C384.877 322.557 393.148 326.108 402.029 326.108Z" fill="#C98665" fill-opacity="0.5"/>
<path d="M446.844 232.216C446.844 266.061 426.776 293.512 402.029 293.512C377.282 293.512 357.214 266.077 357.214 232.216C357.214 198.37 377.282 170.919 402.029 170.919C426.776 170.919 446.844 198.37 446.844 232.216Z" fill="#FFC7AB"/>
<path d="M384.466 224.556C384.466 231.147 374.267 232.659 372.191 224.375" stroke="black" stroke-width="2" stroke-miterlimit="10" stroke-linecap="round"/>
<path d="M366.144 246.977C366.144 253.009 371.054 257.908 377.101 257.908C383.148 257.908 388.057 253.009 388.057 246.977C388.057 240.944 383.148 236.046 377.101 236.046C371.054 236.046 366.144 240.944 366.144 246.977Z" fill="#FF8C94"/>
<path d="M384.466 206.096C380.874 204.962 375.206 205.537 371.812 209.104" stroke="#6F438F" stroke-miterlimit="10" stroke-linecap="round"/>
<path d="M469.07 473.866C475.034 451.758 480.487 425.638 480.487 425.638C465.593 404.039 464.588 375.388 465.099 344.255C453.17 339.735 443.252 334.705 443.252 334.705C447.717 355.301 458.64 419.112 405.011 419.112C404.764 428.087 402.507 438.295 398.964 449.078C398.618 438.246 398.305 428.005 398.058 419.112C344.413 419.112 355.353 355.301 359.818 334.705C359.818 334.705 349.883 339.735 337.97 344.255C338.465 375.404 337.476 404.039 322.582 425.638C322.582 425.638 328.052 451.758 334 473.866C339.964 495.975 345.912 528.637 332.006 565.803C337.18 567.726 352.799 570.553 368.715 571.654C428.374 578.838 463.072 568.794 471.08 565.803C457.141 528.637 463.105 495.975 469.07 473.866Z" fill="#824FF1"/>
<path d="M516.257 483.417C498.216 481.526 453.681 473.242 434.174 459.681C414.666 446.119 413.562 440.465 415.028 417.107C416.495 393.749 408.768 380.928 405.093 383.196C401.419 385.464 401.782 413.721 402.523 438.591C403.265 463.461 400.315 472.124 410.992 478.535C421.668 484.945 469.877 511.311 494.904 519.234C525.088 529.409 538.697 522.242 536.868 501.909C535.023 481.526 516.257 483.417 516.257 483.417Z" fill="#FFC7AB"/>
<path d="M288.312 483.417C306.353 481.526 350.888 473.242 370.395 459.681C389.903 446.119 391.007 440.465 389.54 417.107C388.074 393.749 395.801 380.928 399.475 383.196C403.149 385.464 402.787 413.721 402.045 438.591C401.304 463.461 404.253 472.124 393.577 478.535C382.9 484.945 334.692 511.311 309.665 519.234C279.481 529.409 265.872 522.242 267.701 501.909C269.529 481.526 288.312 483.417 288.312 483.417Z" fill="#FFC7AB"/>
<path d="M389.623 418.586C389.59 418.093 389.557 417.6 389.524 417.09C388.057 393.732 395.785 380.911 399.459 383.179C403.133 385.448 402.77 413.704 402.029 438.575C401.485 457.182 402.985 466.716 399.31 473.028" stroke="#C98665" stroke-miterlimit="10" stroke-linecap="round"/>
<path d="M433.745 181.604C434.503 152.213 388.601 131.403 368.039 159.002C353.82 178.086 369.802 180.733 340.59 206.606C309.039 234.55 342.6 261.491 331.281 278.455C319.946 295.419 279.415 318.514 306.6 357.339C333.786 396.149 373.591 358.293 371.812 335.231C369.291 302.701 348.564 284.225 363.755 266.899C380.495 247.815 382.9 239.892 381.385 219.92C379.869 199.948 394.977 163.9 425.079 183.116C431.867 187.62 433.366 184.99 433.745 181.604Z" fill="#895CAB"/>
<path d="M403.166 164.772C388.65 166.629 382.06 186.552 381.928 209.449C385.075 189.872 399.772 166.958 425.079 183.116C426.743 184.217 428.094 184.891 429.181 185.237C424.634 175.029 417.846 162.898 403.166 164.772Z" fill="#6F438F"/>
<path d="M284.193 490.699C287.472 487.181 293.008 483.154 307.111 480.655" stroke="#C98665" stroke-miterlimit="10" stroke-linecap="round"/>
<path d="M246.677 612.535C257.749 603.987 299.054 601.982 342.6 620.573C386.163 639.164 400.002 646.446 434.256 638.654C468.493 630.863 493.668 632.622 493.174 647.942C492.68 663.262 487.638 672.302 476.813 673.568" stroke="#C98665" stroke-miterlimit="10" stroke-linecap="round"/>
<path d="M292.744 607.012C292.497 597.215 303.074 587.418 317.425 588.667" stroke="#C98665" stroke-miterlimit="10" stroke-linecap="round"/>
<path d="M492.927 644.934C493.685 650.703 487.638 652.725 480.092 651.722C476.055 652.479 474.556 652.232 474.556 652.232" stroke="#C98665" stroke-miterlimit="10" stroke-linecap="round"/>
<path d="M476.55 658.248C480.586 658.741 489.648 659.251 491.905 656.489" stroke="#C98665" stroke-miterlimit="10" stroke-linecap="round"/>
<path d="M475.166 663.525C478.939 664.281 488.379 665.037 490.406 662.769" stroke="#C98665" stroke-miterlimit="10" stroke-linecap="round"/>
<path d="M472.777 668.801C475.792 670.05 482.596 671.563 485.364 669.804" stroke="#C98665" stroke-miterlimit="10" stroke-linecap="round"/>
<path d="M464.473 608.015C483.865 601.489 540.262 593.451 558.633 614.803" stroke="#C98665" stroke-miterlimit="10" stroke-linecap="round"/>
<path d="M299.054 593.944C296.039 597.971 302.58 602.492 311.642 601.735C313.158 603.248 315.926 604.004 315.926 604.004" stroke="#C98665" stroke-miterlimit="10" stroke-linecap="round"/>
<path d="M294.26 600.979C293.765 604.25 301.822 606.502 307.358 606.009" stroke="#C98665" stroke-miterlimit="10" stroke-linecap="round"/>
<path d="M401.238 400.834C398.717 401.59 397.712 415.661 397.712 427.216" stroke="#C98665" stroke-miterlimit="10" stroke-linecap="round"/>
<path d="M400.958 389.031C398.437 388.785 394.664 398.582 393.906 420.181" stroke="#C98665" stroke-miterlimit="10" stroke-linecap="round"/>
<path d="M415.572 418.586C415.605 418.093 415.638 417.6 415.671 417.09C417.137 393.732 409.41 380.911 405.736 383.179C402.062 385.448 402.424 413.704 403.166 438.575C403.709 457.182 402.21 466.716 405.884 473.028" stroke="#C98665" stroke-miterlimit="10" stroke-linecap="round"/>
<path d="M403.94 400.834C406.461 401.59 407.466 415.661 407.466 427.216" stroke="#C98665" stroke-miterlimit="10" stroke-linecap="round"/>
<path d="M404.22 389.031C406.741 388.785 410.514 398.582 411.272 420.181" stroke="#C98665" stroke-miterlimit="10" stroke-linecap="round"/>
<path d="M429.033 184.415C423.365 169.719 410.333 157.851 395.603 168.207C380.874 178.563 381.253 208.907 381.253 223.98" stroke="#43205C" stroke-miterlimit="10" stroke-linecap="round"/>
<path d="M389.062 175.686C394.73 169.095 409.591 169.062 416.94 179.04" stroke="#43205C" stroke-miterlimit="10" stroke-linecap="round"/>
<path d="M385.026 184.793C387.299 179.516 398.618 176.689 404.286 178.579" stroke="#43205C" stroke-miterlimit="10" stroke-linecap="round"/>
<path d="M304.59 309.144C296.846 323.083 289.861 341.74 311.955 364.161" stroke="#43205C" stroke-miterlimit="10" stroke-linecap="round"/>
<path d="M381.385 148.581C366.276 157.819 385.784 181.407 350.838 204.584C315.909 227.761 350.278 248.67 346.505 279.951C342.732 311.232 292.316 324.037 310.439 360.578" stroke="#43205C" stroke-miterlimit="10" stroke-linecap="round"/>
<path d="M418.077 224.556C418.077 231.147 428.275 232.659 430.351 224.375" stroke="black" stroke-width="2" stroke-miterlimit="10" stroke-linecap="round"/>
<path d="M396.542 242.834C399.179 246.04 403.726 246.796 407.499 243.015" stroke="#C98665" stroke-miterlimit="10" stroke-linecap="round"/>
<path d="M394.186 256.198C396.262 262.412 405.143 265.239 409.855 256.001" stroke="#DB6C73" stroke-miterlimit="10" stroke-linecap="round"/>
<path d="M436.398 246.977C436.398 253.009 431.488 257.908 425.441 257.908C419.395 257.908 414.485 253.009 414.485 246.977C414.485 240.944 419.395 236.046 425.441 236.046C431.488 236.046 436.398 240.944 436.398 246.977Z" fill="#FF8C94"/>
<path d="M418.077 206.096C421.668 204.962 427.336 205.537 430.73 209.104" stroke="#6F438F" stroke-miterlimit="10" stroke-linecap="round"/>
</g>
<path d="M43.5047 336.253C51.73 336.253 51.73 345.429 59.9706 345.429C68.196 345.429 68.196 336.253 76.4366 336.253C84.6772 336.253 84.6772 345.429 92.9025 345.429C101.128 345.429 101.143 336.253 109.368 336.253" stroke="#824FF1" stroke-width="2" stroke-miterlimit="10" stroke-linecap="round"/>
<path d="M84.3045 586.295C92.5298 586.295 92.5298 595.471 100.77 595.471C108.996 595.471 108.996 586.295 117.236 586.295C125.477 586.295 125.477 595.471 133.702 595.471C141.928 595.471 141.943 586.295 150.168 586.295" stroke="#824FF1" stroke-width="2" stroke-miterlimit="10" stroke-linecap="round"/>
<path d="M66.9501 89.5293C75.1754 89.5293 75.1754 98.7052 83.4161 98.7052C91.6414 98.7052 91.6414 89.5293 99.882 89.5293C108.123 89.5293 108.123 98.7052 116.348 98.7052C124.573 98.7052 124.589 89.5293 132.814 89.5293" stroke="#824FF1" stroke-width="2" stroke-miterlimit="10" stroke-linecap="round"/>
<path d="M640.318 119.855C648.543 119.855 648.543 129.031 656.783 129.031C665.009 129.031 665.009 119.855 673.249 119.855C681.49 119.855 681.49 129.031 689.715 129.031C697.956 129.031 697.956 119.855 706.181 119.855" stroke="#824FF1" stroke-width="2" stroke-miterlimit="10" stroke-linecap="round"/>
<path d="M720.733 215.437C728.958 215.437 728.958 224.613 737.199 224.613C745.424 224.613 745.424 215.437 753.665 215.437C761.905 215.437 761.905 224.613 770.131 224.613C778.371 224.613 778.371 215.437 786.596 215.437" stroke="#824FF1" stroke-width="2" stroke-miterlimit="10" stroke-linecap="round"/>
<path d="M739.169 536.592C747.394 536.592 747.394 545.768 755.635 545.768C763.86 545.768 763.86 536.592 772.101 536.592C780.341 536.592 780.341 545.768 788.567 545.768C796.807 545.768 796.807 536.592 805.033 536.592" stroke="#824FF1" stroke-width="2" stroke-miterlimit="10" stroke-linecap="round"/>
<path d="M608.657 135.409C616.882 135.409 616.882 144.584 625.123 144.584C633.348 144.584 633.348 135.409 641.589 135.409C649.829 135.409 649.829 144.584 658.055 144.584C666.295 144.584 666.295 135.409 674.521 135.409" stroke="#824FF1" stroke-width="2" stroke-miterlimit="10" stroke-linecap="round"/>
<path d="M149.402 175.675C157.628 175.675 157.628 184.851 165.868 184.851C174.094 184.851 174.094 175.675 182.334 175.675C190.575 175.675 190.575 184.851 198.8 184.851C207.041 184.851 207.041 175.675 215.266 175.675" stroke="#824FF1" stroke-width="2" stroke-miterlimit="10" stroke-linecap="round"/>
<path d="M117.742 191.228C125.967 191.228 125.967 200.404 134.208 200.404C142.433 200.404 142.433 191.228 150.674 191.228C158.914 191.228 158.914 200.404 167.14 200.404C175.365 200.404 175.38 191.228 183.606 191.228" stroke="#824FF1" stroke-width="2" stroke-miterlimit="10" stroke-linecap="round"/>
<defs>
<clipPath id="clip0_4_2">
<rect width="658" height="700" fill="white" transform="translate(71.0601)"/>
</clipPath>
</defs>
</svg>
