<svg width="32" height="33" viewBox="0 0 32 33" fill="none" xmlns="http://www.w3.org/2000/svg">
<g id="User Interface / Grid Four 01">
<g id="Shape">
<path d="M20.7575 4.5C20.421 4.49996 20.0932 4.49992 19.8157 4.5226C19.5109 4.5475 19.1513 4.60626 18.7894 4.79066C18.2876 5.04632 17.8797 5.45427 17.624 5.95603C17.4396 6.31793 17.3808 6.67758 17.3559 6.98237C17.3333 7.25991 17.3333 7.58763 17.3333 7.92414V11.7425C17.3333 12.079 17.3333 12.4068 17.3559 12.6843C17.3808 12.9891 17.4396 13.3488 17.624 13.7106C17.8797 14.2124 18.2876 14.6204 18.7894 14.876C19.1513 15.0604 19.5109 15.1192 19.8157 15.1441C20.0932 15.1668 20.4209 15.1667 20.7574 15.1667H24.5759C24.9124 15.1667 25.2401 15.1668 25.5176 15.1441C25.8224 15.1192 26.1821 15.0604 26.544 14.876C27.0457 14.6204 27.4537 14.2124 27.7094 13.7106C27.8938 13.3488 27.9525 12.9891 27.9774 12.6843C28.0001 12.4068 28.0001 12.079 28 11.7425V7.92414C28.0001 7.58763 28.0001 7.25991 27.9774 6.98237C27.9525 6.67758 27.8938 6.31793 27.7094 5.95603C27.4537 5.45427 27.0457 5.04632 26.544 4.79066C26.1821 4.60626 25.8224 4.5475 25.5176 4.5226C25.2401 4.49992 24.9124 4.49996 24.5759 4.5L20.7575 4.5Z" fill="#90ECF4"/>
<path d="M7.42414 17.8333C7.08763 17.8333 6.75991 17.8333 6.48237 17.8559C6.17758 17.8808 5.81793 17.9396 5.45603 18.124C4.95427 18.3797 4.54632 18.7876 4.29066 19.2894C4.10626 19.6513 4.0475 20.0109 4.0226 20.3157C3.99992 20.5932 3.99996 20.921 4 21.2575L4 25.0759C3.99996 25.4124 3.99992 25.7401 4.0226 26.0176C4.0475 26.3224 4.10626 26.6821 4.29066 27.044C4.54632 27.5457 4.95427 27.9537 5.45603 28.2094C5.81793 28.3938 6.17758 28.4525 6.48237 28.4774C6.75991 28.5001 7.08763 28.5001 7.42414 28.5H11.2425C11.579 28.5001 11.9068 28.5001 12.1843 28.4774C12.4891 28.4525 12.8488 28.3938 13.2106 28.2094C13.7124 27.9537 14.1204 27.5457 14.376 27.044C14.5604 26.6821 14.6192 26.3224 14.6441 26.0176C14.6668 25.7401 14.6667 25.4124 14.6667 25.0759V21.2575C14.6667 20.921 14.6668 20.5932 14.6441 20.3157C14.6192 20.0109 14.5604 19.6513 14.376 19.2894C14.1204 18.7876 13.7124 18.3797 13.2106 18.124C12.8488 17.9396 12.4891 17.8808 12.1843 17.8559C11.9068 17.8333 11.579 17.8333 11.2425 17.8333H7.42414Z" fill="#90ECF4"/>
<path d="M20.7575 17.8333C20.421 17.8333 20.0932 17.8333 19.8157 17.8559C19.5109 17.8808 19.1513 17.9396 18.7894 18.124C18.2876 18.3797 17.8797 18.7876 17.624 19.2894C17.4396 19.6513 17.3808 20.0109 17.3559 20.3157C17.3333 20.5932 17.3333 20.921 17.3333 21.2575V25.0759C17.3333 25.4124 17.3333 25.7401 17.3559 26.0176C17.3808 26.3224 17.4396 26.6821 17.624 27.044C17.8797 27.5457 18.2876 27.9537 18.7894 28.2094C19.1513 28.3938 19.5109 28.4525 19.8157 28.4774C20.0932 28.5001 20.421 28.5001 20.7575 28.5H24.5759C24.9124 28.5001 25.2401 28.5001 25.5176 28.4774C25.8224 28.4525 26.1821 28.3938 26.544 28.2094C27.0457 27.9537 27.4537 27.5457 27.7094 27.044C27.8938 26.6821 27.9525 26.3224 27.9774 26.0176C28.0001 25.7401 28.0001 25.4124 28 25.0759V21.2575C28.0001 20.921 28.0001 20.5932 27.9774 20.3157C27.9525 20.0109 27.8938 19.6513 27.7094 19.2894C27.4537 18.7876 27.0457 18.3797 26.544 18.124C26.1821 17.9396 25.8224 17.8808 25.5176 17.8559C25.2401 17.8333 24.9124 17.8333 24.5759 17.8333H20.7575Z" fill="#90ECF4"/>
</g>
<path id="Shape_2" d="M7.42414 4.5C7.08764 4.49996 6.75991 4.49992 6.48237 4.5226C6.17758 4.5475 5.81793 4.60626 5.45603 4.79066C4.95427 5.04632 4.54632 5.45427 4.29066 5.95603C4.10626 6.31793 4.0475 6.67758 4.0226 6.98237C3.99992 7.25991 3.99996 7.58762 4 7.92412L4 11.7425C3.99996 12.079 3.99992 12.4068 4.0226 12.6843C4.0475 12.9891 4.10626 13.3487 4.29066 13.7106C4.54632 14.2124 4.95427 14.6204 5.45603 14.876C5.81793 15.0604 6.17758 15.1192 6.48237 15.1441C6.7599 15.1668 7.0876 15.1667 7.4241 15.1667H11.2425C11.579 15.1667 11.9068 15.1668 12.1843 15.1441C12.4891 15.1192 12.8487 15.0604 13.2106 14.876C13.7124 14.6204 14.1204 14.2124 14.376 13.7106C14.5604 13.3487 14.6192 12.9891 14.6441 12.6843C14.6668 12.4068 14.6667 12.0791 14.6667 11.7426V7.92414C14.6667 7.58765 14.6668 7.2599 14.6441 6.98237C14.6192 6.67758 14.5604 6.31793 14.376 5.95603C14.1204 5.45427 13.7124 5.04632 13.2106 4.79066C12.8487 4.60626 12.4891 4.5475 12.1843 4.5226C11.9068 4.49992 11.5791 4.49996 11.2426 4.5L7.42414 4.5Z" fill="#444BD3"/>
</g>
</svg>
