<svg width="32" height="33" viewBox="0 0 32 33" fill="none" xmlns="http://www.w3.org/2000/svg">
<g id="User Interface / Edit">
<path id="Shape" d="M5.33334 28.5C5.33334 27.7636 5.93029 27.1667 6.66667 27.1667H25.3333C26.0697 27.1667 26.6667 27.7636 26.6667 28.5C26.6667 29.2364 26.0697 29.8333 25.3333 29.8333H6.66667C5.93029 29.8333 5.33334 29.2364 5.33334 28.5Z" fill="#90ECF4"/>
<g id="Shape_2">
<path d="M18.2783 4.33626C19.8404 2.77418 22.373 2.77419 23.9351 4.33628L25.4972 5.89837C27.0593 7.46048 27.0593 9.99315 25.4972 11.5552L24.9429 12.1095L17.7239 4.89059L18.2783 4.33626Z" fill="#444BD3"/>
<path d="M7.7293 14.896C7.54631 15.1142 7.4116 15.3696 7.33496 15.6453L5.39178 22.6357C5.08613 23.7352 6.09811 24.7472 7.19767 24.4416L14.1881 22.4984C14.4638 22.4217 14.7191 22.287 14.9374 22.104L7.7293 14.896Z" fill="#444BD3"/>
</g>
<path id="Shape_3" d="M24.9429 12.1095L17.7239 4.89059L7.84769 14.7667C7.80626 14.8081 7.76677 14.8513 7.7293 14.896L14.9374 22.1041C14.9821 22.0666 15.0252 22.0271 15.0666 21.9857L24.9429 12.1095Z" fill="#90ECF4"/>
</g>
</svg>
