<svg width="22" height="22" viewBox="0 0 22 22" fill="none" xmlns="http://www.w3.org/2000/svg">
<path d="M20.21 14.89C19.5738 16.3945 18.5788 17.7202 17.3119 18.7513C16.045 19.7824 14.5448 20.4874 12.9424 20.8048C11.3401 21.1221 9.68442 21.0421 8.12015 20.5718C6.55587 20.1014 5.13062 19.2551 3.96902 18.1067C2.80741 16.9582 1.94481 15.5428 1.45663 13.9839C0.968455 12.4251 0.86956 10.7705 1.1686 9.16463C1.46763 7.55878 2.15549 6.05063 3.17204 4.77203C4.18859 3.49343 5.50288 2.48332 7 1.83M21 11C21 9.68678 20.7413 8.38642 20.2388 7.17317C19.7362 5.95991 18.9997 4.85752 18.0711 3.92893C17.1425 3.00035 16.0401 2.26375 14.8268 1.7612C13.6136 1.25866 12.3132 1 11 1V11H21Z" stroke="#7F56D9" stroke-width="2" stroke-linecap="round" stroke-linejoin="round"/>
</svg>
