<svg width="90" height="36" viewBox="0 0 90 36" fill="none" xmlns="http://www.w3.org/2000/svg">
<path d="M34.2595 7.87509V26.8991H41.2073C46.9026 26.8991 50.2513 23.3658 50.2513 17.341C50.2513 11.316 46.8894 7.87509 41.2073 7.87509H34.2595ZM37.661 10.7491H40.8513C44.6482 10.7491 46.7839 13.0958 46.7839 17.3541C46.7839 21.6914 44.6745 24.025 40.8513 24.025H37.661V10.7491Z" fill="#444BD3"/>
<path d="M52.7168 26.8991H55.9994V7.87509H52.7168V26.8991Z" fill="#444BD3"/>
<path d="M68.0493 22.7198C67.6934 23.88 66.5332 24.6446 65.0039 24.6446C62.855 24.6446 61.4838 23.1417 61.4838 20.9005V20.7027H71.2529V19.6349C71.2529 15.3898 68.7744 12.6344 64.8062 12.6344C60.7719 12.6344 58.2144 15.548 58.2144 19.9645C58.2144 24.4205 60.7456 27.1758 64.938 27.1758C68.2471 27.1758 70.6993 25.3566 71.1212 22.7198H68.0493ZM64.8194 15.1788C66.7046 15.1788 67.9703 16.5632 68.0362 18.5407H61.5103C61.6421 16.5895 62.9737 15.1788 64.8194 15.1788Z" fill="#444BD3"/>
<path d="M78.5962 21.8892L81.4966 26.899H85.0825L80.6397 19.8326L85.1353 12.9244H81.5362L78.7544 17.8287H78.6884L75.8672 12.9244H72.1757L76.645 19.9248L72.1362 26.899H75.6299L78.5303 21.8892H78.5962Z" fill="#444BD3"/>
<path fill-rule="evenodd" clip-rule="evenodd" d="M13.5088 31.4999C20.9605 31.4949 26.9997 25.4528 26.9997 18C26.9997 10.5472 20.9605 4.50494 13.5088 4.50009C18.7886 6.70646 22.4988 11.9199 22.4988 18C22.4988 24.0799 18.7886 29.2934 13.5088 31.4999Z" fill="#444BD3" fill-opacity="0.32"/>
<path d="M0 9.30052C0 6.64955 2.12076 4.50052 4.73684 4.50052H7.87517C15.3309 4.50052 21.375 10.5446 21.375 18.0004C21.375 25.4562 15.3309 31.5002 7.87517 31.5002H4.73684C2.12076 31.5002 0 29.3512 0 26.7002V9.30052Z" fill="#444BD3"/>
</svg>
