<?xml version="1.0" encoding="utf-8"?>
<!-- Generator: Adobe Illustrator 23.0.5, SVG Export Plug-In . SVG Version: 6.00 Build 0)  -->
<svg version="1.1" id="Layer_1" xmlns="http://www.w3.org/2000/svg" xmlns:xlink="http://www.w3.org/1999/xlink" x="0px" y="0px"
	 viewBox="0 0 750 500" style="enable-background:new 0 0 750 500;" xml:space="preserve">
<style type="text/css">
	.st0{fill:#F5F5F5;}
	.st1{fill:#E0E0E0;}
	.st2{fill:#FFFFFF;}
	.st3{fill:#263238;}
	.st4{fill:#3E54CF;}
	.st5{opacity:0.2;}
	.st6{opacity:0.3;}
	.st7{opacity:0.5;}
	.st8{opacity:0.7;}
	.st9{fill:#263238;stroke:#6C63FF;stroke-width:0.75;stroke-miterlimit:10;}
	.st10{fill:#EBEBEB;}
	.st11{fill:#6C63FF;}
	.st12{fill:#3F3D56;}
	.st13{fill:#CCCCCC;}
	.st14{fill:#E6E6E6;}
	.st15{fill:#FFB8B8;}
	.st16{fill:#2F2E41;}
	.st17{fill:none;stroke:#FFFFFF;stroke-width:3;stroke-linecap:round;stroke-linejoin:round;stroke-miterlimit:10;}
	.st18{fill:#CECEF4;stroke:#6C63FF;stroke-width:0.75;stroke-miterlimit:10;}
	.st19{font-family:'ArcaMajora3-Bold';}
	.st20{font-size:19.2325px;}
</style>
<g>
	<rect x="89" y="29.2" class="st0" width="580.9" height="270.9"/>
	<path class="st1" d="M40.9,410.9c0.2-0.3,0.5-0.6,0.8-0.8l2.2-2c1.9-1.7,4.5-4.1,7.3-6.8c2.8-2.7,5.2-5.3,6.9-7.1l2.1-2.2
		c0.2-0.3,0.5-0.5,0.8-0.8c-0.2,0.3-0.4,0.6-0.7,0.9c-0.4,0.6-1.2,1.4-2,2.4c-1.7,1.9-4.1,4.5-6.9,7.3c-2.8,2.7-5.4,5.1-7.4,6.7
		c-1,0.8-1.8,1.5-2.4,1.9C41.5,410.5,41.2,410.7,40.9,410.9z"/>
	<path class="st1" d="M50.8,446.6c0.3-0.4,0.6-0.7,1-1l2.8-2.7c2.4-2.3,5.5-5.4,8.9-9c3.4-3.6,6.4-6.9,8.6-9.3l2.6-2.8
		c0.3-0.4,0.6-0.7,1-1c-0.2,0.4-0.5,0.8-0.8,1.2c-0.6,0.7-1.4,1.7-2.5,3c-2.1,2.5-5.1,5.8-8.5,9.4s-6.7,6.7-9,8.9
		c-1.2,1.1-2.2,2-2.9,2.6C51.5,446.1,51.1,446.4,50.8,446.6z"/>
	<path class="st1" d="M700.3,454.4c-0.1-0.2-0.3-0.4-0.4-0.6c-0.3-0.5-0.6-1-1-1.7c-0.8-1.5-2-3.7-3.4-6.4
		c-2.8-5.5-6.5-13.1-10.4-21.6c-3.9-8.5-7.5-16.2-10.2-21.7l-3.2-6.5l-0.9-1.8c-0.2,0.1-0.4-0.1-0.4-0.2c-0.1-0.2,0.1-0.4,0.2-0.4
		c0.2-0.1,0.4,0.1,0.4,0.2c0,0.1,0,0.3-0.1,0.4c0.3,0.5,0.6,1,1,1.7c0.8,1.5,2,3.7,3.4,6.4c2.8,5.5,6.5,13.1,10.4,21.7
		c3.9,8.5,7.5,16.2,10.2,21.7l3.2,6.5c0.4,0.7,0.6,1.3,0.9,1.8C700.2,453.9,700.3,454.1,700.3,454.4z"/>
	<rect x="75.6" y="46.7" class="st1" width="609.8" height="281.2"/>
	<rect x="55.1" y="68.3" class="st2" width="653.7" height="402.2"/>
	<path class="st3" d="M708.8,470.5c0-1.9-0.1-156-0.2-402.2l0.2,0.2H55.2l0,0l0.3-0.2c0,142.5,0,278.5,0,402.2l-0.3-0.3L708.8,470.5
		l-653.7,0.3h-0.3v-0.3c0-123.7,0-259.6,0-402.2V68h0.4l653.6,0.1h0.2v0.2C708.9,314.5,708.8,468.6,708.8,470.5z"/>
	<circle class="st4" cx="104.5" cy="433.1" r="17.5"/>
	<path class="st2" d="M106.5,434.1c2.1-1.1,2.9-3.7,1.8-5.8c-1.1-2.1-3.7-2.9-5.8-1.8c-2.1,1.1-2.9,3.7-1.8,5.8
		c0.5,0.9,1.2,1.6,2.2,2c-2.2,0.8-4.6,3.5-4.6,5.9c0,0,0,0.1,0,0.1h12.5c0,0,0-0.1,0-0.1C110.5,437.5,108.9,435.2,106.5,434.1z"/>
	<path class="st3" d="M299.5,429.5c0,0.2-36.2,0.3-80.8,0.3s-80.8-0.1-80.8-0.3s36.2-0.3,80.8-0.3S299.5,429.3,299.5,429.5z"/>
	<path class="st3" d="M179.4,440.2c0,0.2-9.8,0.3-21.9,0.3c-12.1,0-21.9-0.1-21.9-0.3s9.8-0.3,21.9-0.3S179.4,440,179.4,440.2z"/>
	<path class="st3" d="M431.5,424v5.3h-0.7v-4.6h-1.2V424H431.5z"/>
	<path class="st3" d="M432.6,426.6c0-1.7,0.9-2.7,2.2-2.7s2.2,1,2.2,2.7c0,1.7-0.9,2.7-2.2,2.7S432.6,428.4,432.6,426.6z
		 M436.1,426.6c0-1.4-0.6-2-1.4-2s-1.4,0.7-1.4,2c0,1.4,0.6,2,1.4,2S436.2,428,436.1,426.6L436.1,426.6z"/>
	<path class="st3" d="M439.8,426.9l-1,1v1.4h-0.8V424h0.8v3l2.9-3h0.9l-2.3,2.4l2.4,2.9h-0.9L439.8,426.9z"/>
	<path class="st3" d="M479.5,428h-1v1.3h-0.7V428h-2.9v-0.5l2.7-3.5h0.8l-2.6,3.4h2v-1.2h0.7v1.2h1L479.5,428z"/>
	<path class="st3" d="M479.9,426.6c0-1.7,0.9-2.7,2.2-2.7c1.2,0,2.2,1,2.2,2.7c0,1.7-0.9,2.7-2.2,2.7S479.9,428.4,479.9,426.6z
		 M483.5,426.6c0-1.4-0.6-2-1.4-2s-1.4,0.7-1.4,2c0,1.4,0.6,2,1.4,2C482.9,428.7,483.5,428,483.5,426.6L483.5,426.6z"/>
	<path class="st3" d="M485,426.6c0-1.7,0.9-2.7,2.2-2.7s2.2,1,2.2,2.7c0,1.7-0.9,2.7-2.2,2.7S485,428.4,485,426.6z M488.5,426.6
		c0-1.4-0.6-2-1.4-2c-0.8,0-1.4,0.7-1.4,2c0,1.4,0.6,2,1.4,2C487.9,428.7,488.5,428,488.5,426.6L488.5,426.6z"/>
	<path class="st3" d="M506.8,426.6c0-0.6-0.5-1.2-1.2-1.2s-1.2,0.5-1.2,1.2c0,0.6,0.5,1.2,1.2,1.2S506.8,427.3,506.8,426.6z"/>
	<path class="st3" d="M511.4,426.6c0-0.6-0.5-1.2-1.2-1.2c-0.6,0-1.2,0.5-1.2,1.2c0,0.6,0.5,1.2,1.2,1.2
		C510.9,427.8,511.4,427.3,511.4,426.6z"/>
	<path class="st3" d="M516,426.6c0-0.6-0.5-1.2-1.2-1.2s-1.2,0.5-1.2,1.2c0,0.6,0.5,1.2,1.2,1.2S516,427.3,516,426.6z"/>
	<path class="st3" d="M420.4,422.7h-1.2l-2.6-3.6v-2.4c0,0-1.8-0.1-1.6,3s0,2.4,0,2.4s-3.9,0-4.3,0.4c-0.3,2.1-0.4,4.2-0.4,6.3
		c-0.1,1.1,0.6,2,1.6,2.4c0.1,0,0.3,0.1,0.4,0.1c1,0,6-0.8,6-0.8h2.1L420.4,422.7z"/>
	<polygon class="st3" points="424.5,422.1 423.7,430.2 421.7,430.2 421.7,422.2 	"/>
	<path class="st3" d="M467.5,428.9h-1.2l-2.6,3.6v2.4c0,0-1.8,0.1-1.6-3s0-2.4,0-2.4s-3.9,0-4.3-0.4c-0.3-2.1-0.4-4.2-0.4-6.3
		c-0.1-1.1,0.6-2,1.6-2.4c0.1,0,0.3-0.1,0.4-0.1c1,0,6,0.8,6,0.8h2.1L467.5,428.9z"/>
	<polygon class="st3" points="471.6,429.6 470.8,421.4 468.8,421.4 468.8,429.4 	"/>
	<rect x="55.1" y="68.3" class="st3" width="653.7" height="12.3"/>
	<rect x="548.9" y="110" class="st4" width="69.4" height="44.6"/>
	<path class="st2" d="M589.1,131.6c0.4,0.2,0.6,0.8,0.3,1.2c-0.1,0.1-0.2,0.3-0.3,0.3L584,136l-5.1,2.9c-0.4,0.2-0.9,0.1-1.2-0.3
		c-0.1-0.1-0.1-0.3-0.1-0.4v-11.7c0-0.5,0.4-0.9,0.9-0.9c0.2,0,0.3,0,0.4,0.1l5.1,2.9L589.1,131.6z"/>
	<path class="st3" d="M672.6,114.8c0,0.2-10.2,0.3-22.8,0.3c-12.6,0-22.8-0.1-22.8-0.3c0-0.2,10.2-0.3,22.8-0.3
		C662.3,114.5,672.6,114.7,672.6,114.8z"/>
	<path class="st3" d="M679.8,123.6c0,0.2-11.8,0.3-26.5,0.3s-26.5-0.1-26.5-0.3s11.8-0.3,26.5-0.3
		C668,123.3,679.8,123.4,679.8,123.6z"/>
	<path class="st3" d="M679.8,132.3c0,0.2-11.8,0.3-26.5,0.3s-26.5-0.1-26.5-0.3c0-0.2,11.8-0.3,26.5-0.3
		C668,132,679.8,132.2,679.8,132.3z"/>
	<path class="st3" d="M679.8,141.1c0,0.2-11.8,0.3-26.5,0.3s-26.5-0.1-26.5-0.3c0-0.2,11.8-0.3,26.5-0.3
		C668,140.8,679.8,140.9,679.8,141.1z"/>
	<path class="st3" d="M679.8,149.8c0,0.2-11.8,0.3-26.5,0.3s-26.5-0.1-26.5-0.3s11.8-0.3,26.5-0.3
		C668,149.5,679.8,149.7,679.8,149.8z"/>
	<rect x="548.9" y="166.4" class="st4" width="69.4" height="44.6"/>
	<g class="st5">
		<rect x="548.9" y="166.4" class="st2" width="69.4" height="44.6"/>
	</g>
	<path class="st2" d="M589.1,188c0.4,0.2,0.6,0.8,0.3,1.2c-0.1,0.1-0.2,0.3-0.3,0.3l-5.1,2.9l-5.1,2.9c-0.4,0.2-0.9,0.1-1.2-0.3
		c-0.1-0.1-0.1-0.3-0.1-0.4v-11.7c0-0.5,0.4-0.9,0.9-0.9c0.2,0,0.3,0,0.4,0.1l5.1,2.9L589.1,188z"/>
	<path class="st3" d="M672.6,171.2c0,0.2-10.2,0.3-22.8,0.3c-12.6,0-22.8-0.1-22.8-0.3s10.2-0.3,22.8-0.3
		C662.3,170.9,672.6,171.1,672.6,171.2z"/>
	<path class="st3" d="M679.8,180c0,0.2-11.8,0.3-26.5,0.3s-26.5-0.1-26.5-0.3s11.8-0.3,26.5-0.3C668,179.7,679.8,179.8,679.8,180z"
		/>
	<path class="st3" d="M679.8,188.7c0,0.2-11.8,0.3-26.5,0.3s-26.5-0.1-26.5-0.3c0-0.2,11.8-0.3,26.5-0.3
		C668,188.4,679.8,188.5,679.8,188.7z"/>
	<path class="st3" d="M679.8,197.5c0,0.2-11.8,0.3-26.5,0.3s-26.5-0.1-26.5-0.3s11.8-0.3,26.5-0.3
		C668,197.2,679.8,197.3,679.8,197.5z"/>
	<path class="st3" d="M679.8,206.2c0,0.2-11.8,0.3-26.5,0.3s-26.5-0.1-26.5-0.3s11.8-0.3,26.5-0.3C668,205.9,679.8,206,679.8,206.2z
		"/>
	<rect x="548.9" y="225.7" class="st4" width="69.4" height="44.6"/>
	<g class="st6">
		<rect x="548.9" y="225.7" class="st2" width="69.4" height="44.6"/>
	</g>
	<path class="st2" d="M589.1,247.2c0.4,0.2,0.6,0.7,0.3,1.2c-0.1,0.1-0.2,0.3-0.3,0.3l-5.1,2.9l-5.1,2.9c-0.4,0.2-0.9,0.1-1.2-0.3
		c-0.1-0.1-0.1-0.3-0.1-0.4v-11.7c0-0.5,0.4-0.9,0.9-0.9c0.2,0,0.3,0,0.4,0.1l5.1,2.9L589.1,247.2z"/>
	<path class="st3" d="M672.6,230.5c0,0.2-10.2,0.3-22.8,0.3c-12.6,0-22.8-0.1-22.8-0.3s10.2-0.3,22.8-0.3
		C662.3,230.2,672.6,230.3,672.6,230.5z"/>
	<path class="st3" d="M679.8,239.2c0,0.2-11.8,0.3-26.5,0.3s-26.5-0.1-26.5-0.3s11.8-0.3,26.5-0.3
		C668,238.9,679.8,239.1,679.8,239.2z"/>
	<path class="st3" d="M679.8,248c0,0.2-11.8,0.3-26.5,0.3s-26.5-0.1-26.5-0.3c0-0.2,11.8-0.3,26.5-0.3
		C668,247.7,679.8,247.8,679.8,248z"/>
	<path class="st3" d="M679.8,256.7c0,0.2-11.8,0.3-26.5,0.3s-26.5-0.1-26.5-0.3c0-0.2,11.8-0.3,26.5-0.3
		C668,256.4,679.8,256.5,679.8,256.7z"/>
	<path class="st3" d="M679.8,265.5c0,0.2-11.8,0.3-26.5,0.3s-26.5-0.1-26.5-0.3s11.8-0.3,26.5-0.3
		C668,265.2,679.8,265.3,679.8,265.5z"/>
	<rect x="548.9" y="284.9" class="st4" width="69.4" height="44.6"/>
	<g class="st7">
		<rect x="548.9" y="284.9" class="st2" width="69.4" height="44.6"/>
	</g>
	<path class="st2" d="M589.1,306.5c0.4,0.2,0.6,0.8,0.3,1.2c-0.1,0.1-0.2,0.3-0.3,0.3l-5.1,2.9l-5.1,2.9c-0.4,0.2-0.9,0.1-1.2-0.3
		c-0.1-0.1-0.1-0.3-0.1-0.4v-11.7c0-0.5,0.4-0.9,0.9-0.9c0.2,0,0.3,0,0.4,0.1l5.1,2.9L589.1,306.5z"/>
	<path class="st3" d="M672.6,289.7c0,0.2-10.2,0.3-22.8,0.3c-12.6,0-22.8-0.1-22.8-0.3s10.2-0.3,22.8-0.3
		C662.3,289.4,672.6,289.6,672.6,289.7z"/>
	<path class="st3" d="M679.8,298.5c0,0.2-11.8,0.3-26.5,0.3s-26.5-0.1-26.5-0.3c0-0.2,11.8-0.3,26.5-0.3
		C668,298.2,679.8,298.3,679.8,298.5z"/>
	<path class="st3" d="M679.8,307.2c0,0.2-11.8,0.3-26.5,0.3s-26.5-0.1-26.5-0.3s11.8-0.3,26.5-0.3C668,306.9,679.8,307,679.8,307.2z
		"/>
	<path class="st3" d="M679.8,316c0,0.2-11.8,0.3-26.5,0.3s-26.5-0.1-26.5-0.3s11.8-0.3,26.5-0.3C668,315.7,679.8,315.8,679.8,316z"
		/>
	<path class="st3" d="M679.8,324.7c0,0.2-11.8,0.3-26.5,0.3s-26.5-0.1-26.5-0.3s11.8-0.3,26.5-0.3
		C668,324.4,679.8,324.6,679.8,324.7z"/>
	<rect x="548.9" y="344.2" class="st4" width="69.4" height="44.6"/>
	<g class="st8">
		<rect x="548.9" y="344.2" class="st2" width="69.4" height="44.6"/>
	</g>
	<path class="st2" d="M589.1,365.7c0.4,0.2,0.6,0.8,0.3,1.2c-0.1,0.1-0.2,0.3-0.3,0.3l-5.1,2.9l-5.1,2.9c-0.4,0.2-0.9,0.1-1.2-0.3
		c-0.1-0.1-0.1-0.3-0.1-0.4v-11.8c0-0.5,0.4-0.9,0.9-0.9c0.2,0,0.3,0,0.4,0.1l5.1,2.9L589.1,365.7z"/>
	<path class="st3" d="M672.6,349c0,0.2-10.2,0.3-22.8,0.3c-12.6,0-22.8-0.1-22.8-0.3s10.2-0.3,22.8-0.3
		C662.3,348.7,672.6,348.8,672.6,349z"/>
	<path class="st3" d="M679.8,357.7c0,0.2-11.8,0.3-26.5,0.3s-26.5-0.1-26.5-0.3s11.8-0.3,26.5-0.3
		C668,357.4,679.8,357.5,679.8,357.7z"/>
	<path class="st3" d="M679.8,366.5c0,0.2-11.8,0.3-26.5,0.3s-26.5-0.1-26.5-0.3c0-0.2,11.8-0.3,26.5-0.3
		C668,366.2,679.8,366.3,679.8,366.5z"/>
	<path class="st3" d="M679.8,375.2c0,0.2-11.8,0.3-26.5,0.3s-26.5-0.1-26.5-0.3c0-0.2,11.8-0.3,26.5-0.3
		C668,374.9,679.8,375,679.8,375.2z"/>
	<path class="st3" d="M679.8,384c0,0.2-11.8,0.3-26.5,0.3s-26.5-0.1-26.5-0.3c0-0.2,11.8-0.3,26.5-0.3
		C668,383.7,679.8,383.8,679.8,384z"/>
	<rect x="548.9" y="404" class="st0" width="69.4" height="44.6"/>
	<path class="st2" d="M589.1,425.5c0.4,0.2,0.6,0.8,0.3,1.2c-0.1,0.1-0.2,0.3-0.3,0.3l-5.1,2.9l-5.1,2.9c-0.4,0.2-0.9,0.1-1.2-0.3
		c-0.1-0.1-0.1-0.3-0.1-0.4v-11.7c0-0.5,0.4-0.9,0.9-0.9c0.2,0,0.3,0,0.4,0.1l5.1,2.9L589.1,425.5z"/>
	<path class="st3" d="M672.6,408.8c0,0.2-10.2,0.3-22.8,0.3c-12.6,0-22.8-0.1-22.8-0.3s10.2-0.3,22.8-0.3
		C662.3,408.5,672.6,408.6,672.6,408.8z"/>
	<path class="st3" d="M679.8,417.5c0,0.2-11.8,0.3-26.5,0.3s-26.5-0.1-26.5-0.3s11.8-0.3,26.5-0.3
		C668,417.2,679.8,417.3,679.8,417.5z"/>
	<path class="st3" d="M679.8,426.3c0,0.2-11.8,0.3-26.5,0.3s-26.5-0.1-26.5-0.3s11.8-0.3,26.5-0.3C668,426,679.8,426.1,679.8,426.3z
		"/>
	<path class="st3" d="M679.8,435c0,0.2-11.8,0.3-26.5,0.3s-26.5-0.1-26.5-0.3s11.8-0.3,26.5-0.3C668,434.7,679.8,434.8,679.8,435z"
		/>
	<path class="st3" d="M679.8,443.7c0,0.2-11.8,0.3-26.5,0.3s-26.5-0.1-26.5-0.3c0-0.2,11.8-0.3,26.5-0.3
		C668,443.4,679.8,443.6,679.8,443.7z"/>
	<circle class="st2" cx="65.6" cy="74.9" r="2.9"/>
	<path class="st2" d="M77.8,74.9c0,1.6-1.3,2.9-2.9,2.9c-1.6,0-2.9-1.3-2.9-2.9s1.3-2.9,2.9-2.9C76.5,72,77.7,73.3,77.8,74.9z"/>
	<path class="st2" d="M87,74.9c0,1.6-1.3,2.9-2.9,2.9c-1.6,0-2.9-1.3-2.9-2.9s1.3-2.9,2.9-2.9C85.7,72,87,73.3,87,74.9z"/>
	<path class="st9" d="M508.1,401.6h0.2c0.2,0,0.5,0,0.7-0.1c0.9-0.1,1.8-0.5,2.5-1c1.2-0.9,2.2-2.1,2.7-3.5c0.4-0.9,0.6-1.8,0.7-2.8
		c0.1-1,0-2.2,0-3.3c0-9.5,0-23.4-0.1-41.4c0-35.9,0-87.9-0.1-152.1c0-16,0-32.8,0-50.4v-26.8c0-1.1,0-2.3-0.2-3.4
		c-0.2-1.1-0.6-2.2-1.2-3.1c-0.6-1-1.3-1.8-2.3-2.4c-0.9-0.6-2-0.9-3.1-1h-14H373.5H97.3c-1.5,0-2.9,0.6-3.9,1.6
		c-1.1,1-1.9,2.3-2.4,3.7c-0.4,1.4-0.5,2.9-0.4,4.4v129.3c0,46.2,0,90.8,0,133.2v7.9c0,1.3,0,2.6,0.1,3.9c0.2,1.3,0.6,2.5,1.2,3.5
		c0.7,1.1,1.6,2,2.7,2.6c0.5,0.3,1.1,0.5,1.8,0.6c0.6,0.1,1.3,0.1,1.9,0.1h96.9h105l152.1,0.1l41.4,0.1h10.8h3.7h-3.7h-10.8
		l-41.4,0.1l-152,0.3h-105H98.3c-0.7,0-1.3,0-2-0.1c-0.7-0.1-1.3-0.3-1.9-0.6c-1.2-0.7-2.2-1.6-2.9-2.8c-0.7-1.2-1.2-2.5-1.3-3.8
		c-0.1-1.3-0.1-2.7-0.1-4v-7.9c0-42.5,0-87,0-133.2c0-23.1,0-46.6,0-70.5v-58.7c-0.1-1.6,0.1-3.1,0.5-4.6c0.5-1.5,1.3-2.9,2.5-4
		c1.2-1.1,2.7-1.7,4.4-1.7h276.2h120.5h14c1.2,0,2.4,0.4,3.4,1c1,0.7,1.8,1.6,2.4,2.6c0.6,1,1,2.1,1.2,3.3c0.2,1.1,0.2,2.3,0.2,3.5
		v26.8c0,17.5,0,34.3,0,50.4c0,64.2-0.1,116.2-0.1,152.1c0,17.9,0,31.9-0.1,41.4c0,1.2,0,2.3-0.1,3.3c-0.1,1-0.3,1.9-0.7,2.8
		c-0.6,1.4-1.5,2.6-2.8,3.5c-0.8,0.5-1.6,0.9-2.5,1C508.7,401.5,508.4,401.5,508.1,401.6z"/>
	<path class="st3" d="M132.6,384.8v-3.1c0-0.2,0.2-0.4,0.4-0.4c0.1,0,0.1,0,0.2,0l2.7,1.6l2.7,1.5c0.2,0.1,0.2,0.3,0.1,0.5
		c0,0.1-0.1,0.1-0.1,0.1l-2.7,1.5l-2.7,1.5c-0.2,0.1-0.4,0-0.5-0.1c0-0.1,0-0.1,0-0.2V384.8z"/>
	<path class="st3" d="M157.6,382.4h-2.4c-0.2,0-0.4,0.1-0.4,0.3c0,0,0,0,0,0v4.1c0,0.2,0.2,0.4,0.4,0.4h2.4l3.6,3.5v-12L157.6,382.4
		z"/>
	<path class="st3" d="M140.6,388.5L140.6,388.5c-0.3,0-0.6-0.3-0.6-0.6c0,0,0,0,0,0v-6.2c0-0.3,0.3-0.6,0.6-0.6l0,0
		c0.3,0,0.6,0.3,0.6,0.6c0,0,0,0,0,0v6.2C141.3,388.2,141,388.5,140.6,388.5z"/>
	<path class="st3" d="M162.7,381v7.5c2.1-0.8,3.1-3.1,2.3-5.2C164.6,382.3,163.7,381.4,162.7,381z"/>
	<path class="st3" d="M162.7,378.2v1.6c2.8,0.8,4.4,3.7,3.6,6.5c-0.5,1.7-1.9,3.1-3.6,3.6v1.6c3.7-0.8,6-4.4,5.2-8.1
		C167.2,380.8,165.2,378.8,162.7,378.2L162.7,378.2z"/>
	<path class="st3" d="M182,382.3v7.3h-1v-6.4h-1.6v-0.9H182z"/>
	<path class="st3" d="M183.6,384.8c0-0.4,0.3-0.7,0.7-0.7c0,0,0,0,0,0c0.4,0,0.7,0.3,0.7,0.7c0,0,0,0,0,0c0,0.4-0.3,0.7-0.7,0.7
		c0,0,0,0,0,0C183.9,385.5,183.6,385.2,183.6,384.8C183.6,384.8,183.6,384.8,183.6,384.8z M183.6,389c0-0.4,0.3-0.7,0.7-0.7
		c0,0,0,0,0,0c0.4,0,0.7,0.3,0.7,0.7c0,0,0,0,0,0c0,0.4-0.3,0.7-0.7,0.7c0,0,0,0,0,0C183.9,389.7,183.6,389.4,183.6,389
		C183.6,389,183.6,389,183.6,389z"/>
	<path class="st3" d="M186,386c0-2.4,1.3-3.7,3-3.7s3,1.4,3,3.7s-1.3,3.7-3,3.7S186,388.4,186,386z M190.8,386
		c0-1.9-0.8-2.8-1.9-2.8s-1.9,0.9-1.9,2.8s0.8,2.8,1.9,2.8S190.8,387.8,190.8,386z"/>
	<path class="st3" d="M195.1,382.3v7.3h-1v-6.4h-1.6v-0.9H195.1z"/>
	<path class="st3" d="M202.1,380.9h0.9l-3.4,9.8h-0.9L202.1,380.9z"/>
	<path class="st3" d="M211.7,387.6c0,1.3-1.2,2.1-2.9,2.1s-2.9-0.8-2.9-2.1c0-0.8,0.5-1.5,1.3-1.8c-0.6-0.3-1-0.9-1-1.6
		c0-1.2,1.1-2,2.6-2s2.6,0.8,2.6,2c0,0.7-0.4,1.3-1,1.6C211.1,386,211.7,386.8,211.7,387.6z M210.6,387.6c0-0.8-0.7-1.3-1.9-1.3
		s-1.8,0.5-1.8,1.3s0.7,1.3,1.8,1.3S210.6,388.4,210.6,387.6L210.6,387.6z M207.2,384.3c0,0.7,0.6,1.2,1.6,1.2c1,0,1.6-0.4,1.6-1.2
		c0-0.7-0.6-1.2-1.6-1.2C207.8,383.1,207.2,383.6,207.2,384.3L207.2,384.3z"/>
	<path class="st3" d="M212.6,384.8c0-0.4,0.3-0.7,0.7-0.7c0,0,0,0,0,0c0.4,0,0.7,0.3,0.7,0.7c0,0,0,0,0,0c0,0.4-0.3,0.7-0.7,0.7
		c0,0,0,0,0,0C212.9,385.5,212.6,385.2,212.6,384.8C212.6,384.8,212.6,384.8,212.6,384.8z M212.6,389c0-0.4,0.3-0.7,0.7-0.7
		c0,0,0,0,0,0c0.4,0,0.7,0.3,0.7,0.7c0,0,0,0,0,0c0,0.4-0.3,0.7-0.7,0.7c0,0,0,0,0,0C212.9,389.7,212.6,389.4,212.6,389
		C212.6,389,212.6,389,212.6,389z"/>
	<path class="st3" d="M215,386c0-2.4,1.3-3.7,3-3.7c1.7,0,3,1.4,3,3.7s-1.3,3.7-3,3.7C216.2,389.7,215,388.4,215,386z M219.9,386
		c0-1.9-0.8-2.8-1.9-2.8c-1.1,0-1.9,0.9-1.9,2.8s0.8,2.8,1.9,2.8C219.1,388.8,219.9,387.8,219.9,386z"/>
	<path class="st3" d="M221.9,386c0-2.4,1.3-3.7,3-3.7s3,1.4,3,3.7s-1.3,3.7-3,3.7S221.9,388.4,221.9,386z M226.8,386
		c0-1.9-0.8-2.8-1.9-2.8c-1.1,0-1.9,0.9-1.9,2.8s0.8,2.8,1.9,2.8C226,388.8,226.8,387.8,226.8,386z"/>
	<path class="st3" d="M106.1,388.6L106.1,388.6c-0.6,0-1.2-0.5-1.2-1.2V381c0-0.6,0.5-1.2,1.1-1.2c0,0,0,0,0.1,0l0,0
		c0.6,0,1.2,0.5,1.2,1.2c0,0,0,0,0,0.1v6.4C107.3,388,106.7,388.6,106.1,388.6z"/>
	<path class="st3" d="M111.6,388.6L111.6,388.6c-0.6,0-1.2-0.5-1.2-1.2V381c0-0.6,0.5-1.2,1.1-1.2c0,0,0,0,0.1,0l0,0
		c0.6,0,1.2,0.5,1.2,1.2c0,0,0,0,0,0.1v6.4C112.8,388,112.3,388.6,111.6,388.6z"/>
	<path class="st1" d="M105.2,368h398.5c1.4,0,2.5,1.1,2.5,2.5v0.2c0,1.4-1.1,2.5-2.5,2.5H105.2c-1.4,0-2.5-1.1-2.5-2.5v-0.2
		C102.7,369.1,103.9,368,105.2,368z"/>
	<path class="st4" d="M105.3,368h100.1c1.2,0,2.2,1,2.2,2.2v0.8c0,1.2-1,2.2-2.2,2.2H105.3c-1.4,0-2.5-1.1-2.5-2.5v-0.2
		C102.7,369,103.9,367.9,105.3,368L105.3,368z"/>
	<path class="st4" d="M210.2,370.6c0,2.8-2.2,5-5,5s-5-2.2-5-5c0-2.8,2.2-5,5-5S210.2,367.8,210.2,370.6L210.2,370.6z"/>
	<path class="st1" d="M217.1,174.2c-0.4-1.7-0.6-3.5-0.4-5.3c0-1.8,0.3-3.5,1-5.2c0.2,0-0.2,2.4-0.3,5.2
		C217.2,171.8,217.3,174.1,217.1,174.2z"/>
	<path class="st1" d="M226.7,183.2c-0.2,0.1-1.1-1.4-2.7-2.8c-1.6-1.4-3.3-2-3.2-2.2C223.5,178.8,225.7,180.6,226.7,183.2
		L226.7,183.2z"/>
	<path class="st1" d="M243.9,172.5c-0.1,0.1-0.9-0.6-1.4-1.8c-0.5-1.1-0.6-2.2-0.4-2.2s0.5,0.9,1,1.9
		C243.5,171.5,244,172.3,243.9,172.5z"/>
	<path class="st3" d="M246.1,203.9c1.9-2.2,3.6-4.4,5.3-6.7c2.6-3.9,3.8-7.6,4-7.5c-0.1,0.8-0.4,1.7-0.7,2.4
		c-0.7,1.9-1.7,3.7-2.8,5.4c-1.1,1.7-2.4,3.3-3.9,4.7C247.5,202.9,246.9,203.5,246.1,203.9z"/>
	<path class="st3" d="M240.1,222.3c-0.6,0.4-1.3,0.6-1.9,0.7c-3.3,0.7-6.8,0.3-9.8-1.3c-0.6-0.3-1.2-0.7-1.7-1.2
		c2.1,1,4.3,1.6,6.6,2C235.5,222.8,237.8,222.7,240.1,222.3z"/>
	<path class="st3" d="M241.9,214c0-0.1,0.3,0,0.8-0.1c0.6,0,1.2-0.5,1.2-1.2s-0.5-1.2-1.2-1.2c-0.4-0.2-0.7-0.1-0.8-0.1
		s0.2-0.4,0.8-0.3c0.8,0.1,1.4,0.8,1.4,1.6c-0.1,0.8-0.7,1.5-1.5,1.5C242.2,214.3,241.9,214,241.9,214z"/>
	<path class="st3" d="M201.9,212c0,0.1-0.3,0.2-0.8,0.1c-0.7-0.2-1.3-0.8-1.4-1.5c-0.1-0.7,0.2-1.5,0.9-1.9c0.5-0.3,0.8-0.2,0.8-0.1
		s-0.3,0.2-0.6,0.5c-0.4,0.4-0.6,0.9-0.6,1.4c0.1,0.5,0.5,1,1,1.2C201.6,211.9,201.9,211.9,201.9,212z"/>
	<path class="st3" d="M212.1,220.9c-0.4,0.2-0.8,0.4-1.2,0.5c-1.2,0.4-2.4,0.6-3.6,0.5c-1.8,0-3.6-0.4-5.3-1.2
		c-4.3-1.8-7.1-5.9-7.3-10.6c-0.1-1.8,0.2-3.7,0.8-5.4c0.4-1.2,1-2.2,1.8-3.2c0.3-0.4,0.6-0.7,0.9-1c-1,1.3-1.8,2.8-2.4,4.3
		c-0.6,1.7-0.8,3.4-0.6,5.2c0.2,4.4,2.9,8.3,6.9,10.1c1.6,0.8,3.3,1.2,5.1,1.2C208.8,221.6,210.5,221.4,212.1,220.9z"/>
	<path class="st1" d="M220.5,213.7c-0.5,1.5-1.4,2.9-2.6,4c-1,1.3-2.4,2.2-3.9,2.9c-0.1-0.2,1.6-1.4,3.4-3.3
		S220.4,213.6,220.5,213.7z"/>
	<path class="st10" d="M220.6,222.9c-0.2-1.4-0.1-2.8,0.1-4.2c0-1.4,0.3-2.8,0.7-4.2c0.2,1.4,0.1,2.8-0.1,4.2
		C221.3,220.2,221,221.6,220.6,222.9z"/>
	<path class="st10" d="M219,224.6c-0.1-2.1,0.1-4.2,0.6-6.2c0.2-2.1,0.8-4.1,1.5-6.1c-0.2,2.1-0.5,4.1-0.9,6.1
		C219.9,220.5,219.5,222.6,219,224.6z"/>
	<path class="st10" d="M217.8,225.9c0.1-3.4,0.7-6.9,1.6-10.2c0,1.7-0.1,3.5-0.5,5.1C218.8,222.5,218.4,224.2,217.8,225.9z"/>
	<path class="st10" d="M216.2,227.3c0.3-3.3,0.9-6.5,2-9.7c0,1.7-0.3,3.3-0.7,4.9C217.3,224.2,216.9,225.8,216.2,227.3z"/>
	<path class="st10" d="M214.9,226.9c-0.1-1.2,0.1-2.4,0.5-3.5c0.2-1.2,0.5-2.3,1.1-3.3C216.3,222.4,215.8,224.7,214.9,226.9
		L214.9,226.9z"/>
	<path class="st10" d="M213.8,228.3c-0.1-1.3,0-2.7,0.4-4c0.2-1.3,0.6-2.6,1.3-3.8c-0.1,1.3-0.3,2.6-0.7,3.9
		C214.7,225.8,214.3,227.1,213.8,228.3z"/>
	<path class="st10" d="M213,226.7c0.1-1.9,0.5-3.8,1.3-5.5C214.3,223.1,213.8,225,213,226.7z"/>
	<path class="st10" d="M211.4,227.9c-0.2-0.9-0.1-1.8,0.2-2.7c0.1-0.9,0.3-1.8,0.8-2.6c0.1,0.9,0.1,1.8-0.2,2.7
		C212.1,226.3,211.8,227.1,211.4,227.9z"/>
	<path class="st10" d="M209.8,228.8c-0.1-1,0.1-2.1,0.4-3c0.1-1,0.5-2,1-2.9c0.1,1-0.1,2.1-0.4,3
		C210.6,226.9,210.3,227.9,209.8,228.8z"/>
	<path class="st10" d="M208.7,228.5c-0.1-0.8-0.1-1.7,0.2-2.5c0.3-1.4,0.7-2.4,0.8-2.4c0.1,0.8,0,1.7-0.2,2.5
		C209.2,227.5,208.9,228.5,208.7,228.5z"/>
	<path class="st10" d="M207.8,228.1c0-1.8,0.5-3.5,1.3-5c0.1,0.9,0,1.8-0.3,2.6C208.6,226.5,208.3,227.4,207.8,228.1z"/>
	<path class="st10" d="M207,227.5c-0.2,0-0.1-1,0.2-2.1c0.3-1.1,0.6-2,0.8-2s0.1,1-0.2,2.1C207.5,226.7,207.1,227.6,207,227.5z"/>
	<path class="st10" d="M205.8,227.4c-0.1-0.8,0-1.7,0.3-2.4c0.3-1.3,0.7-2.4,0.9-2.4c0.1,0.8,0,1.7-0.3,2.5
		C206.4,226.4,206,227.4,205.8,227.4z"/>
	<path class="st10" d="M204.7,226.4c-0.2,0-0.1-0.8,0.1-1.7c0.2-0.9,0.5-1.6,0.7-1.6s0.1,0.8-0.1,1.7
		C205.2,225.8,204.9,226.5,204.7,226.4z"/>
	<path class="st10" d="M204,225.4c-0.2-0.1,0-0.7,0.1-1.5c0.1-0.8,0.4-1.4,0.5-1.4c0.2,0,0.3,0.7,0.1,1.5
		C204.6,224.9,204.2,225.5,204,225.4z"/>
	<path class="st10" d="M202.7,222.9c0.1,0,0.5,0.5,0.8,1.2h-0.6l0.1-0.4c0.2-1,0.5-1.7,0.7-1.7s0.1,0.9-0.1,1.8
		c0,0.1-0.1,0.3-0.1,0.4l-0.2,1l-0.3-1C202.7,223.5,202.6,222.9,202.7,222.9z"/>
	<path class="st10" d="M201.4,222.4c-0.2-0.1-0.2-0.4,0-0.8c0.2-0.4,0.4-0.6,0.6-0.5s0.2,0.4,0,0.8S201.6,222.5,201.4,222.4z"/>
	<path class="st10" d="M202.9,212.4c0,0.2-0.2,0.4-0.6,0.5s-0.7,0-0.7-0.1s0.2-0.4,0.6-0.5S202.9,212.2,202.9,212.4z"/>
	<path class="st10" d="M202.9,213.9c0.1,0.2-0.1,0.4-0.4,0.5s-0.6,0-0.6-0.1s0.1-0.4,0.4-0.5C202.5,213.7,202.8,213.8,202.9,213.9z"
		/>
	<path class="st10" d="M202.8,219.4c-0.1,0.1-0.8-0.5-1.3-1.4c-0.5-1-0.5-1.8-0.4-1.9c0.2,0,0.5,0.7,0.9,1.6S203,219.3,202.8,219.4z
		"/>
	<path class="st10" d="M204.2,219.6c-0.1,0.1-0.7-0.6-1.2-1.4c-0.5-0.9-0.8-1.6-0.6-1.7s0.7,0.6,1.2,1.4
		C204.2,218.7,204.4,219.5,204.2,219.6z"/>
	<path class="st10" d="M206,219.6c-0.1,0.1-0.8-0.3-1.2-1.2c-0.4-0.8-0.5-1.6-0.4-1.6s0.5,0.6,0.9,1.3
		C205.7,218.9,206.1,219.5,206,219.6z"/>
	<path class="st10" d="M207.7,219.8c-0.1,0.1-0.8-0.3-1.3-1.1c-0.5-0.8-0.6-1.6-0.4-1.6s0.5,0.6,1,1.3
		C207.4,219.1,207.9,219.7,207.7,219.8z"/>
	<path class="st1" d="M198.1,243.4c-0.1,0.1-0.9-0.9-1.5-2.4c-0.4-0.8-0.5-1.8-0.4-2.7c0.4,0.8,0.7,1.6,0.9,2.5
		C197.7,241.6,198,242.5,198.1,243.4z"/>
	<path class="st1" d="M200.6,244.4c-0.2,0.1-0.7-0.9-1.2-2.2c-0.4-0.8-0.6-1.6-0.7-2.5c0.2-0.1,0.7,0.9,1.2,2.2
		C200.4,242.7,200.6,243.5,200.6,244.4z"/>
	<path class="st1" d="M202.6,244.8c-0.1,0.1-1-0.5-1.6-1.6c-0.7-1.1-0.8-2.2-0.6-2.2s0.5,0.9,1.2,1.9
		C202.2,243.9,202.7,244.7,202.6,244.8z"/>
	<path class="st1" d="M204.2,245c-0.1,0.1-0.9-0.4-1.5-1.4c-0.6-1-0.7-1.9-0.6-1.9s0.5,0.7,1.1,1.6
		C203.8,244.2,204.3,244.9,204.2,245z"/>
	<path class="st1" d="M206,245.1c-0.1,0.1-0.8-0.1-1.5-0.9c-0.7-0.7-0.9-1.5-0.8-1.6s0.6,0.5,1.2,1.2
		C205.5,244.5,206.1,244.9,206,245.1z"/>
	<path class="st1" d="M224.3,241c-1.6-0.1-3.3-0.2-4.9-0.1c-1.6,0.3-3.2,0.7-4.8,1.2c1.3-1.1,3-1.7,4.7-1.8
		C220.9,240,222.7,240.2,224.3,241z"/>
	<path class="st1" d="M236.5,245.5c-1.9,0.5-4,0.2-5.7-0.8c1,0,1.9,0.1,2.9,0.4C234.6,245.1,235.6,245.2,236.5,245.5z"/>
	<path class="st1" d="M240.8,233.1c-1.5,1.3-3.3,2.3-5.2,2.9c-1.8,0.9-3.7,1.4-5.7,1.6c0-0.2,2.5-0.9,5.5-2.2
		S240.8,232.9,240.8,233.1z"/>
	<path class="st3" d="M224.7,256.1c0,0.1-0.4,0.4-0.8,1.2c-0.2,0.4-0.4,0.8-0.7,1.3c-0.3,0.6-0.9,1.1-1.5,1.3
		c-0.7,0.2-1.4,0.1-2-0.2c-0.5-0.2-0.9-0.6-1.3-1c-0.6-0.7-0.8-1.2-0.8-1.2s0.5,0.3,1.1,0.9c0.4,0.3,0.7,0.6,1.2,0.8
		c0.5,0.2,1.1,0.3,1.6,0.1c1.1-0.4,1.5-1.6,2-2.4C224.1,256.3,224.6,256,224.7,256.1z"/>
	<path class="st1" d="M219,259.1c-0.2,0-0.4-0.3-0.5-0.8s0-0.8,0.1-0.9c0.1,0,0.4,0.3,0.5,0.8S219.2,259.1,219,259.1z"/>
	<path class="st1" d="M219.6,258.3c-0.2,0-0.3-0.2-0.4-0.5c0-0.3,0.1-0.6,0.2-0.6c0.2,0,0.3,0.2,0.4,0.5
		C219.9,258,219.7,258.2,219.6,258.3z"/>
	<path class="st1" d="M220.4,259c-0.2,0-0.4-0.4-0.4-0.9c-0.1-0.5,0-1,0.2-1s0.4,0.4,0.5,1C220.7,258.5,220.6,259,220.4,259z"/>
	<path class="st1" d="M221.5,259.6c-0.2,0-0.4-0.5-0.5-1.1s-0.1-1.2,0.1-1.2c0.2-0.1,0.4,0.5,0.5,1.1S221.7,259.5,221.5,259.6z"/>
	<path class="st1" d="M222.7,259.5c-0.2,0-0.4-0.5-0.5-1.2s-0.1-1.2,0.1-1.2s0.4,0.5,0.5,1.1C222.9,258.9,222.9,259.4,222.7,259.5z"
		/>
	<path class="st3" d="M226.1,304.4c-3.4-2-6.7-4.1-9.9-6.5c-3.3-2.2-6.5-4.5-9.6-7c3.4,2,6.7,4.1,9.9,6.5
		C219.9,299.6,223.1,301.9,226.1,304.4z"/>
	<path class="st3" d="M226.2,316.7c-0.4-1.7-0.6-3.5-0.5-5.2c-0.1-1.8,0.2-3.5,0.7-5.2c0.1,1.7,0.1,3.5-0.1,5.2
		C226.5,313.2,226.4,314.9,226.2,316.7z"/>
	<path class="st3" d="M223.3,312.2c-0.1,0.1-1.2-1.6-3.5-3.8c-1.3-1.3-2.8-2.5-4.3-3.5c-1.9-1.3-3.9-2.4-6-3.3
		c-2.1-0.9-4.3-1.5-6.6-2c-1.8-0.4-3.7-0.6-5.6-0.6c-3.2-0.1-5.2,0.3-5.2,0.2c0.4-0.2,0.9-0.3,1.4-0.3c0.5-0.1,1.1-0.2,1.6-0.2
		c0.7-0.1,1.5-0.1,2.2-0.1c1.9,0,3.8,0.2,5.7,0.5c4.6,0.9,9,2.7,12.8,5.4c1.6,1.1,3,2.4,4.3,3.7c0.6,0.6,1,1.2,1.5,1.6
		c0.4,0.4,0.7,0.9,1,1.3C222.8,311.4,223.1,311.8,223.3,312.2z"/>
	<path class="st3" d="M240,285c0,0,0,0.3-0.1,1c-0.1,0.9-0.3,1.7-0.5,2.6c-0.7,2.8-1.9,5.5-3.4,8c-1.5,2.5-3.4,4.7-5.5,6.6
		c-0.6,0.6-1.3,1.1-2.1,1.6c-0.5,0.4-0.8,0.5-0.8,0.5c0,0,1-0.9,2.6-2.4c2-2,3.8-4.2,5.3-6.7c1.5-2.4,2.7-5,3.5-7.8
		C239.6,286.3,239.9,284.9,240,285z"/>
	<path class="st1" d="M234.6,282.5c-0.7,0.7-1.5,1.3-2.4,1.7c-4.1,2.3-8.7,3.3-13.4,2.9c-1,0-1.9-0.2-2.8-0.6
		c3.2,0.3,6.4,0.1,9.6-0.4C228.8,285.3,231.8,284.1,234.6,282.5z"/>
	<path class="st1" d="M225.5,304.8c-0.2,0-0.2-1,0-2.1s0.5-2,0.6-2s0.1,1,0,2.1C226,303.9,225.7,304.8,225.5,304.8z"/>
	<path class="st1" d="M224.3,302.8c-0.2,0-0.2-1-0.1-2.3s0.3-2.2,0.5-2.2c0.2,0,0.2,1,0.1,2.3S224.4,302.8,224.3,302.8z"/>
	<path class="st1" d="M223,301.6c-0.3-1.8-0.3-3.7,0.2-5.6c0.3,0.9,0.4,1.9,0.2,2.8C223.5,299.8,223.4,300.8,223,301.6z"/>
	<path class="st1" d="M221.9,300c-0.2,0-0.2-1-0.1-2.1c0.1-1.1,0.3-2.1,0.5-2c0.2,0,0.2,1,0.2,2.1S222,300,221.9,300z"/>
	<path class="st1" d="M220.8,299.4c-0.2,0-0.3-1.1-0.3-2.4c0-1.3,0.1-2.4,0.3-2.4C221.2,296.2,221.2,297.8,220.8,299.4L220.8,299.4z
		"/>
	<path class="st1" d="M219,298.7c-0.3-1-0.4-2-0.3-3c-0.1-1,0-2,0.3-3c0.3,1,0.4,2,0.3,3C219.4,296.7,219.3,297.7,219,298.7z"/>
	<path class="st1" d="M216.6,296.4c-0.2,0-0.2-1-0.1-2.3c0.1-1.2,0.3-2.2,0.5-2.2c0.2,0,0.2,1,0.1,2.3S216.7,296.4,216.6,296.4z"/>
	<path class="st1" d="M245.2,281.5c-0.1,0.1-0.5-0.2-0.6-0.7c-0.1-0.6,0.2-1,0.3-0.9s0.2,0.4,0.3,0.8S245.4,281.4,245.2,281.5z"/>
	<path class="st1" d="M246.7,280.1c-0.1,0.1-0.4,0-0.6-0.3c-0.2-0.3-0.2-0.5-0.1-0.6c0.1-0.1,0.4,0,0.6,0.3S246.8,280,246.7,280.1z"
		/>
	<path class="st1" d="M248.2,279.8c-0.1,0.1-0.4,0-0.5-0.2c-0.1-0.2-0.1-0.4,0-0.5c0.1-0.1,0.4,0,0.5,0.2
		C248.3,279.5,248.3,279.7,248.2,279.8z"/>
	<path class="st1" d="M214.1,282.7c-2.6-1.6-4.8-3.8-6.3-6.5c1.1,1,2.2,2.1,3.2,3.2C212.1,280.4,213.2,281.5,214.1,282.7z"/>
	<path class="st1" d="M219.5,285c-0.7-0.3-1.3-0.8-1.9-1.3c-1.4-1.2-2.7-2.5-3.8-3.9c-1.2-1.4-2.2-2.9-3.1-4.6
		c-0.4-0.6-0.7-1.3-0.9-2.1c0.2-0.1,1.8,3,4.4,6.3C216.9,282.6,219.6,284.8,219.5,285z"/>
	<path class="st1" d="M222.9,283.5c-3.6-2.9-6.8-6.3-9.3-10.2c0.1-0.1,2.1,2.3,4.7,5.1C219.9,280,221.4,281.7,222.9,283.5z"/>
	<path class="st1" d="M227.6,281.5c-0.7-0.3-1.4-0.7-2-1.3c-1.5-1.1-2.9-2.4-4.2-3.8c-1.3-1.4-2.5-2.8-3.5-4.4
		c-0.5-0.6-0.9-1.3-1.2-2c0.2-0.1,2.1,2.9,5.1,6C224.9,279.2,227.7,281.3,227.6,281.5z"/>
	<path class="st1" d="M232.9,279.9c-2-1.1-3.8-2.6-5.3-4.3c-1.7-1.6-3-3.4-4.1-5.5c0.2-0.1,1.9,2.4,4.5,5.1
		C230.6,277.9,233,279.7,232.9,279.9z"/>
	<path class="st1" d="M238.5,279c-2.1-1.2-3.9-2.7-5.5-4.4c-1.7-1.6-3.1-3.5-4.3-5.6c0.1-0.1,2,2.4,4.7,5.2S238.6,278.8,238.5,279z"
		/>
	<path class="st1" d="M240.9,275.5c-2.4-1.9-4.6-4.1-6.4-6.5c1.3,0.9,2.4,1.9,3.4,3C239.1,273.1,240.1,274.2,240.9,275.5z"/>
	<path class="st1" d="M249.2,235.9c-0.8,1.5-1.7,2.8-2.8,4c-0.9,1.4-2,2.6-3.3,3.7c0.8-1.5,1.7-2.8,2.8-4.1
		C246.9,238.2,248,237,249.2,235.9z"/>
	<path class="st1" d="M246.5,244.1c0.3-1,0.8-1.9,1.5-2.6c1-1.4,1.8-2.4,2-2.3c-0.3,1-0.8,1.9-1.5,2.6
		C247.5,243.2,246.6,244.2,246.5,244.1z"/>
	<path class="st1" d="M247.9,246.6c0.2-1.1,0.6-2.2,1.2-3.1c0.4-1.1,0.9-2,1.7-2.9c-0.2,1.1-0.6,2.2-1.2,3.2
		C249.2,244.8,248.7,245.8,247.9,246.6z"/>
	<path class="st1" d="M249.2,248.3c0.1-0.9,0.4-1.9,0.8-2.7c0.6-1.4,1.2-2.5,1.4-2.4c-0.1,0.9-0.3,1.9-0.8,2.7
		C249.9,247.3,249.3,248.4,249.2,248.3z"/>
	<path class="st1" d="M251,250.4c-0.2,0,0.1-1.2,0.5-2.5c0.5-1.3,1-2.4,1.2-2.3c0.2,0.1-0.1,1.2-0.5,2.5
		C251.7,249.5,251.2,250.5,251,250.4z"/>
	<path class="st1" d="M255,279.5c-0.1,0.1-0.7-0.4-1.3-1s-1-1.3-0.8-1.4c0.1-0.1,0.7,0.4,1.3,1C254.8,278.7,255.2,279.3,255,279.5z"
		/>
	<path class="st1" d="M256.8,278.2c-0.1,0.1-0.5-0.1-0.8-0.5c-0.3-0.4-0.4-0.8-0.3-0.9c0.1-0.1,0.5,0.1,0.8,0.5
		C256.8,277.7,256.9,278.1,256.8,278.2z"/>
	<path class="st10" d="M228.7,224.7c-0.2,0-0.5-0.4-0.7-1c-0.2-0.6-0.3-1.2-0.1-1.2s0.5,0.4,0.7,1
		C228.8,224.2,228.9,224.7,228.7,224.7z"/>
	<path class="st10" d="M229.7,226c-0.2,0-0.5-0.7-0.7-1.7c-0.2-1-0.3-1.8-0.1-1.8s0.5,0.7,0.7,1.7S229.8,226,229.7,226z"/>
	<path class="st10" d="M230.9,227.9c-0.2,0-0.5-0.9-0.8-2.1s-0.3-2.2-0.1-2.2s0.5,0.9,0.7,2.1S231.1,227.9,230.9,227.9z"/>
	<path class="st10" d="M231.7,230c-0.4-1-0.7-2-0.7-3.1c-0.2-1-0.3-2.1-0.1-3.2C231.5,225.7,231.8,227.8,231.7,230z"/>
	<path class="st10" d="M233.3,231.5c-0.5-1.1-0.8-2.3-0.9-3.5c-0.3-1.2-0.4-2.4-0.4-3.7c0.5,1.1,0.8,2.3,1,3.5
		C233.3,229.1,233.4,230.3,233.3,231.5z"/>
	<path class="st10" d="M234.8,233.1c-0.6-1.4-1-2.9-1.1-4.4c-0.3-1.5-0.4-3-0.2-4.5c0.4,1.4,0.7,2.9,0.8,4.4
		C234.6,230.1,234.8,231.6,234.8,233.1z"/>
	<path class="st10" d="M236.5,235c-0.6-1.9-1-3.8-1.2-5.8c-0.4-1.9-0.6-3.9-0.6-5.9c0.6,1.9,1,3.8,1.2,5.8
		C236.4,231,236.5,233,236.5,235z"/>
	<path class="st10" d="M237.8,234.2c-0.5-1.7-0.8-3.4-0.8-5.1c-0.3-1.7-0.4-3.4-0.2-5.2c0.5,1.7,0.8,3.4,0.8,5.1
		C237.8,230.8,237.9,232.5,237.8,234.2z"/>
	<path class="st10" d="M239,233.5c-0.4-1.6-0.6-3.2-0.6-4.9c-0.2-1.6-0.2-3.3,0-4.9c0.4,1.6,0.6,3.2,0.7,4.9
		C239.2,230.3,239.2,231.9,239,233.5z"/>
	<path class="st10" d="M240.2,233.2c-0.4-1.6-0.6-3.3-0.6-4.9c-0.2-1.6-0.2-3.3,0-5c0.4,1.6,0.6,3.3,0.6,4.9
		C240.4,229.9,240.4,231.5,240.2,233.2z"/>
	<path class="st10" d="M241.6,229.8c-0.3-1.1-0.5-2.2-0.5-3.3c-0.2-1.1-0.1-2.3,0.2-3.4C241.8,225.3,241.9,227.5,241.6,229.8
		L241.6,229.8z"/>
	<path class="st10" d="M243.2,228.9c-0.7-1.9-0.9-4-0.8-6.1C243.1,224.8,243.3,226.9,243.2,228.9z"/>
	<path class="st10" d="M244.4,227.2c-0.6-1.9-0.8-3.9-0.6-5.9c0.4,0.9,0.6,1.9,0.6,2.9C244.6,225.2,244.6,226.2,244.4,227.2z"/>
	<path class="st10" d="M244.9,224.4c-0.2,0-0.3-0.9-0.3-2.1s0.1-2.1,0.3-2.1s0.3,0.9,0.3,2.1C245.2,223.4,245,224.4,244.9,224.4z"/>
	<path class="st10" d="M243,218c-0.2,0-0.2-0.4-0.1-0.9c0.1-0.5,0.3-0.8,0.5-0.8s0.2,0.4,0.1,0.9S243.2,218.1,243,218z"/>
	<path class="st10" d="M241.7,219c-0.2,0-0.1-0.6,0-1.4s0.5-1.2,0.7-1.2c0.2,0.1,0.1,0.7-0.1,1.4C242.1,218.5,241.9,219.1,241.7,219
		z"/>
	<path class="st10" d="M240.7,219.7c-0.2,0-0.2-0.6,0-1.2c0.2-0.6,0.4-1,0.6-1s0.2,0.6,0,1.2C241.1,219.4,240.8,219.8,240.7,219.7z"
		/>
	<path class="st10" d="M238.9,220c-0.2,0-0.2-0.4-0.1-0.8s0.3-0.7,0.5-0.7c0.2,0,0.2,0.4,0.1,0.8C239.3,219.7,239,220,238.9,220z"/>
	<path class="st10" d="M237.3,219.6c-0.1-0.2,0.1-0.4,0.3-0.6c0.2-0.2,0.4-0.4,0.5-0.4s0.2,0.4,0,0.8S237.4,219.8,237.3,219.6z"/>
	<path class="st10" d="M235.4,219.6c-0.1-0.1,0-0.4,0.3-0.7s0.6-0.4,0.7-0.3s0,0.4-0.3,0.7C235.9,219.6,235.5,219.7,235.4,219.6z"/>
	<path class="st10" d="M241.3,214.4c-0.2,0.1-0.4,0-0.4-0.2c-0.1-0.2,0-0.4,0.2-0.4c0,0,0,0,0,0c0.2,0,0.3,0.1,0.4,0.2
		C241.6,214.1,241.5,214.3,241.3,214.4C241.3,214.4,241.3,214.4,241.3,214.4z"/>
	<path class="st10" d="M241,215.4c-0.2,0-0.4-0.2-0.4-0.5c-0.1-0.3,0-0.5,0.2-0.6s0.4,0.2,0.4,0.4S241.2,215.4,241,215.4z"/>
	<path class="st10" d="M242.7,240.6c-0.1,0.1-1.2-0.5-2.1-1.5c-1-1.1-1.5-2.2-1.4-2.2c0.1-0.1,0.9,0.8,1.8,1.8
		C242,239.6,242.8,240.4,242.7,240.6z"/>
	<path class="st10" d="M244.4,239.9c-0.8-0.9-1.4-1.9-1.8-2.9c-0.6-1-1-2.1-1.3-3.2c0.8,0.9,1.4,1.8,1.8,2.9
		C243.7,237.7,244.1,238.8,244.4,239.9z"/>
	<path class="st10" d="M246,239c-0.8-1.1-1.5-2.3-1.9-3.5c-0.6-1.2-1.1-2.5-1.4-3.8c0.8,1.1,1.5,2.3,1.9,3.5
		C245.3,236.4,245.7,237.7,246,239z"/>
	<path class="st10" d="M246.6,237.8c-0.7-1.2-1.2-2.5-1.6-3.8c-0.5-1.3-0.8-2.6-1-4C245.3,232.5,246.2,235.1,246.6,237.8
		L246.6,237.8z"/>
	<path class="st10" d="M247.9,237c-0.5-1.5-0.8-3-0.9-4.5c-0.3-1.5-0.4-3.1-0.3-4.6C247.5,230.8,247.9,233.9,247.9,237L247.9,237z"
		/>
	<path class="st10" d="M239.1,243.4c-0.7-0.8-1.3-1.8-1.6-2.9c-0.5-1-0.9-2-1-3.1C237.7,239.2,238.6,241.2,239.1,243.4L239.1,243.4z
		"/>
	<path class="st10" d="M236.8,244.4c-1.2-2-2.1-4.2-2.6-6.5C235.4,239.9,236.3,242.1,236.8,244.4z"/>
	<path class="st10" d="M233.4,243.2c-0.2,0.1-0.7-0.8-1.2-2c-0.5-1.2-0.8-2.1-0.7-2.2s0.7,0.8,1.2,2
		C233.1,242.1,233.6,243.1,233.4,243.2z"/>
	<path class="st10" d="M223.9,209c-0.1,0.1-1.2-0.7-2.1-2c-0.6-0.7-1-1.6-1.2-2.6c0.2-0.1,0.8,1,1.7,2.2
		C223.2,207.9,224,208.9,223.9,209z"/>
	<path class="st10" d="M224.9,208.2c-2-1.9-3.3-4.4-3.5-7.1c0.2,0,0.7,1.7,1.7,3.6C224,206.7,225.1,208.1,224.9,208.2z"/>
	<path class="st10" d="M226.1,206.4c-0.8-0.8-1.4-1.7-1.9-2.8c-0.6-0.9-1.1-2-1.3-3.1c0.8,0.8,1.4,1.7,1.9,2.8
		C225.4,204.3,225.8,205.3,226.1,206.4z"/>
	<path class="st10" d="M226.9,204.8c-0.7-0.7-1.3-1.6-1.8-2.6c-0.6-0.9-1-1.9-1.2-2.9C225.3,200.9,226.3,202.8,226.9,204.8
		L226.9,204.8z"/>
	<path class="st10" d="M229,183c-1.3-1.4-2.4-3-3.2-4.7c-1-1.6-1.8-3.4-2.3-5.2c1.1,1.6,2,3.2,2.8,4.9
		C227.4,179.6,228.3,181.3,229,183z"/>
	<path class="st10" d="M230.5,182.1c-1.1-1-1.9-2.2-2.4-3.5c-0.7-1.2-1.2-2.6-1.4-4c0.7,1.2,1.4,2.5,1.9,3.8
		C229.4,179.5,230,180.8,230.5,182.1z"/>
	<path class="st10" d="M231.1,181.2c-0.7-0.8-1.3-1.8-1.8-2.9c-0.6-1-1-2-1.2-3.2C229.5,177,230.5,179,231.1,181.2L231.1,181.2z"/>
	<path class="st10" d="M232.6,180.9c-0.8-1.1-1.4-2.3-1.8-3.5c-0.6-1.2-1-2.5-1.2-3.8C231,175.9,232,178.4,232.6,180.9L232.6,180.9z
		"/>
	<path class="st10" d="M233.1,178.8c-0.2,0.1-0.7-0.9-1.2-2c-0.5-1.2-0.7-2.2-0.6-2.3c0.2-0.1,0.7,0.9,1.2,2
		C233,177.7,233.2,178.8,233.1,178.8z"/>
	<path class="st10" d="M224.7,180.5c-0.2,0.1-0.6-0.6-0.9-1.5c-0.3-0.9-0.5-1.6-0.3-1.7s0.6,0.6,0.9,1.5
		C224.7,179.6,224.8,180.4,224.7,180.5z"/>
	<path class="st1" d="M197.8,195.4c-0.1,0-0.2-0.4-0.6-0.9c-0.5-0.7-1.2-1.2-2-1.6c-0.8-0.3-1.7-0.3-2.5-0.2c-0.7,0.1-1,0.4-1.1,0.3
		c0-0.1,0.3-0.4,1-0.7c0.9-0.3,1.9-0.3,2.9,0c0.9,0.4,1.7,1,2.1,1.9C197.9,194.9,197.9,195.4,197.8,195.4z"/>
	<path class="st10" d="M196.2,197c-0.2,0-0.2-0.8-0.2-1.8c0.1-1,0.3-1.8,0.4-1.7c0.2,0,0.2,0.8,0.2,1.8
		C196.5,196.2,196.3,197,196.2,197z"/>
	<path class="st10" d="M194.5,197.1c-0.2,0-0.1-1,0.1-2.1c0.2-1.1,0.6-2,0.7-2s0.1,1-0.1,2.1C195,196.3,194.6,197.1,194.5,197.1z"/>
	<path class="st10" d="M193.6,196.5c-0.2,0-0.2-0.9,0-1.9c0.2-1,0.4-1.8,0.5-1.8s0.2,0.9,0.1,1.9S193.8,196.5,193.6,196.5z"/>
	<path class="st10" d="M192.3,195.7c-0.2,0-0.3-0.7-0.1-1.7c0.2-0.9,0.6-1.5,0.8-1.5c0.1,0.1,0,0.8-0.2,1.6
		C192.6,195,192.5,195.7,192.3,195.7z"/>
	<path class="st1" d="M191.3,173.3c0.5,0.6,0.8,1.3,1.1,2c0.3,0.8,0.5,1.5,0.7,2.4c0.1,1,0,2.1-0.5,3.1c-0.5,0.9-1,1.8-1.6,2.6
		c-0.5,0.6-0.9,1.3-1.2,2c-0.2,0.7-0.4,1.4-0.3,2.1c-0.1,0.1-0.5-0.8-0.1-2.3c0.3-0.8,0.7-1.6,1.2-2.2c0.6-0.8,1.1-1.6,1.6-2.5
		c0.7-1.6,0.7-3.4,0-5.1C191.8,174.8,191.5,174,191.3,173.3z"/>
	<path class="st10" d="M191,180.1c-0.3-1.2-0.5-2.3-0.5-3.5c-0.1-1-0.3-1.8-0.4-2.5l0.4-0.1c0,0.7,0,1.1,0,1.1s-0.2-0.4-0.4-1
		l0.4-0.1c0.2,0.8,0.4,1.6,0.5,2.5C191.3,177.7,191.3,178.9,191,180.1z"/>
	<path class="st10" d="M190.8,183.1c-0.5-1.5-0.8-3-0.9-4.6c-0.3-1.5-0.4-3.1-0.3-4.7c0.5,1.5,0.8,3,0.9,4.6
		C190.7,179.9,190.9,181.5,190.8,183.1z"/>
	<path class="st10" d="M189.5,183.6c-0.5-1.5-0.7-3.1-0.8-4.7c-0.3-1.6-0.3-3.2-0.2-4.8c0.5,1.5,0.7,3.1,0.8,4.7
		C189.6,180.4,189.6,182,189.5,183.6z"/>
	<path class="st10" d="M189,182.7c-1-2.2-1.5-4.6-1.7-7.1c0.6,1.1,1,2.3,1.2,3.5C188.8,180.2,189,181.5,189,182.7z"/>
	<path class="st10" d="M187.6,181.7c-0.7-0.7-1.1-1.6-1.3-2.6c-0.4-0.9-0.5-1.9-0.4-2.9c0.5,0.8,0.8,1.7,1,2.7
		C187.2,179.8,187.5,180.7,187.6,181.7z"/>
	<path class="st10" d="M167.3,220.8c1.4-2.9,3.1-5.7,4.9-8.4c1.6-2.8,3.4-5.5,5.4-8c-1.4,2.9-3.1,5.7-4.9,8.4
		C171.1,215.6,169.3,218.2,167.3,220.8z"/>
	<path class="st10" d="M169,221.6c1.2-2.6,2.5-5.1,4-7.6c1.3-2.5,2.9-5,4.5-7.3c-1.2,2.6-2.5,5.1-4,7.6
		C172.2,216.9,170.6,219.3,169,221.6z"/>
	<path class="st10" d="M168.7,223.8c1.3-2.7,2.8-5.3,4.4-7.8c1.5-2.6,3.1-5.1,5-7.5c-1.3,2.7-2.8,5.3-4.4,7.8
		C172.2,218.9,170.5,221.4,168.7,223.8z"/>
	<path class="st10" d="M171.9,221.2c-0.3,0.9-0.8,1.7-1.3,2.5l-0.4-0.2c0.9-1.5,2.2-3.7,3.6-6s2.8-4.4,3.7-5.9
		c0.5-0.8,1-1.6,1.7-2.4c-0.4,0.9-0.8,1.8-1.3,2.6c-0.9,1.5-2.2,3.6-3.6,5.9c-1.4,2.3-2.8,4.4-3.8,5.9l-0.4-0.2
		C170.7,222.7,171.3,221.9,171.9,221.2z"/>
	<path class="st10" d="M171.7,226.9c1.1-2.6,2.3-5.2,3.8-7.7c1.3-2.6,2.7-5,4.3-7.4c-1.1,2.6-2.3,5.2-3.8,7.7
		C174.7,222.1,173.3,224.5,171.7,226.9z"/>
	<path class="st1" d="M158.9,196.7c1.8-3.6,4-7.1,6.6-10.3c-0.8,1.9-1.8,3.6-3,5.3C161.4,193.5,160.2,195.2,158.9,196.7z"/>
	<path class="st1" d="M160.2,196.3c-0.4,1.2-0.9,2.3-1.6,3.3l-0.4-0.2c0.8-1.5,1.8-3.4,3-5.4c1.3-2.4,2.6-4.5,3.5-6
		c0.5-0.8,1-1.6,1.6-2.4c-0.3,0.9-0.7,1.8-1.2,2.6c-0.8,1.6-2,3.7-3.3,6.1c-1.2,2-2.2,3.9-3.1,5.3l-0.4-0.2
		C158.8,198.4,159.4,197.3,160.2,196.3z"/>
	<path class="st1" d="M162.2,195.9c-0.5,1.2-1.1,2.2-1.8,3.3L160,199c0.8-1.8,1.8-3.6,2.8-5.3c1.2-2,2.5-3.8,4-5.6
		c0.6-0.8,1.2-1.5,2-2.1c-0.5,0.8-1,1.6-1.6,2.4c-1,1.4-2.4,3.4-3.8,5.7c-1.2,1.9-2.2,3.7-2.9,5.1l-0.4-0.2
		C160.6,197.9,161.4,196.9,162.2,195.9z"/>
	<path class="st1" d="M163.8,196.3c-0.6,1.6-1.4,3.1-2.2,4.6l-0.5-0.3c0.9-1.5,1.9-3.2,3-5c1.6-2.6,3-4.9,4.1-6.5
		c0.5-0.9,1.2-1.8,1.8-2.6c-0.4,1-0.9,2-1.5,2.8c-1,1.7-2.4,4.1-3.9,6.7l-3,4.9l-0.4-0.3C161.9,199.1,162.8,197.7,163.8,196.3z"/>
	<path class="st1" d="M164.7,197.2c-0.5,1.3-1.1,2.5-1.8,3.6l-0.4-0.3c1-1.4,2.2-3.2,3.6-5.1c1.7-2.4,3.2-4.4,4.4-5.9
		c0.6-0.8,1.2-1.6,2-2.4c-0.5,0.9-1,1.8-1.6,2.6c-1.1,1.5-2.5,3.6-4.2,5.9c-1.4,1.9-2.7,3.7-3.7,5l-0.4-0.3
		C163.1,199.2,163.8,198.2,164.7,197.2z"/>
	<path class="st1" d="M166.7,197.6c-0.2,0.5-0.4,1-0.7,1.5c-0.5,0.9-1.3,2.2-2.2,3.8l-0.5-0.3c0.9-1.4,1.9-3,3-4.6
		c1.7-2.7,3.4-5.1,4.5-6.8c0.6-1,1.3-1.9,2-2.7c-0.5,1-1,2-1.7,3c-1.1,1.8-2.6,4.2-4.4,6.9l-3,4.5l-0.4-0.3c1-1.5,1.8-2.8,2.4-3.7
		C166,198.4,166.3,198,166.7,197.6z"/>
	<path class="st1" d="M170.4,195.5c-0.4,0.7-0.8,1.4-1.3,2.1c-0.9,1.3-2.2,3-3.7,5l-0.5-0.3l1.8-2.6c1.8-2.7,3.5-5.1,4.7-6.9
		c0.6-1,1.3-1.9,2.1-2.7c-0.5,1-1.1,2-1.8,3c-1.2,1.8-2.8,4.3-4.6,7c-0.6,0.9-1.2,1.8-1.8,2.6l-0.5-0.3c1.5-2,2.9-3.7,3.8-4.9
		C169.2,196.7,169.8,196.1,170.4,195.5z"/>
	<path class="st1" d="M168.4,202.1c-0.1-0.1,1.3-2,2.6-4.6c1.3-2.6,2.1-4.9,2.4-4.8C172.7,196.2,171,199.5,168.4,202.1L168.4,202.1z
		"/>
	<rect x="134.9" y="150.2" class="st2" width="161.7" height="171.2"/>
	<circle class="st11" cx="233.8" cy="252.5" r="12.9"/>
	<path class="st2" d="M457.3,168.8H266v-40.9h191.3V168.8z"/>
	<circle class="st11" cx="291.3" cy="148.4" r="10.4"/>
	<path class="st12" d="M314.8,141.4c-1,0-1.7,0.8-1.7,1.7s0.8,1.7,1.7,1.7h126.4c1,0,1.7-0.8,1.7-1.7c0-1-0.8-1.7-1.7-1.7H314.8z"/>
	<path class="st12" d="M314.8,151.8c-1,0-1.7,0.8-1.7,1.7c0,1,0.8,1.7,1.7,1.7h79.9c1,0,1.7-0.8,1.7-1.7c0-1-0.8-1.7-1.7-1.7
		c0,0,0,0,0,0H314.8z"/>
	<path class="st13" d="M457.3,168.8H266v-40.9h191.3V168.8z M269,165.9h185.4v-35H269V165.9z"/>
	<path class="st2" d="M457.3,219.9H266V179h191.3V219.9z"/>
	<circle class="st14" cx="291.3" cy="199.5" r="10.4"/>
	<path class="st14" d="M314.8,192.5c-1,0-1.7,0.8-1.7,1.7c0,1,0.8,1.7,1.7,1.7h126.4c1,0,1.7-0.8,1.7-1.7c0-1-0.8-1.7-1.7-1.7H314.8
		z"/>
	<path class="st14" d="M314.8,202.9c-1,0-1.7,0.8-1.7,1.7c0,1,0.8,1.7,1.7,1.7h79.9c1,0,1.7-0.8,1.7-1.7c0-1-0.8-1.7-1.7-1.7H314.8z
		"/>
	<path class="st14" d="M457.3,219.9H266V179h191.3V219.9z M269,217h185.4v-35H269V217z"/>
	<path class="st2" d="M457.3,271H266v-40.9h191.3V271z"/>
	<circle class="st14" cx="291.3" cy="250.6" r="10.4"/>
	<path class="st14" d="M314.8,243.6c-1,0-1.7,0.8-1.7,1.7c0,1,0.8,1.7,1.7,1.7h126.4c1,0,1.7-0.8,1.7-1.7c0-1-0.8-1.7-1.7-1.7H314.8
		z"/>
	<path class="st14" d="M314.8,254c-1,0-1.7,0.8-1.7,1.7c0,1,0.8,1.7,1.7,1.7h79.9c1,0,1.7-0.8,1.7-1.7c0-1-0.8-1.7-1.7-1.7H314.8z"
		/>
	<path class="st14" d="M457.3,271H266v-40.9h191.3V271z M269,268.1h185.4v-35H269V268.1z"/>
	<path class="st15" d="M162.6,246.6c-1.6-2.1-1.3-5.2,0.9-6.8c0.2-0.2,0.5-0.3,0.7-0.5l-1-11.1l6.6-2.3l1.2,15.6
		c1.1,2.5,0,5.4-2.5,6.4C166.4,249,164,248.4,162.6,246.6z"/>
	<path class="st13" d="M169.6,183.2c0,0,4.5-9.5,8.5-6.1c4,3.3-5.5,31.3-5.5,31.3l-1.4,27.1l-7.6-0.8l-2.2-26.4L169.6,183.2z"/>
	<polygon class="st15" points="109.2,323.1 114.9,327.7 135.2,308.1 126.8,301.3 	"/>
	<path class="st16" d="M109.3,320.1l11.1,9l0,0c3.9,3.2,4.5,8.9,1.4,12.8l-0.2,0.2l-18.2-14.7L109.3,320.1z"/>
	<polygon class="st15" points="187.7,335.8 195,335.8 198.4,307.8 187.7,307.8 	"/>
	<path class="st16" d="M185.9,333.4l14.3,0h0c5,0,9.1,4.1,9.1,9.1v0.3l-23.4,0L185.9,333.4z"/>
	<path class="st16" d="M200.5,204.4c0,0,13.6,16.6,10.7,33.2c-3,16.6-5.3,29-5.3,29l-4.7,37.3c0,0,1.8,10.2-0.6,12.8
		c0,0,3.6,6.2-3,8.5c-6.5,2.4-10-0.8-10-0.8s-4.8-6.9-1.8-8.7l1.2-73.3l-47.5,62c0,0-0.9,7.5-7,7.6l-7.3,5.4l-8.3-4.7l4.1-5.3
		c0,0-2.4-5.9,3-7.1l30.8-40.3l7.7-20.7c0,0,4.1-16,15.4-22.5v-6.9L200.5,204.4z"/>
	<path class="st13" d="M177,175.6L177,175.6c3.7-4.4,10.1-5.3,14.9-2.1l0.5,0.3l0,0c5.3,6,8.8,13.2,10.2,21.1l2.2,12.1l-27.9,6
		l-6.5-22.5C168.8,184.7,171.6,178.4,177,175.6L177,175.6z"/>
	<path class="st15" d="M222.8,249.2c-2.9-1-4.5-4.1-3.6-7c0.1-0.3,0.2-0.6,0.4-0.9l-8-9.8l4.8-6.3l11.2,14c2.6,1.6,3.4,5.1,1.8,7.7
		C228,249.1,225.3,250,222.8,249.2L222.8,249.2z"/>
	<path class="st13" d="M188.9,184.5c0,0-1.8-11.9,4.1-11.3s14.8,33.2,14.8,33.2l16,26.7l-7.7,4.1l-19-23.7L188.9,184.5z"/>
	<path class="st16" d="M199.8,167.2h-28.2c-1.2,0-2.2-1-2.2-2.2v-12.2c0-9,7.3-16.3,16.3-16.3c9,0,16.3,7.3,16.3,16.3V165
		C201.9,166.2,201,167.2,199.8,167.2z"/>
	<circle class="st15" cx="189" cy="154.9" r="12"/>
	<path class="st16" d="M205.8,154h-15l-0.2-2.5l-0.8,2.5h-2.3l-0.3-4.9l-1.5,4.9h-4.5v-0.2c0-7.1,5-12.9,11.2-12.9h2.1
		c6.2,0,11.2,5.8,11.2,12.9L205.8,154z"/>
	<path class="st16" d="M191.4,169.5c-0.2,0-0.4,0-0.5,0l-17.9-2.8V148c0-4,3.2-7.2,7.2-7.2h12.5l-0.5,0.5c-6.8,6.9-1.7,18.1,2,24.2
		c0.6,0.9,0.5,2-0.2,2.8C193.3,169.1,192.3,169.5,191.4,169.5z"/>
	<circle class="st11" cx="483" cy="148.3" r="12.9"/>
	<path class="st17" d="M484.7,143l5.3,5.3l-5.3,5.4 M474.4,148.4l15.4-0.1"/>
	<path class="st17" d="M235.6,247.5l5.3,5.3l-5.3,5.4 M225.3,253l15.4-0.1"/>
	<text transform="matrix(0.9962 0 0 1 206.2653 327.875)" class="st18 st19 st20">Responsive Accordion in Html CSS</text>
</g>
</svg>
