<svg width="24" height="24" viewBox="0 0 24 24" fill="none" xmlns="http://www.w3.org/2000/svg">
<path d="M21.24 15.68C21.1127 15.8497 20.9232 15.962 20.7131 15.992C20.5031 16.022 20.2897 15.9673 20.12 15.84C19.9503 15.7127 19.838 15.5232 19.808 15.3131C19.778 15.1031 19.8327 14.8897 19.96 14.72L21.4 12.8L0.800001 12.8C0.587828 12.8 0.384344 12.7157 0.234315 12.5657C0.0842861 12.4157 1.24639e-06 12.2122 1.25567e-06 12C1.26494e-06 11.7878 0.0842861 11.5843 0.234315 11.4343C0.384344 11.2843 0.587828 11.2 0.800001 11.2L21.4 11.2L19.96 9.28C19.897 9.19595 19.8511 9.10032 19.825 8.99855C19.799 8.89677 19.7932 8.79086 19.808 8.68686C19.8229 8.58286 19.8581 8.4828 19.9116 8.3924C19.9651 8.30201 20.036 8.22303 20.12 8.16C20.204 8.09697 20.2997 8.0511 20.4015 8.02503C20.5032 7.99896 20.6091 7.99318 20.7131 8.00804C20.8171 8.0229 20.9172 8.05809 21.0076 8.11162C21.098 8.16515 21.177 8.23595 21.24 8.32L23.6352 11.5136L23.6456 11.5272L24 12L23.6456 12.472L23.6352 12.4864L21.24 15.68Z" fill="#0689FF"/>
</svg>
