<svg width="22" height="16" viewBox="0 0 22 16" fill="none" xmlns="http://www.w3.org/2000/svg">
<path fill-rule="evenodd" clip-rule="evenodd" d="M18.6817 6.11577H2.73025C2.44333 6.11577 2.21074 6.34836 2.21074 6.63528V13.1115C2.21074 13.3984 2.44333 13.631 2.73025 13.631H18.6817C18.9686 13.631 19.2012 13.3984 19.2012 13.1115V6.63528C19.2012 6.34836 18.9686 6.11577 18.6817 6.11577ZM2.73025 4.31519C1.4489 4.31519 0.410156 5.35393 0.410156 6.63528V13.1115C0.410156 14.3928 1.4489 15.4316 2.73025 15.4316H18.6817C19.963 15.4316 21.0017 14.3928 21.0017 13.1115V6.63528C21.0017 5.35393 19.963 4.31519 18.6817 4.31519H2.73025Z" fill="#0688FF"/>
<path fill-rule="evenodd" clip-rule="evenodd" d="M15.5062 1.80058H5.90698C5.62006 1.80058 5.38746 2.03318 5.38746 2.3201V4.33321H16.0257V2.3201C16.0257 2.03318 15.7931 1.80058 15.5062 1.80058ZM5.90698 0C4.62562 0 3.58688 1.03874 3.58688 2.3201V6.13379H17.8262V2.3201C17.8262 1.03874 16.7875 0 15.5062 0H5.90698Z" fill="#0688FF"/>
</svg>
