<svg width="11" height="9" viewBox="0 0 11 9" fill="none" xmlns="http://www.w3.org/2000/svg">
<path d="M10.877 1.00421C10.4794 1.18942 9.97589 1.36326 9.52469 1.42105C9.98356 1.13495 10.7115 0.539053 10.877 0C10.4483 0.264789 9.67299 0.547579 9.16724 0.649895C8.76336 0.199895 8.18729 0 7.54902 0C6.32296 0 5.46787 1.09184 5.46787 2.36842V3.31579C3.66484 3.31579 1.90688 1.87247 0.812894 0.473684C0.615083 0.82624 0.511231 1.22825 0.512239 1.63753C0.512239 2.49916 1.26545 3.37358 1.86181 3.78947C1.49805 3.77763 0.809288 3.48584 0.509534 3.31579V3.34279C0.509534 4.464 1.25824 5.22521 2.2729 5.43742C2.08764 5.49095 1.86181 5.68421 0.992746 5.68421C1.27492 6.60079 2.69345 7.08537 3.66484 7.10526C2.90486 7.72437 1.54988 8.05263 0.509534 8.05263C0.329682 8.05263 0.232319 8.06305 0.0587769 8.04174C1.04053 8.69542 2.41173 9 3.66484 9C7.74735 9 9.97544 5.72305 9.97544 2.66684C9.97544 2.56642 9.97229 2.23011 9.96733 2.13158C10.4037 1.80853 10.5804 1.47032 10.877 1.00421" fill="#646464"/>
</svg>
