<svg width="116" height="19" viewBox="0 0 116 19" fill="none" xmlns="http://www.w3.org/2000/svg">
<path d="M20.2707 7.15765C20.2007 6.94804 20.0147 6.79529 19.7906 6.76364L13.4975 5.87345L10.6831 0.322507C10.583 0.124902 10.3762 -0.000183105 10.1498 -0.000183105C9.92346 -0.000183105 9.71673 0.124902 9.61654 0.322507L6.80199 5.87345L0.509014 6.76364C0.285041 6.79529 0.0988927 6.94805 0.0289531 7.15761C-0.041026 7.36722 0.0173362 7.59728 0.179458 7.75108L4.73298 12.0719L3.6582 18.1731C3.6199 18.3903 3.71164 18.6097 3.89478 18.7393C3.99838 18.8125 4.12109 18.8498 4.2444 18.8498C4.33908 18.8498 4.43407 18.8279 4.52106 18.7833L10.1498 15.9027L15.7783 18.7833C15.9787 18.8858 16.2215 18.8688 16.4046 18.7392C16.5878 18.6097 16.6796 18.3902 16.6413 18.173L15.5662 12.0719L20.1202 7.75104C20.2823 7.59728 20.3407 7.36722 20.2707 7.15765Z" fill="#FFCA56"/>
<path d="M44.1956 7.15765C44.1257 6.94804 43.9396 6.79529 43.7156 6.76364L37.4225 5.87345L34.6081 0.322507C34.508 0.124902 34.3012 -0.000183105 34.0748 -0.000183105C33.8484 -0.000183105 33.6417 0.124902 33.5415 0.322507L30.727 5.87345L24.434 6.76364C24.21 6.79529 24.0239 6.94805 23.9539 7.15761C23.884 7.36722 23.9423 7.59728 24.1044 7.75108L28.658 12.0719L27.5832 18.1731C27.5449 18.3903 27.6366 18.6097 27.8198 18.7393C27.9234 18.8125 28.0461 18.8498 28.1694 18.8498C28.2641 18.8498 28.3591 18.8279 28.446 18.7833L34.0748 15.9027L39.7033 18.7833C39.9037 18.8858 40.1465 18.8688 40.3296 18.7392C40.5128 18.6097 40.6045 18.3902 40.5663 18.173L39.4911 12.0719L44.0452 7.75104C44.2073 7.59728 44.2657 7.36722 44.1956 7.15765Z" fill="#FFCA56"/>
<path d="M68.1206 7.15765C68.0507 6.94804 67.8646 6.79529 67.6406 6.76364L61.3475 5.87345L58.5331 0.322507C58.4329 0.124902 58.2262 -0.000183105 57.9998 -0.000183105C57.7734 -0.000183105 57.5667 0.124902 57.4665 0.322507L54.652 5.87345L48.359 6.76364C48.135 6.79529 47.9489 6.94805 47.8789 7.15761C47.8089 7.36722 47.8673 7.59728 48.0294 7.75108L52.583 12.0719L51.5082 18.1731C51.4699 18.3903 51.5616 18.6097 51.7448 18.7393C51.8484 18.8125 51.9711 18.8498 52.0944 18.8498C52.1891 18.8498 52.284 18.8279 52.371 18.7833L57.9998 15.9027L63.6283 18.7833C63.8287 18.8858 64.0715 18.8688 64.2546 18.7392C64.4377 18.6097 64.5295 18.3902 64.4913 18.173L63.4161 12.0719L67.9702 7.75104C68.1323 7.59728 68.1907 7.36722 68.1206 7.15765Z" fill="#FFCA56"/>
<path d="M92.0457 7.15765C91.9757 6.94804 91.7897 6.79529 91.5657 6.76364L85.2726 5.87345L82.4581 0.322507C82.358 0.124902 82.1512 -0.000183105 81.9249 -0.000183105C81.6985 -0.000183105 81.4918 0.124902 81.3916 0.322507L78.577 5.87345L72.284 6.76364C72.0601 6.79529 71.8739 6.94805 71.804 7.15761C71.734 7.36722 71.7924 7.59728 71.9545 7.75108L76.508 12.0719L75.4332 18.1731C75.3949 18.3903 75.4867 18.6097 75.6698 18.7393C75.7734 18.8125 75.8961 18.8498 76.0194 18.8498C76.1141 18.8498 76.2091 18.8279 76.2961 18.7833L81.9248 15.9027L87.5533 18.7833C87.7538 18.8858 87.9965 18.8688 88.1797 18.7392C88.3628 18.6097 88.4546 18.3902 88.4163 18.173L87.3412 12.0719L91.8952 7.75104C92.0573 7.59728 92.1157 7.36722 92.0457 7.15765Z" fill="#FFCA56"/>
<path d="M115.971 7.15765C115.901 6.94804 115.715 6.79529 115.491 6.76364L109.198 5.87345L106.383 0.322507C106.283 0.124902 106.076 -0.000183105 105.85 -0.000183105C105.623 -0.000183105 105.417 0.124902 105.317 0.322507L102.502 5.87345L96.209 6.76364C95.9851 6.79529 95.7989 6.94805 95.729 7.15761C95.659 7.36722 95.7173 7.59728 95.8795 7.75108L100.433 12.0719L99.3582 18.1731C99.3199 18.3903 99.4117 18.6097 99.5948 18.7393C99.6984 18.8125 99.8211 18.8498 99.9444 18.8498C100.039 18.8498 100.134 18.8279 100.221 18.7833L105.85 15.9027L111.478 18.7833C111.679 18.8858 111.922 18.8688 112.105 18.7392C112.288 18.6097 112.38 18.3902 112.341 18.173L111.266 12.0719L115.82 7.75104C115.982 7.59728 116.041 7.36722 115.971 7.15765Z" fill="#FFCA56"/>
</svg>
