<svg width="17" height="20" viewBox="0 0 17 20" fill="none" xmlns="http://www.w3.org/2000/svg">
<path d="M11.991 0C10.9508 0.0737491 9.73491 0.756241 9.02637 1.64498C8.38004 2.45122 7.84833 3.64871 8.05565 4.81244C9.19223 4.84869 10.3666 4.14995 11.0471 3.24621C11.6837 2.40497 12.1654 1.21499 11.991 0Z" fill="#3C4EF3"/>
<path d="M16.1019 6.71C15.1032 5.42627 13.6995 4.68127 12.3739 4.68127C10.6239 4.68127 9.88366 5.54001 8.66781 5.54001C7.41416 5.54001 6.46172 4.68377 4.94831 4.68377C3.46173 4.68377 1.87881 5.61501 0.87515 7.2075C-0.535822 9.44997 -0.294359 13.6662 1.99222 17.2574C2.81051 18.5424 3.90319 19.9873 5.33245 19.9998C6.6044 20.0123 6.96294 19.1636 8.6861 19.1549C10.4093 19.1449 10.7361 20.0111 12.0056 19.9973C13.4361 19.9861 14.5885 18.3849 15.4068 17.0999C15.9934 16.1786 16.2117 15.7149 16.6666 14.6749C13.358 13.3837 12.8276 8.56123 16.1019 6.71Z" fill="#3C4EF3"/>
</svg>
