<?xml version="1.0" encoding="utf-8"?>
<!-- Generator: Adobe Illustrator 23.0.5, SVG Export Plug-In . SVG Version: 6.00 Build 0)  -->
<svg version="1.1" id="Layer_1" xmlns="http://www.w3.org/2000/svg" xmlns:xlink="http://www.w3.org/1999/xlink" x="0px" y="0px"
	 viewBox="0 0 16 16" style="enable-background:new 0 0 16 16;" xml:space="preserve">
<style type="text/css">
	.st0{fill:#2F2371;}
	.st1{fill:url(#SVGID_1_);}
</style>
<g>
	<path class="st0" d="M6.3,15.3H2.9c-0.5,0-1-0.4-1-1v-6C1.9,7,3,5.9,4.4,5.9h1.8c1.9,0,3.1,1,3.1,2.5c0,1.1-0.7,1.9-1.6,2.2
		c1.1,0.2,1.8,1.2,1.8,2.3C9.5,14.3,8.3,15.3,6.3,15.3z M5.8,7.7H4.8C4.5,7.7,4.2,8,4.2,8.3v0.9c0,0.3,0.2,0.6,0.6,0.6h1
		c0.8,0,1.2-0.3,1.2-1C6.9,8.1,6.5,7.7,5.8,7.7z M5.9,11.4H4.7c-0.3,0-0.5,0.2-0.5,0.5V13c0,0.2,0.2,0.5,0.5,0.5h1.2
		c0.8,0,1.2-0.4,1.2-1C7.2,11.8,6.7,11.4,5.9,11.4z"/>
	
		<linearGradient id="SVGID_1_" gradientUnits="userSpaceOnUse" x1="-102.1426" y1="-14.5024" x2="-91.21" y2="-14.5024" gradientTransform="matrix(0.7071 0.7071 -0.7071 0.7071 67.756 83.6936)">
		<stop  offset="0" style="stop-color:#B57E10"/>
		<stop  offset="0.3156" style="stop-color:#E1BC55"/>
		<stop  offset="0.6341" style="stop-color:#DEB850"/>
		<stop  offset="1" style="stop-color:#B57E10"/>
	</linearGradient>
	<path class="st1" d="M14.1,8.4c0,0,0-0.2-0.3-0.4c-0.2-0.1-0.4-0.2-0.8-0.2c0-0.2-0.1-0.4-0.3-0.6c-0.2-0.2-0.4-0.3-0.5-0.4
		c0,0-0.1,0-0.1,0c0,0,0,0.1,0,0.1C12.1,7,12.2,7.3,12,7.8c-0.3,0-0.6,0.1-1,0.2l-1-1.3c0-0.2,0.1-0.4,0.1-0.8
		c0-0.6,0.3-1.1,0.7-1.5c0.1,0,0.3-0.1,0.5,0c0.2,0.1,0.4,0.3,0.5,0.6c0,0.1,0.1,0.1,0.1,0.1c0.1,0,0.1-0.1,0.1-0.2
		c0.1-0.2,0-0.8-0.5-1.1c0.3-0.2,0.5-0.3,0.5-0.4c0,0,0,0,0,0l0.1-0.7c0,0,0-0.1-0.1-0.1l-0.7,0.1c0,0,0,0,0,0c0,0-0.1,0.2-0.3,0.5
		c-0.4-0.5-0.9-0.5-1.1-0.5C9.7,2.9,9.7,3,9.7,3c0,0,0,0.1,0.1,0.1c0.3,0.1,0.5,0.3,0.6,0.5c0.1,0.2,0,0.3,0,0.5
		C9.7,4.6,9.2,4.7,8.9,4.8c-0.3,0-0.6,0.1-0.8,0.1L6.7,3.7c0.1-0.4,0.2-0.7,0.2-1c0.5-0.2,0.8-0.2,0.9-0.1c0,0,0.1,0.1,0.1,0
		c0,0,0,0,0-0.1c0-0.1-0.2-0.3-0.4-0.5C7.3,1.9,7.1,1.8,7,1.8c0-0.4-0.1-0.7-0.2-0.8C6.6,0.7,6.4,0.7,6.4,0.7c0,0,0,0,0,0
		c0,0,0,0,0,0.1c0,0,0.5,0.8-0.3,1.9c-0.7,0.9-0.6,1.7-0.5,2L5.1,5c0,0,0,0,0,0c0,0-0.1,0.1,0.6,0.8h0.1C5.5,5.6,5.3,5.3,5.3,5.2
		c0.3,0.3,1.3,1,2.3,2.1c1,1,1.8,2,2.1,2.3C9.5,9.5,9.3,9.4,9.1,9.2c0,0,0,0,0,0c0,0,0,0,0,0l0,0c0.6,0.5,0.7,0.5,0.7,0.4
		c0,0,0,0,0,0l0.4-0.4c0,0,0,0,0,0c0.1,0,0.2,0,0.3,0c0.4,0,0.9-0.1,1.6-0.5C13.2,7.9,14,8.4,14.1,8.4C14,8.4,14,8.4,14.1,8.4
		C14.1,8.4,14.1,8.4,14.1,8.4z"/>
</g>
</svg>
