<?xml version="1.0" encoding="utf-8"?>
<!-- Generator: Adobe Illustrator 23.0.5, SVG Export Plug-In . SVG Version: 6.00 Build 0)  -->
<svg version="1.1" id="Layer_1" xmlns="http://www.w3.org/2000/svg" xmlns:xlink="http://www.w3.org/1999/xlink" x="0px" y="0px"
	 viewBox="0 0 550 200" style="enable-background:new 0 0 550 200;" xml:space="preserve">
<style type="text/css">
	.st0{fill:#2F2371;}
	.st1{fill:url(#SVGID_1_);}
</style>
<g>
	<path class="st0" d="M131,184.4H85.6c-7.3,0-13.2-5.9-13.2-13.2V90.9c0-17.9,14.5-32.4,32.4-32.4H129c25.6,0,40.9,12.7,40.9,32.6
		c0,15.2-9.1,25.1-21.3,28.7c14.7,3,24.2,16,24.2,30.3C172.8,171,157.5,184.4,131,184.4z M123.1,83.1h-12.5c-4.2,0-7.6,3.4-7.6,7.6
		v11.4c0,4.1,3.3,7.3,7.3,7.3h12.7c10,0,15.6-4.5,15.6-13.1S133.1,83.1,123.1,83.1z M125.3,131.9h-16c-3.4,0-6.2,2.8-6.2,6.2v15.6
		c0,3.3,2.7,6,6,6h16.6c10.2,0,16.1-4.7,16.1-13.6C141.7,137.1,135.5,131.9,125.3,131.9z"/>
	<path class="st0" d="M228.5,82.9c10.4,0,18.7,3.3,24.5,8.3c2.5,2.1,6.3,0.3,6.3-2.9v-0.1c0-2.1,1.7-3.8,3.8-3.8h23
		c2.1,0,3.8,1.7,3.8,3.8v92.4c0,2.1-1.7,3.8-3.8,3.8h-23c-2.1,0-3.8-1.7-3.8-3.8v-0.2c0-3.3-3.8-5-6.3-2.9c-6,5-14.3,8.4-24.7,8.4
		c-24.4,0-43.9-20.1-43.9-51.6C184.4,102.6,204,82.9,228.5,82.9z M233.5,109.6c-11.5,0-21.9,8.6-21.9,24.6c0,16,10.4,24.9,21.9,24.9
		c11.7,0,21.9-8.8,21.9-24.7C255.4,118.4,245.2,109.6,233.5,109.6z"/>
	<path class="st0" d="M381.3,130.1c0-13.6-7.5-21.2-19.2-21.2c-11.7,0-19.2,7.5-19.2,21.2v50.5c0,2.1-1.7,3.8-3.8,3.8h-23
		c-2.1,0-3.8-1.7-3.8-3.8V88.2c0-2.1,1.7-3.8,3.8-3.8h23c2.1,0,3.8,1.7,3.8,3.8v0c0,3.2,3.7,5,6.2,3c6.2-4.8,14.4-7.9,24.1-7.9
		c23.1,0,38.6,15.8,38.6,42.7v54.6c0,2.1-1.7,3.8-3.8,3.8h-22.8c-2.1,0-3.8-1.7-3.8-3.8V130.1z"/>
	
		<linearGradient id="SVGID_1_" gradientUnits="userSpaceOnUse" x1="132.8731" y1="-20.3323" x2="278.294" y2="-20.3323" gradientTransform="matrix(0.7071 0.7071 -0.7071 0.7071 259.2411 -58.1807)">
		<stop  offset="0" style="stop-color:#B57E10"/>
		<stop  offset="0.3156" style="stop-color:#E1BC55"/>
		<stop  offset="0.6341" style="stop-color:#DEB850"/>
		<stop  offset="1" style="stop-color:#B57E10"/>
	</linearGradient>
	<path class="st1" d="M477.6,116.6c0-0.1-0.5-2.9-4.1-5.2c-2.2-1.4-5.6-2.6-10.9-2.9c-0.1-2.3-1.5-4.9-4.3-7.6
		c-2.7-2.6-5.8-4.5-6.6-4.8c-0.6-0.3-0.9,0.1-1,0.2c-0.3,0.5,0.2,0.9,0.6,1.2c0.9,0.7,1.2,4.5-1.3,11.8c-3.8,0.6-8.1,1.5-12.9,2.8
		l-13.5-17c0.6-2.4,1-5.8,1.3-10c0.5-7.6,4.5-14.5,9.2-20c1.7-0.6,4-0.9,6.2-0.1c2.7,0.9,4.8,3.4,6.2,7.4c0.4,1.1,1,1.3,1.4,1.3
		c0.8,0,1.4-0.9,1.8-2.3c0.8-3.1,0.2-10-6.8-15c3.5-2.9,6.1-4.6,6.2-4.7c0.1-0.1,0.3-0.2,0.3-0.4l1.7-9.2c0.1-0.4-0.3-0.8-0.7-0.7
		l-9.2,1.7c-0.2,0-0.4,0.2-0.4,0.3c0,0-1.7,3-4.5,6.9c-5-6.6-11.6-7.1-14.7-6.3c-1.4,0.3-2.2,1-2.3,1.8c0,0.4,0.2,1,1.3,1.4
		c3.9,1.4,6.4,3.5,7.4,6.2c0.8,2.3,0.4,4.6-0.2,6.3c-7.7,7-14.5,8.9-19.1,9.2c-4.6,0.3-7.8,0.7-10.1,1.1l-18.8-14.6
		c1.4-5,2.3-9.4,2.9-13.3c7.3-2.5,11.1-2.2,11.8-1.3c0.3,0.4,0.7,0.9,1.2,0.6c0.2-0.1,0.5-0.4,0.2-1c-0.3-0.8-2.2-3.9-4.8-6.6
		c-2.7-2.8-5.3-4.3-7.6-4.3c-0.3-5.2-1.5-8.7-2.9-10.9c-2.3-3.6-5.1-4.1-5.2-4.1c-0.3,0-0.5,0.1-0.7,0.3c-0.1,0.2-0.1,0.5,0,0.7
		c0.1,0.1,7.3,10-4.3,24.8c-9,11.4-7.7,22-6.3,26.9l-5,5c-0.1,0.1-0.2,0.1-0.2,0.2c-0.5,0.5-1.3,1.3,7.5,11.3
		c0.1,0.1,0.3,0.3,0.4,0.5c0.5-0.1,1-0.1,1.5-0.2c-3.8-4.4-6.4-7.5-7.6-9.4c4.4,3.4,17,13.6,30.7,27.5
		c13.6,13.8,23.8,26.1,27.4,30.6c-1.4-1-3.7-2.8-6.7-5.3v1.7c7.5,6.3,8.5,6,9,5.6c0,0,0.1,0,0.1-0.1l5.5-5.5
		c0.1-0.1,0.1-0.2,0.1-0.2c1.3,0.3,2.8,0.5,4.6,0.6c5,0.2,12.6-1,20.7-7.3c14.8-11.6,24.4-4.6,24.8-4.3c0.2,0.2,0.5,0.2,0.7,0
		C477.6,117.1,477.7,116.9,477.6,116.6z"/>
</g>
</svg>
