<svg width="18" height="18" viewBox="0 0 18 18" fill="none" xmlns="http://www.w3.org/2000/svg">
<path d="M5.04166 17.1666H2.61666C2.1879 17.1666 1.77669 16.9963 1.47351 16.6931C1.17033 16.39 1 15.9787 1 15.55V9.89165C1 9.46289 1.17033 9.05168 1.47351 8.7485C1.77669 8.44532 2.1879 8.27499 2.61666 8.27499H5.04166M10.7 6.65833V3.425C10.7 2.78185 10.4445 2.16504 9.98972 1.71027C9.53495 1.25549 8.91814 1 8.27499 1L5.04166 8.27499V17.1666H14.1596C14.5495 17.1711 14.9279 17.0344 15.225 16.7819C15.522 16.5294 15.7179 16.178 15.7763 15.7925L16.8918 8.51749C16.927 8.28579 16.9114 8.04921 16.846 7.82414C16.7807 7.59908 16.6672 7.39091 16.5134 7.21407C16.3596 7.03722 16.1692 6.89592 15.9554 6.79996C15.7416 6.704 15.5095 6.65567 15.2751 6.65833H10.7Z" stroke="#5458F7" stroke-width="1.61666" stroke-linecap="round" stroke-linejoin="round"/>
</svg>
