<svg width="17" height="15" viewBox="0 0 17 15" fill="none" xmlns="http://www.w3.org/2000/svg">
<path d="M14.7554 2.14929C14.3913 1.78493 13.9588 1.4959 13.4829 1.2987C13.007 1.1015 12.4969 1 11.9817 1C11.4666 1 10.9564 1.1015 10.4805 1.2987C10.0046 1.4959 9.57219 1.78493 9.208 2.14929L8.45218 2.90512L7.69636 2.14929C6.96072 1.41366 5.96298 1.00038 4.92263 1.00038C3.88229 1.00038 2.88455 1.41366 2.14891 2.14929C1.41328 2.88493 1 3.88267 1 4.92302C1 5.96336 1.41328 6.9611 2.14891 7.69674L2.90473 8.45256L8.45218 14L13.9996 8.45256L14.7554 7.69674C15.1198 7.33255 15.4088 6.90014 15.606 6.42422C15.8032 5.94829 15.9047 5.43818 15.9047 4.92302C15.9047 4.40785 15.8032 3.89774 15.606 3.42182C15.4088 2.94589 15.1198 2.51348 14.7554 2.14929Z" stroke="#9597A1" stroke-width="1.6" stroke-linecap="round" stroke-linejoin="round"/>
</svg>
