<svg width="18" height="18" viewBox="0 0 18 18" fill="none" xmlns="http://www.w3.org/2000/svg">
<path d="M16.5 8.58336C16.5029 9.68325 16.2459 10.7683 15.75 11.75C15.162 12.9265 14.2581 13.916 13.1395 14.6078C12.021 15.2995 10.7319 15.6662 9.41667 15.6667C8.31678 15.6696 7.23176 15.4126 6.25 14.9167L1.5 16.5L3.08333 11.75C2.58744 10.7683 2.33047 9.68325 2.33333 8.58336C2.33384 7.26815 2.70051 5.97907 3.39227 4.86048C4.08402 3.7419 5.07355 2.838 6.25 2.25002C7.23176 1.75413 8.31678 1.49716 9.41667 1.50002H9.83333C11.5703 1.59585 13.2109 2.32899 14.441 3.55907C15.671 4.78915 16.4042 6.42973 16.5 8.16669V8.58336Z" stroke="#9597A1" stroke-width="1.66667" stroke-linecap="round" stroke-linejoin="round"/>
</svg>
