<svg width="1440" height="851" viewBox="0 0 1440 851" fill="none" xmlns="http://www.w3.org/2000/svg">
<g clip-path="url(#clip0_54_712)">
<path d="M1686.01 245.574C1678.77 190.134 1634.16 143.789 1581.2 124.813C1528.24 105.866 1468.75 111.396 1415.73 130.231C1358.25 150.667 1304.61 188.478 1277.86 242.964C1251.11 297.45 1256.97 369.592 1301.27 411.305C1270.76 412.933 1239.27 418.407 1214.21 435.783C1189.13 453.131 1172.17 484.823 1179.89 514.185C1153.48 509.525 1124.92 526.424 1116.5 551.688C1087.82 551.828 1059.38 563.702 1039.25 583.969C1015.72 562.86 976.647 561.597 951.765 581.134C955.611 578.103 911.784 557.667 907.713 556.769C888.712 552.558 867.929 554.214 850.031 561.877C823.396 573.302 830.21 580.685 814.348 557.133C802.642 539.758 788.476 525.329 765.658 525.273C759.07 525.273 752.539 526.452 746.233 528.277C705.715 540.01 675.715 580.797 676.846 622.707C676.337 604.321 624.113 630.82 618.515 634.806C599.118 648.617 584.047 666.61 579.778 690.611C561.823 677.193 532.304 683.874 522.04 703.72C530.89 690.526 508.157 675.902 492.351 673.684C476.517 671.466 461.39 680.112 448.214 689.095C449.656 647.157 440.721 604.91 422.399 567.099C416.574 555.112 409.505 543.182 398.591 535.463C387.677 527.743 372.097 525.189 360.9 532.515C390.448 495.771 397.46 442.492 378.459 399.431C359.43 356.37 315.208 325.408 267.96 322.096C294.001 301.632 287.413 260.649 273.191 230.837C254.982 192.661 226.339 157.067 186.612 141.937C146.886 126.806 95.3404 138.007 74.1058 174.611C91.4101 165.348 92.7108 140.505 85.4158 122.371C68.7335 80.8544 20.3831 57.5555 -24.5178 60.7276C-69.4187 63.8996 -110.276 89.2476 -141.69 121.248C-152.745 132.533 -163.518 148.842 -156.393 162.878C-155.121 140.196 -180.964 122.764 -203.612 126.105C-226.261 129.473 -244.074 147.663 -254.819 167.734C-270.426 196.928 -271.246 239.315 -243.197 257.084C-265.28 269.547 -269.946 304.495 -271.699 329.647C-278.372 424.667 -272.575 520.529 -254.508 614.061C-251.708 628.574 -248.485 643.339 -241.02 656.112C-234.121 667.929 -223.886 677.445 -213.424 686.316C-90.5685 790.487 78.3753 822.516 239.798 829.955C497.356 841.801 755.79 801.014 1012.75 821.983C1158.82 833.913 1305.32 814.46 1450.93 798.235C1518.96 790.655 1593.75 778.36 1637.21 725.84C1663.62 693.923 1673.8 652.125 1683.24 611.9C1694.5 563.955 1705.81 515.532 1706.48 466.296C1707.59 388.091 1696.14 323.247 1686.01 245.574Z" fill="white"/>
<path d="M825.488 215.801C829.023 215.829 832.868 215.745 835.526 213.443C840.672 209.008 836.572 199.717 830.097 197.611C823.622 195.506 816.638 198.117 810.333 200.699C818.617 185.344 815.988 164.881 803.999 152.165C792.01 139.448 771.539 135.49 755.677 142.901C739.786 150.312 729.777 168.53 732.208 185.793C727.289 150.929 659.315 189.695 699.72 209.626C715.215 217.289 738.259 214.145 754.885 214.566C778.382 215.128 801.935 215.549 825.488 215.801Z" fill="white"/>
<path d="M1070.83 98.6796C1073.54 98.7077 1076.51 98.6515 1078.55 96.8831C1082.51 93.4584 1079.37 86.3284 1074.36 84.7003C1069.39 83.1002 1064.02 85.0933 1059.18 87.0582C1065.54 75.2685 1063.54 59.5207 1054.32 49.752C1045.1 39.9833 1029.38 36.9236 1017.16 42.622C1004.95 48.3204 997.258 62.3278 999.124 75.6053C995.336 48.7976 943.111 78.6089 974.129 93.9356C986.033 99.8305 1003.76 97.4164 1016.54 97.7252C1034.64 98.1743 1052.73 98.4831 1070.83 98.6796Z" fill="white"/>
<path d="M613.679 520.165C615.602 520.193 617.694 520.136 619.136 518.873C621.935 516.459 619.702 511.406 616.167 510.256C612.633 509.105 608.844 510.536 605.423 511.94C609.947 503.575 608.505 492.43 601.973 485.525C595.441 478.592 584.301 476.458 575.677 480.472C567.053 484.486 561.596 494.424 562.897 503.827C560.211 484.851 523.227 505.933 545.197 516.796C553.623 520.951 566.177 519.266 575.225 519.491C588.033 519.8 600.87 520.024 613.679 520.165Z" fill="white"/>
<path d="M1270.34 166.078C1272.26 166.106 1274.35 166.05 1275.8 164.787C1278.6 162.373 1276.36 157.32 1272.83 156.169C1269.29 155.018 1265.5 156.45 1262.08 157.854C1266.61 149.489 1265.16 138.344 1258.63 131.439C1252.1 124.505 1240.96 122.372 1232.34 126.386C1223.68 130.428 1218.26 140.337 1219.56 149.741C1216.87 130.765 1179.89 151.846 1201.86 162.71C1210.28 166.864 1222.84 165.18 1231.88 165.405C1244.72 165.714 1257.53 165.966 1270.34 166.078Z" fill="white"/>
<path d="M1206.75 636.379L1200.33 651.004L1109.37 858.589L656.572 841.915L524.188 768.257L519.891 765.871C519.891 765.871 605.31 760.2 632.652 747.372C659.994 734.544 750.559 692.353 760.795 674.865C771.058 657.348 861.595 629.586 885.516 624.505C909.437 619.397 1022.23 651.65 1049.57 653.699C1076.91 655.777 1198.21 648.253 1206.75 636.379Z" fill="#ACBBBF"/>
<path d="M1206.75 636.379L1200.33 651.004C1177.94 654.148 1158 655.692 1137.19 665.461C1113.87 676.409 1092.49 683.286 1066.19 682.388C1039.87 681.489 1014.14 674.472 989.173 666.078C960.134 656.282 929.258 644.408 899.682 652.492C894.083 672.17 887.976 692.718 873.499 707.259C856.393 724.438 830.719 729.996 806.431 731.4C782.142 732.831 757.401 730.978 733.792 736.817C714.876 741.505 697.458 750.937 678.825 756.691C653.49 764.523 626.601 765.337 600.079 766.095C574.801 766.825 549.495 767.527 524.188 768.257L519.891 765.871C519.891 765.871 605.31 760.2 632.652 747.372C659.994 734.543 750.559 692.353 760.795 674.865C771.058 657.348 861.595 629.586 885.516 624.505C909.437 619.397 1022.23 651.65 1049.57 653.699C1076.91 655.777 1198.21 648.253 1206.75 636.379Z" fill="#B5C4C9"/>
<path d="M1572.4 297.115V858.59L882.886 833.185L841.096 831.641C841.096 831.641 866.741 821.283 878.702 811.402C890.662 801.521 948.739 773.787 974.385 756.804C1000 739.85 1082.03 694.038 1109.37 674.865C1136.71 655.665 1205.05 590.569 1211.9 582.316C1218.71 574.035 1300.74 558.343 1310.97 548.153C1321.24 537.992 1370.77 468.432 1382.73 443C1394.72 417.539 1471.6 335.713 1471.6 335.713C1471.6 335.713 1558.75 300.512 1572.4 297.115Z" fill="#B5C4C9"/>
<path d="M1410.02 671.103C1398.14 669.026 1385.42 667.033 1374.45 671.974C1361.53 677.812 1354.63 691.567 1346.51 703.132C1326.86 731.091 1294.71 750.039 1260.56 753.744C1252.87 754.586 1244.5 754.895 1238.45 759.667C1233.78 763.345 1231.32 769.071 1227.79 773.843C1214.86 791.303 1190.29 793.914 1169.11 799.107C1127.44 809.297 1089.97 835.431 1066.19 870.884C1179.8 868.105 1293.38 865.298 1406.99 862.519C1448.7 861.508 1490.63 860.442 1531.54 852.47C1535.81 851.628 1540.31 850.617 1543.53 847.698C1547.27 844.329 1548.59 839.136 1549.58 834.224C1556.43 800.96 1568.02 726.572 1539.55 699.792C1513.42 675.286 1443.69 677.055 1410.02 671.103Z" fill="#8CA6AD"/>
<path d="M1572.4 297.115V394.044C1548.74 396.29 1524.67 402.297 1501.49 406.086C1492.55 407.546 1483.28 409.146 1475.81 414.283C1468.75 419.196 1464.11 426.803 1460.09 434.382C1446.15 460.881 1437.59 489.85 1424.47 516.77C1411.32 543.69 1392.35 569.487 1364.86 581.726C1344.56 590.793 1321.6 591.467 1301.3 600.281C1281.85 608.702 1270.62 618.387 1247.01 616.366C1238.76 615.664 1230.44 613.895 1222.3 615.383C1203.38 618.892 1195.75 643.314 1187.1 657.153C1176.81 673.63 1159.73 685.336 1142.03 692.803C1118.3 702.796 1092.49 706.529 1067.72 713.547C1060.74 715.54 1053.67 717.842 1047.81 722.109C1042.16 726.235 1037.97 731.962 1033.42 737.239C1023.19 749.141 1010.92 759.134 998.333 768.566C971.273 788.918 942.546 807.079 912.546 822.827C898.833 830.013 890.548 834.336 875.449 833.045C864.054 832.063 852.546 832.034 841.123 831.613C841.123 831.613 866.769 821.255 878.729 811.374C890.689 801.493 948.766 773.759 974.412 756.776C1000.03 739.821 1082.06 694.01 1109.4 674.837C1136.74 655.637 1205.08 590.54 1211.92 582.288C1218.74 574.007 1300.76 558.315 1311 548.125C1321.26 537.964 1370.8 468.404 1382.76 442.972C1394.75 417.511 1471.63 335.685 1471.63 335.685C1471.63 335.685 1558.75 300.512 1572.4 297.115Z" fill="#CED8DB"/>
<path d="M734.301 851.234H-164.451V352.582C-164.451 352.582 -125.149 378.463 -102.953 383.207C-80.7286 387.951 -7.26987 394.801 4.6905 393.088C16.6509 391.348 125.765 487.182 131.08 503.968C136.424 520.727 279.185 595.873 305.453 610.189C331.72 624.477 407.95 653.334 426.725 673.32C445.528 693.307 517.29 759.245 542.935 766.965C568.553 774.712 595.895 800.987 631.776 803.962C667.657 806.966 734.301 851.234 734.301 851.234Z" fill="#B5C4C9"/>
<path d="M734.301 851.234H670.569C653.265 846.939 637.459 840.23 620.749 829.198C592.191 810.306 556.027 811.429 524.839 798.938C459.383 772.719 430.57 694.121 369.779 658.499C352.474 648.337 333.219 642.105 314.105 635.902C257.159 617.487 200.213 599.073 143.239 580.63C137.668 578.834 132.07 577.009 127.037 574.033C120.194 569.963 114.794 563.956 109.478 558.061C79.3651 524.881 46.057 491.645 3.13536 478.368C-51.0397 461.609 -113.245 479.07 -164.451 455.518V352.582C-164.451 352.582 -125.149 378.463 -102.953 383.207C-80.7286 387.951 -7.26987 394.801 4.6905 393.088C16.6509 391.348 125.765 487.182 131.08 503.968C136.424 520.727 279.185 595.873 305.453 610.189C331.72 624.477 407.95 653.334 426.725 673.32C445.528 693.307 517.29 759.245 542.935 766.965C568.553 774.712 595.895 800.987 631.776 803.962C667.657 806.966 734.301 851.234 734.301 851.234Z" fill="#CED8DB"/>
<path d="M503.698 853.535H1646.08V219.709C1646.08 219.709 1596.13 252.606 1567.91 258.636C1539.67 264.666 1446.29 273.372 1431.09 271.196C1415.89 268.984 1277.2 390.796 1270.44 412.133C1263.65 433.434 1082.19 528.951 1048.8 547.148C1015.41 565.309 918.516 601.989 894.652 627.393C870.752 652.797 779.537 736.611 746.939 746.423C714.377 756.27 679.624 789.667 634.016 793.449C588.408 797.267 503.698 853.535 503.698 853.535Z" fill="#B5C4C9"/>
<path d="M503.698 853.535H584.706C606.701 848.076 626.792 839.548 648.032 825.526C684.332 801.513 730.299 802.94 769.941 787.063C853.141 753.737 889.764 653.832 967.035 608.554C989.03 595.638 1013.51 587.716 1037.8 579.831C1110.18 556.425 1182.57 533.018 1254.99 509.576C1262.07 507.293 1269.18 504.974 1275.58 501.192C1284.28 496.018 1291.14 488.382 1297.9 480.889C1336.17 438.715 1378.51 396.47 1433.07 379.593C1501.93 358.292 1581 380.485 1646.08 350.549V219.709C1646.08 219.709 1596.13 252.606 1567.91 258.636C1539.67 264.666 1446.29 273.372 1431.09 271.196C1415.89 268.984 1277.2 390.796 1270.44 412.133C1263.65 433.434 1082.19 528.951 1048.8 547.148C1015.41 565.309 918.516 601.989 894.652 627.393C870.752 652.797 779.537 736.611 746.939 746.423C714.377 756.27 679.624 789.667 634.016 793.449C588.408 797.267 503.698 853.535 503.698 853.535Z" fill="#CED8DB"/>
<path d="M795.553 861.734L1443.76 846.825V573.433C1423.08 589.422 1330.93 581.952 1292.46 581.952C1253.97 581.952 1034.15 558.493 1002.22 551.579C970.29 544.634 857.55 552.906 851.891 551.579H851.643C845.766 552.35 829.381 623.098 831.246 632.297C832.956 640.94 855.56 702.057 855.996 720.146C856.058 721.627 855.933 722.831 855.654 723.695C851.891 734.9 810.57 759.162 806.808 770.336C803.046 781.541 795.553 861.734 795.553 861.734Z" fill="#556077"/>
<path d="M831.247 632.298C832.957 640.941 855.561 702.058 855.996 720.147C875.273 724.653 913.641 732.987 912.708 727.03C911.464 719.128 880.435 661.869 880.435 661.869C880.435 661.869 848.441 596.955 851.892 551.58H851.643C845.767 552.351 829.382 623.1 831.247 632.298Z" fill="#394559"/>
<path d="M795.553 861.735H1594.06V473.762C1593.34 473.732 1592.6 473.701 1591.85 473.701C1575.49 473.022 1503.17 466.694 1490.74 473.762C1477.59 481.232 1396.78 599.64 1383.63 614.116C1370.47 628.593 1336.65 650.972 1306.58 652.824C1276.55 654.707 1173.1 691.995 1144.96 693.878C1116.83 695.73 1078.8 690.143 1056.48 706.935C1034.15 723.696 974.021 775.923 942.09 790.863C910.158 805.772 850.027 813.242 836.875 818.829C823.723 824.447 795.553 861.735 795.553 861.735Z" fill="#394559"/>
<path d="M795.554 861.735H813.432C845.705 850.777 879.098 839.325 880.435 838.461C878.165 838.461 994.325 774.04 1011.43 763.731C1028.53 753.421 1194.81 729.097 1194.81 729.097C1194.81 729.097 1331.8 712.182 1366.09 695.73C1400.39 679.278 1490.12 518.489 1490.12 518.489C1490.12 518.489 1557.06 473.701 1591.85 473.701C1575.5 473.022 1503.18 466.694 1490.74 473.762C1477.59 481.232 1396.78 599.64 1383.63 614.116C1370.47 628.593 1336.65 650.972 1306.58 652.824C1276.55 654.707 1173.1 691.995 1144.97 693.878C1116.83 695.73 1078.8 690.143 1056.48 706.935C1034.15 723.696 974.022 775.923 942.09 790.863C910.159 805.772 850.027 813.242 836.875 818.829C823.723 824.447 795.554 861.735 795.554 861.735Z" fill="#455060"/>
<path opacity="0.45" d="M1626.17 580.716C1602.73 585.654 1534.58 638.777 1528.17 654.52C1521.77 670.262 1448.61 711.81 1427.68 729.095C1406.76 746.381 1308.76 773.884 1276.79 767.525C1244.83 761.167 1063.13 801.942 1063.13 801.942L986.334 903.589H1670.92L1626.17 580.716Z" fill="#394559"/>
<path d="M1369.57 800.619C1389.6 767.93 1402.65 731.044 1407.6 693.108C1410.55 670.451 1409.34 644.306 1392.14 629.12C1388.23 625.693 1382.82 622.884 1377.94 624.767C1372.43 626.866 1370.63 633.565 1369.63 639.337C1361.39 687.582 1359.56 736.878 1364.16 785.587C1364.72 753.299 1363.91 720.518 1354.74 689.527C1345.54 658.536 1327.01 629.181 1298.9 612.853C1297.25 611.896 1295.45 610.97 1293.55 611.155C1289.6 611.556 1287.83 616.279 1287.33 620.199C1285.1 638.071 1290.6 655.943 1296.51 672.982C1308.07 706.443 1321.44 739.316 1336.46 771.388C1321.35 729.655 1290.1 693.941 1250.58 673.26C1242.72 669.124 1231.4 666.284 1226.21 673.476C1224.4 675.976 1223.88 679.156 1223.81 682.212C1223.5 696.719 1232.21 709.807 1241.29 721.197C1263.21 748.607 1289.54 772.53 1318.99 791.791C1299.83 769.721 1273.31 754.04 1244.61 747.836C1241.04 747.064 1237.06 746.508 1233.92 748.36C1227.58 752.126 1229.75 761.849 1233.7 768.054C1247.35 789.723 1271.13 802.625 1293.86 814.633C1314.17 825.344 1337.24 836.394 1359.25 829.789C1377.28 824.387 1385.18 809.447 1398.89 798.489C1411.17 788.673 1420.66 781.481 1427.9 766.603C1429.98 762.313 1431.66 756.942 1428.9 753.052C1426.66 749.873 1422.09 748.978 1418.29 749.935C1399.64 754.596 1381.73 779.537 1373.46 795.341" fill="#9A9E49"/>
<path d="M1356.82 813.058C1366 798.087 1371.97 781.234 1374.2 763.855C1375.54 753.484 1375.01 741.538 1367.12 734.593C1365.34 733.019 1362.86 731.753 1360.62 732.587C1358.1 733.544 1357.26 736.6 1356.82 739.254C1353.06 761.324 1352.22 783.888 1354.31 806.175C1354.55 791.389 1354.21 776.388 1349.98 762.219C1345.79 748.051 1337.3 734.593 1324.43 727.123C1323.68 726.691 1322.84 726.259 1321.97 726.351C1320.17 726.537 1319.36 728.697 1319.14 730.488C1318.12 738.668 1320.63 746.847 1323.34 754.626C1328.62 769.936 1334.75 784.969 1341.62 799.662C1334.72 780.585 1320.42 764.226 1302.32 754.75C1298.71 752.867 1293.55 751.57 1291.16 754.842C1290.32 755.984 1290.1 757.435 1290.07 758.855C1289.91 765.491 1293.89 771.48 1298.06 776.696C1308.07 789.228 1320.14 800.186 1333.6 808.984C1324.83 798.89 1312.7 791.698 1299.58 788.889C1297.94 788.549 1296.13 788.272 1294.7 789.136C1291.78 790.864 1292.81 795.309 1294.61 798.149C1300.86 808.058 1311.74 813.984 1322.13 819.448C1331.42 824.355 1341.96 829.387 1352.04 826.393C1360.28 823.923 1363.91 817.071 1370.16 812.07C1375.79 807.595 1380.11 804.292 1383.44 797.47C1384.4 795.494 1385.15 793.056 1383.91 791.266C1382.88 789.815 1380.8 789.414 1379.06 789.846C1370.5 791.976 1362.33 803.397 1358.53 810.62" fill="#89893A"/>
<path d="M1580.44 630.937C1572.51 620.257 1556.9 617.417 1544.12 621.337C1531.37 625.288 1521.08 634.703 1512.47 644.858C1492.57 668.287 1479.23 697.117 1474.26 727.336C1466.98 718.014 1453.52 714.032 1442.3 717.891C1431.07 721.718 1422.96 733.108 1423.02 744.9C1421.31 735.238 1408.75 730.824 1399.39 733.942C1390.03 737.059 1383.31 745.085 1377.16 752.74C1353 732.337 1311.99 736.38 1292.34 761.105C1262.34 725.577 1203.42 718.971 1166.2 746.937C1148.48 729.065 1113.93 733.139 1100.94 754.654C1098.79 758.203 1097.05 762.216 1093.6 764.5C1086.88 768.945 1078.05 764.655 1070 764.068C1046.37 762.401 1034.53 791.448 1029.99 814.536C1169.43 849.293 1315.1 848.151 1458.87 846.793C1486.73 846.546 1514.62 846.268 1542.47 846.021C1548.6 845.959 1555.25 845.713 1559.92 841.792C1565.42 837.162 1566.17 829.137 1566.51 822.006C1569.59 758.852 1580.44 690.511 1580.44 630.937Z" fill="#7F7F33"/>
<path d="M1211.16 575.995C1222.97 577.107 1234.14 578.094 1244.27 578.928C1247.54 579.206 1250.71 579.453 1253.75 579.7C1254.28 579.761 1254.81 579.792 1255.34 579.854C1272.29 581.15 1285.41 581.953 1292.46 581.953C1307.95 581.953 1332.17 583.157 1356.89 583.558C1368.2 583.743 1379.68 583.743 1390.44 583.404C1390.53 583.095 1390.59 582.786 1390.62 582.478C1391.03 579.051 1388.73 575.934 1386.14 573.619C1381.64 569.606 1375.85 566.951 1369.88 566.025C1376.85 565.47 1383.38 559.975 1385.3 553.123C1387.64 544.788 1384.03 535.559 1377.66 529.694C1371.28 523.799 1362.58 520.959 1353.9 520.125C1347.4 519.508 1340.53 520.002 1335 523.428C1333.44 524.385 1332.04 525.651 1330.86 527.071C1331.02 525.404 1331.05 523.706 1330.93 522.008C1330.46 515.897 1327.1 509.6 1321.35 507.439C1317.24 505.896 1312.64 506.606 1308.35 507.562C1298.93 509.723 1289.73 512.933 1281.05 517.131C1275.02 520.064 1268.31 525.651 1270.45 531.948C1267.62 521.545 1262.62 511.699 1255.84 503.272C1251.92 498.395 1246.01 493.61 1240.04 495.493C1236.65 496.574 1234.26 499.599 1232.46 502.654C1222.1 519.971 1224 543.677 1236.97 559.173C1231.9 553.462 1224.99 549.357 1217.53 547.628C1198.04 543.122 1203.29 564.544 1211.16 575.995Z" fill="#9A9E49"/>
<path d="M1251.64 558C1252.92 565.254 1254.47 572.57 1255.34 579.854C1272.29 581.151 1285.41 581.953 1292.47 581.953C1307.95 581.953 1332.17 583.157 1356.89 583.558C1358.07 579.052 1354.68 574.02 1350.27 572.106C1345.45 569.977 1339.91 570.501 1334.69 571.088C1340.19 567.415 1338.2 558.031 1332.54 554.605C1326.88 551.148 1319.61 552.012 1313.17 553.648C1316.06 547.752 1312.15 540.066 1305.99 537.659C1299.83 535.282 1292.56 537.535 1287.68 541.949C1282.83 546.394 1280.09 552.691 1278.47 559.05C1275.08 554.45 1271.14 550.252 1266.75 546.579C1263.74 544.079 1259.79 541.702 1256.09 542.999C1250.68 544.943 1250.68 552.413 1251.64 558Z" fill="#89893A"/>
<path d="M749.787 791.541C757.777 792.529 765.892 791.017 772.204 789.134C778.485 787.251 782.775 785.121 782.775 785.121C782.775 785.121 780.506 781.849 776.246 778.237C771.986 774.626 765.519 770.86 757.529 769.78C741.33 767.743 724.913 777.558 724.913 777.558C724.913 777.558 727.183 780.583 731.443 783.794C735.733 786.942 741.796 790.554 749.787 791.541Z" fill="#505123"/>
<path d="M817.474 781.169C816.261 788.917 812.219 795.955 808.612 800.955C804.975 805.986 801.71 809.042 801.71 809.042C801.71 809.042 799.658 805.956 797.948 800.955C796.145 796.016 794.683 789.133 795.927 781.385C798.259 766.013 810.602 752.895 810.602 752.895C810.602 752.895 812.934 756.043 814.986 761.136C817.1 766.229 818.686 773.421 817.474 781.169Z" fill="#505123"/>
<path d="M803.825 869.883C811.536 871.889 819.961 871.303 826.366 870.253C832.802 869.204 837.342 867.599 837.342 867.599C837.342 867.599 835.601 864.049 831.776 859.975C827.921 855.962 822.2 851.301 814.334 849.294C806.468 847.288 798.135 848.183 791.792 849.603C785.449 851.023 781.034 852.937 781.034 852.937C781.034 852.937 781.532 853.739 782.465 855.005C783.397 856.301 784.796 858.03 786.662 859.913C790.486 863.648 796.176 867.846 803.825 869.883Z" fill="#505123"/>
<path d="M707.719 703.971L711.357 705.082C768.287 758.791 816.603 821.174 854.629 888.99L851.178 890.935C813.463 822.1 765.022 758.699 707.719 703.971Z" fill="#7B8131"/>
<path d="M692.796 701.809C698.827 706.995 705.699 710.143 711.326 711.841C714.125 712.674 716.519 713.261 718.229 713.631C719.939 713.971 720.965 714.094 720.965 714.094C720.965 714.094 720.809 713.076 720.405 711.378C720.001 709.68 719.317 707.272 718.229 704.587C715.99 699.216 712.383 692.24 706.196 686.931C703.118 684.245 699.791 682.146 696.527 680.541C693.2 678.967 689.966 677.887 687.106 677.146C681.416 675.633 677.312 675.479 677.312 675.479C677.312 675.479 678.213 679.492 680.607 684.77C681.82 687.425 683.375 690.357 685.396 693.29C687.354 696.222 689.78 699.216 692.796 701.809Z" fill="#505123"/>
<path d="M717.327 756.598C733.215 757.709 749.818 748.079 749.818 748.079C749.818 748.079 747.331 744.961 742.823 741.658C738.377 738.294 731.661 734.96 723.577 734.404C715.524 733.818 707.409 736.38 701.471 738.973C695.501 741.566 691.552 744.282 691.552 744.282C691.552 744.282 694.008 747.153 698.486 750.054C702.994 752.956 709.306 756.104 717.327 756.598Z" fill="#505123"/>
<path d="M752.648 703.105C752.088 718.971 740.584 732.769 740.584 732.769C740.584 732.769 738.128 729.991 735.734 725.237C733.402 720.453 731.008 713.847 731.195 706.038C731.412 698.197 734.148 690.635 736.791 685.079C739.465 679.492 742.108 675.88 742.108 675.88C742.108 675.88 742.792 676.59 743.818 677.887C744.875 679.183 746.212 681.097 747.549 683.535C750.223 688.412 752.928 695.172 752.648 703.105Z" fill="#505123"/>
<path d="M786.444 741.073C784.858 756.846 772.484 769.903 772.484 769.903C772.484 769.903 770.214 766.971 768.193 762.063C766.172 757.155 764.151 750.457 764.897 742.647C765.644 734.807 768.784 727.522 771.831 722.121C774.847 716.719 777.738 713.262 777.738 713.262C777.738 713.262 780.288 716.256 782.682 721.225C785.014 726.226 787.159 733.233 786.444 741.073Z" fill="#505123"/>
<path d="M775.624 829.787C783.491 831.268 791.792 830.157 798.135 828.675C804.478 827.194 808.924 825.311 808.924 825.311C808.924 825.311 806.903 821.885 802.861 818.057C798.757 814.291 792.694 810.031 784.734 808.55C776.744 807.068 768.504 808.519 762.255 810.34C756.036 812.161 751.746 814.384 751.746 814.384C751.746 814.384 753.829 817.532 757.84 820.989C759.861 822.718 762.348 824.539 765.333 826.113C768.256 827.688 771.676 829.015 775.624 829.787Z" fill="#505123"/>
<path d="M849.187 823.952C847.477 831.607 843 838.336 839.051 843.121C835.102 847.905 831.62 850.745 831.62 850.745C831.62 850.745 829.817 847.504 828.386 842.442C826.925 837.379 825.93 830.434 827.671 822.779C830.998 807.592 844.212 795.307 844.212 795.307C844.212 795.307 846.327 798.61 848.037 803.826C849.809 808.981 850.897 816.297 849.187 823.952Z" fill="#505123"/>
<path d="M1434.43 532.841C1443.17 548.892 1458.93 557.596 1458.93 557.596C1458.93 557.596 1461.01 539.693 1452.12 523.333C1443.26 506.974 1427.03 498.886 1427.03 498.886C1427.03 498.886 1425.72 516.79 1434.43 532.841Z" fill="#1B1B0C"/>
<path d="M1443.88 600.747C1459.62 608.526 1478.58 604.791 1478.58 604.791C1478.58 604.791 1471.96 587.691 1456.01 579.881C1440.09 572.072 1421.28 576.609 1421.28 576.609C1421.28 576.609 1423.02 580.715 1426.69 585.777C1430.39 590.839 1436.02 596.858 1443.88 600.747Z" fill="#1B1B0C"/>
<path d="M1445.94 326.769C1457.25 341.154 1474.26 347.142 1474.26 347.142C1474.26 347.142 1473.33 329.146 1461.79 314.484C1450.29 299.822 1432.94 294.544 1432.94 294.544C1432.94 294.544 1434.65 312.354 1445.94 326.769Z" fill="#505123"/>
<path opacity="0.59" d="M1104.64 665.384C1093.48 666.249 1082.31 667.422 1071.12 667.761C1043.82 668.595 1016.65 664.489 989.66 660.353C985.992 659.797 981.483 658.532 980.768 654.889C980.457 653.284 980.986 651.679 981.328 650.074C982.82 642.944 972.715 633.591 966.59 629.609C973.275 625.01 988.292 633.653 995.785 636.77C1006.45 641.184 1018.67 636.955 1030.14 638.252C1037.26 639.054 1043.95 641.956 1050.88 643.808C1067.27 648.129 1084.55 646.247 1101.5 645.784C1110.79 645.537 1183.33 647.45 1181.87 657.359C1180.53 666.557 1156.13 663.841 1151.28 663.81C1135.73 663.656 1120.15 664.18 1104.64 665.384Z" fill="#394559"/>
<path d="M1112.19 483.084C1113.81 489.875 1131.5 545.097 1141.79 580.718C1145.84 594.732 1148.76 605.689 1149.07 609.486H1175.9C1175.9 609.486 1175.53 597.047 1175.06 580.718C1174.29 555.067 1173.26 519.755 1172.92 507.747C1172.36 488.146 1161.07 466.015 1161.07 466.015L1166.67 431.875L1116.17 445.766C1112.19 460.304 1109.89 473.608 1112.19 483.084Z" fill="#DBA782"/>
<path d="M1169.25 580.716H1175.06C1174.29 555.035 1173.26 519.723 1172.89 507.746C1172.33 488.176 1161.04 466.013 1161.04 466.013L1164.9 442.554L1147.76 437.06L1116.14 445.764C1113.9 454.098 1112.13 461.97 1111.51 469.007C1123.95 472.403 1149.82 470.335 1156.07 478.761C1163.78 489.133 1171.46 535.002 1170.9 557.844C1170.71 566.919 1169.96 574.08 1169.25 580.716Z" fill="#D1866F"/>
<path d="M1175.9 609.486H1149.07L1141.79 580.718H1175.03L1175.9 609.486Z" fill="white"/>
<path d="M1175.9 609.486C1177.11 617.172 1184.82 633.377 1186.81 641.094C1188.8 648.811 1190.45 660.17 1179.91 661.282C1169.37 662.393 1148.29 659.8 1136.45 661.282C1124.6 662.763 1115.37 661.652 1112.07 656.158C1108.77 650.663 1120.74 642.329 1130.94 637.575C1141.14 632.791 1149.07 609.517 1149.07 609.517H1175.9V609.486Z" fill="#3B4150"/>
<path d="M1167.97 609.486H1175.87L1175.81 606.986C1175.78 606.461 1175.78 605.844 1175.75 605.165L1175.03 580.718H1169.22C1168.25 589.978 1167.32 598.25 1167.97 609.486Z" fill="#EFEDED"/>
<path d="M1175.81 606.987L1175.87 609.487H1175.9C1175.9 609.487 1175.87 608.592 1175.81 606.987Z" fill="#D1866F"/>
<path d="M1111.51 654.552C1111.57 655.108 1111.76 655.633 1112.04 656.127C1115.33 661.621 1124.54 662.701 1136.41 661.251C1148.26 659.8 1169.31 662.362 1179.85 661.251C1190.39 660.17 1188.74 648.78 1186.78 641.094C1184.79 633.377 1177.08 617.203 1175.84 609.486H1167.94C1167.97 610.443 1168.04 611.461 1168.13 612.48C1169.78 633.686 1176.96 644.181 1170.93 652.762C1164.9 661.374 1129.05 657.053 1120.56 656.59C1117.95 656.435 1114.71 655.571 1111.51 654.552Z" fill="#2F343F"/>
<path d="M1019.17 580.718C1019.82 594.546 1020.07 606.152 1019.35 612.449H1048.02C1048.02 612.449 1050.82 598.25 1053.96 580.718C1057.56 560.592 1061.7 536.053 1062.66 523.366C1064.5 499.567 1060.83 471.663 1062.66 469.626C1064.5 467.589 1084.65 427.43 1081.6 425.424C1078.55 423.356 1024.86 425.424 1024.86 425.424C1019.97 438.357 1015.06 464.193 1013.88 482.559C1013.01 495.74 1017.49 545.436 1019.17 580.718Z" fill="#DBA782"/>
<path d="M1019.35 612.448H1048.02C1048.02 612.448 1050.82 598.249 1053.96 580.716H1019.14C1019.82 594.545 1020.07 606.151 1019.35 612.448Z" fill="white"/>
<path d="M1048.64 609.486C1047.49 616.493 1048.8 633.377 1050.79 641.094C1052.78 648.811 1054.43 660.17 1043.89 661.282C1033.34 662.393 1018.86 659.8 1007.01 661.282C995.164 662.763 985.93 661.652 982.634 656.158C979.338 650.663 986.925 644.767 997.123 640.014C1007.32 635.229 1019.63 609.517 1019.63 609.517H1048.64V609.486Z" fill="#3B4150"/>
<path d="M1047.83 572.508C1047.09 575.379 1046.34 578.126 1045.69 580.719H1053.96C1057.56 560.594 1061.73 536.054 1062.66 523.337C1064.5 499.538 1060.86 471.634 1062.66 469.627C1063.85 468.331 1072.36 451.724 1077.65 439.223C1072.71 432.957 1067.92 427.833 1067.92 427.833L1058.31 424.499C1042.64 424.715 1024.86 425.394 1024.86 425.394C1021.47 434.346 1018.11 449.378 1015.93 463.917C1031.29 470.739 1055.64 469.072 1059 481.789C1063.04 497.13 1053.99 548.771 1047.83 572.508Z" fill="#D1866F"/>
<path d="M1040 609.489H1048.64C1049.61 604.396 1051.69 593.469 1053.96 580.721H1045.69C1042.77 591.802 1040.62 600.599 1040 609.489Z" fill="#EFEDED"/>
<path d="M982.448 655.883C982.51 655.975 982.541 656.068 982.603 656.16C985.899 661.655 995.133 662.735 1006.98 661.284C1018.83 659.834 1033.31 662.396 1043.85 661.284C1054.39 660.204 1052.75 648.814 1050.79 641.128C1048.8 633.442 1047.49 616.712 1048.61 609.643C1048.64 609.612 1048.64 609.551 1048.64 609.52H1040C1039.94 610.508 1039.87 611.526 1039.84 612.514C1039.66 617.669 1040.09 622.947 1041.21 628.843C1044.97 648.382 1044.01 658.136 1024.36 657.21C1006.73 656.315 992.895 660.358 982.448 655.883Z" fill="#2F343F"/>
<path d="M1090.99 92.1183C1091.8 96.0076 1087.73 120.516 1087.73 120.516C1087.73 120.516 1124.76 119.004 1125.07 116.72C1125.38 114.466 1120.84 92.1183 1120.84 92.1183H1090.99Z" fill="#DBA782"/>
<path d="M1070.94 51.0027C1063.75 75.2953 1071.59 97.952 1073.55 100.545C1075.51 103.138 1090.99 103.138 1090.99 103.138L1125.07 101.533L1119.19 68.8132L1098.33 51.0027H1070.94Z" fill="#DBA782"/>
<path d="M1071.25 48.4087C1071.81 51.3719 1076.47 62.8546 1081.44 74.5225C1087.2 88.1659 1093.38 102.087 1094.1 103.137C1095.4 105.081 1122.49 101.531 1125.07 101.531C1127.68 101.531 1160.17 72.1457 1159.7 60.8174C1159.7 60.663 1159.7 60.5087 1159.67 60.4161C1158.37 49.4273 1141.73 29.0239 1132.93 24.1469C1124.1 19.3007 1094.75 23.19 1091.02 24.1469C1091.02 24.1469 1093.13 20.2576 1091.02 18.3129C1088.87 16.3374 1065.71 20.5663 1071.25 48.4087Z" fill="#684330"/>
<path opacity="0.39" d="M1081.44 74.5213C1087.2 88.1647 1093.38 102.086 1094.1 103.135C1095.4 105.08 1122.49 101.53 1125.07 101.53C1127.68 101.53 1160.17 72.1445 1159.7 60.8162C1139.31 72.268 1089.53 65.508 1086.01 66.4649C1084.68 66.7736 1083.03 70.2307 1081.44 74.5213Z" fill="#684330"/>
<path d="M1078.37 72.3613C1078.24 71.8057 1078.18 71.2501 1078.18 70.7562C1077.93 62.6381 1089.31 63.0394 1090.99 69.1203C1092.79 75.6024 1087.57 90.1718 1082.66 88.8754C1077.77 87.5789 1078.37 72.3613 1078.37 72.3613Z" fill="#DBA782"/>
<path d="M1079.98 74.5833C1079.92 74.3055 1079.89 74.0277 1079.89 73.7807C1079.76 69.7062 1085.45 69.9223 1086.29 72.9782C1087.2 76.2193 1084.58 83.504 1082.13 82.8558C1079.67 82.1767 1079.98 74.5833 1079.98 74.5833Z" fill="#D1866F"/>
<path d="M1016.93 452.369C1018.14 456.32 1079.17 464.87 1082.84 461.567C1086.48 458.264 1102.99 412.92 1102.99 412.92C1102.99 412.92 1105.82 454.962 1108.37 459.592C1110.89 464.191 1172.26 458.265 1174.84 452.369C1176.4 448.819 1180.78 409.34 1179.54 369.799C1178.73 343.438 1175.47 317.015 1167.1 301.242C1146.3 261.855 1051.19 301.242 1051.19 301.242C1047.96 305.1 1044.51 312.57 1041.09 322.17C1033.97 342.049 1027.09 371.033 1022.99 395.851C1016.93 432.675 1015.72 448.418 1016.93 452.369Z" fill="#FCB85B"/>
<path d="M1041.12 322.17C1068.07 354.55 1131.69 371.404 1179.54 369.799C1178.73 343.438 1175.47 317.015 1167.1 301.242C1146.3 261.855 1051.19 301.242 1051.19 301.242C1047.99 305.07 1044.54 312.54 1041.12 322.17Z" fill="#F98D5D"/>
<path d="M1047.43 227.377C1044.97 244.107 1047.43 284.111 1047.43 284.111C1046.81 295.624 1041.33 303.496 1041.92 306.521C1042.55 309.546 1093.82 310.75 1093.82 310.75C1093.82 310.75 1162.19 305.903 1165.83 303.465C1169.5 301.026 1165.83 265.899 1170.71 244.076C1175.59 222.253 1176.8 191.354 1170.71 157.431C1164.61 123.508 1140.21 120.483 1140.21 120.483H1087.72L1047.43 227.377Z" fill="#9D5965"/>
<path d="M926.605 198.823L971.129 629.609H966.621L912.707 198.823H926.605Z" fill="#936767"/>
<path d="M1017.52 207.776C1013.6 212.314 1007.13 213.826 1005.3 215.647C1003.46 217.469 954.029 236.329 950.36 235.063C946.691 233.797 940.597 221.173 938.141 221.45C935.684 221.697 929 225.957 924.709 224.722C920.449 223.519 920.449 228.951 924.709 230.772C928.968 232.594 932.637 235.063 932.637 235.063C932.637 235.063 914.946 233.396 913.112 235.125C911.277 236.853 915.568 241.082 915.568 241.082C915.568 241.082 918.615 258.059 923.496 261.084C928.378 264.109 948.525 261.084 951.572 261.084C954.619 261.084 1025.42 256.238 1031.51 251.392C1037.6 246.546 1050.51 219.074 1051.16 217.376C1051.84 215.709 1017.52 207.776 1017.52 207.776Z" fill="#DBA782"/>
<path d="M1082.84 123.539C1064.5 123.57 1049.88 125.361 1040.12 145.363C1030.36 165.365 1011.42 207.159 1011.42 209.598C1011.42 212.036 1038.88 233.242 1047.12 235.032C1055.36 236.854 1080.39 175.057 1085.86 166.568C1091.39 158.08 1095 123.539 1082.84 123.539Z" fill="#9D5965"/>
<path d="M1048.8 234.693C1063.19 222.315 1078.18 182.187 1078.18 182.187" stroke="#B27481" stroke-miterlimit="10" stroke-linecap="round"/>
<path d="M1140.21 120.514C1141.42 115.051 1142.66 110.822 1122.52 110.822C1102.37 110.822 1081.01 114.464 1079.17 115.668C1077.34 116.872 1079.17 128.385 1079.17 128.385L1140.21 120.514Z" fill="white"/>
<path d="M1102.99 412.953C1110.82 397.056 1120.56 373.01 1120.56 373.01" stroke="#F98D5D" stroke-miterlimit="10" stroke-linecap="round"/>
<path d="M1175.9 154.253C1198.1 177.188 1201.8 205.122 1198.88 220.741C1195.96 236.391 1078.55 241.083 1078.96 236.391C1079.36 231.699 1087.73 147.586 1087.73 147.586H1174.88L1175.9 154.253Z" fill="#7A8234"/>
<path d="M1206.5 328.222C1211.25 351.742 1207.43 389.555 1203.95 390.975C1200.47 392.395 1189.33 390.975 1189.33 390.975C1189.33 390.975 1188.99 338.161 1189.33 331.401C1189.71 324.672 1206.5 328.222 1206.5 328.222Z" fill="#4C3434"/>
<path d="M1055.33 293.094C1051.1 336.802 1050.94 378.874 1055.33 379.584C1059.71 380.294 1070.41 379.584 1070.41 379.584C1070.41 379.584 1074.26 330.721 1074.17 318.065C1074.08 305.41 1055.33 293.094 1055.33 293.094Z" fill="#4C3434"/>
<path d="M1055.86 317.169C1060.52 333.097 1082.63 349.704 1120.62 353.5C1158.62 357.328 1192.26 353.037 1204.79 347.759C1211.25 345.043 1216.17 335.474 1218.78 323.713C1221.17 312.755 1221.55 299.884 1219.21 289.049C1219.21 289.049 1090.31 257.533 1084.21 257.101C1079.18 256.762 1059.87 287.197 1055.98 306.736C1055.2 310.841 1055.05 314.422 1055.86 317.169Z" fill="#7A8234"/>
<path d="M1055.86 317.17C1060.52 333.098 1082.63 349.705 1120.62 353.501C1158.62 357.329 1192.26 353.038 1204.79 347.76C1211.26 345.044 1216.17 335.475 1218.78 323.714L1218.75 323.652C1160.36 340.907 1080.45 320.936 1067.95 309.762C1064.63 306.799 1060.43 306.151 1055.98 306.737C1055.2 310.842 1055.05 314.423 1055.86 317.17Z" fill="#686B2A"/>
<path d="M1075.97 126.595C1064.38 124.372 1052.81 142.337 1054.08 190.058C1055.36 237.748 1047.21 315.689 1059.25 322.078C1071.25 328.468 1083.28 317.417 1084.12 262.473C1084.96 207.498 1098.27 130.855 1075.97 126.595Z" fill="#9A9E49"/>
<path d="M1186.19 123.539C1172.11 114.001 1093.98 114.649 1075.94 126.564C1075.94 126.564 1089.12 136.226 1088.97 158.234C1088.81 180.243 1087.45 192.157 1096.49 194.719C1105.54 197.281 1189.18 198.115 1194.74 189.595C1200.34 181.107 1202.49 134.559 1186.19 123.539Z" fill="#686B2A"/>
<path opacity="0.54" d="M1079.89 123.539C1095.37 130.114 1096.8 169.47 1098.08 179.317C1099.35 189.133 1125.28 188.793 1157 187.003C1188.71 185.212 1192.88 175.304 1193.31 162.37C1193.75 149.437 1188.84 126.472 1171.24 120.514" stroke="#8C8C42" stroke-miterlimit="10" stroke-linecap="round"/>
<path d="M1219.68 207.776C1215.33 199.441 1190.83 197.867 1145.62 199.287C1100.41 200.707 1090.8 201.201 1084.06 210.276C1077.31 219.351 1076 281.364 1081.94 293.093C1087.88 304.823 1212.93 306.737 1219.65 298.125C1226.43 289.543 1227.86 223.425 1219.68 207.776Z" fill="#686B2A"/>
<path d="M1142.01 172.556C1142.01 176.291 1144.19 179.316 1146.86 179.316C1149.54 179.316 1151.71 176.291 1151.71 172.556C1151.71 168.821 1149.54 165.796 1146.86 165.796C1144.19 165.765 1142.01 168.821 1142.01 172.556Z" fill="white"/>
<path d="M1156.97 284.542C1154.29 284.542 1152.12 281.515 1152.12 277.782C1152.12 274.049 1154.29 271.022 1156.97 271.022C1159.64 271.022 1161.82 274.049 1161.82 277.782C1161.82 281.515 1159.64 284.542 1156.97 284.542Z" fill="white"/>
<path d="M1119.1 200.244C1129.57 207.621 1127.65 298.217 1125.81 301.211C1123.98 304.205 1103.67 300.686 1103.49 300.13C1101.53 294.482 1110.11 228.117 1098.08 202.342L1119.1 200.244Z" fill="#4C3434"/>
<path d="M1112.75 236.236H1120.68C1124.32 236.236 1127.27 239.137 1127.27 242.78V259.201C1127.27 262.813 1124.32 265.745 1120.68 265.745H1112.75C1109.12 265.745 1106.16 262.813 1106.16 259.201V242.78C1106.13 239.168 1109.12 236.236 1112.75 236.236ZM1110.11 257.411C1110.11 258.738 1111.2 259.819 1112.54 259.819H1120.9C1122.21 259.819 1123.29 258.738 1123.29 257.411V244.601C1123.29 243.274 1122.21 242.193 1120.9 242.193H1112.54C1111.2 242.193 1110.11 243.274 1110.11 244.601V257.411Z" fill="#F5E3CF"/>
<path d="M1202.3 200.398C1212.78 207.775 1210.85 298.371 1209.02 301.365C1207.18 304.359 1187.44 303.803 1186.97 303.464C1186.5 303.124 1191.82 224.629 1179.76 198.854L1202.3 200.398Z" fill="#4C3434"/>
<path d="M1195.96 236.39H1203.89C1207.52 236.39 1210.48 239.322 1210.48 242.933V259.355C1210.48 262.966 1207.52 265.899 1203.89 265.899H1195.96C1192.32 265.899 1189.37 262.966 1189.37 259.355V242.933C1189.33 239.291 1192.32 236.39 1195.96 236.39ZM1193.31 257.534C1193.31 258.861 1194.4 259.941 1195.74 259.941H1204.1C1205.41 259.941 1206.5 258.861 1206.5 257.534V244.724C1206.5 243.396 1205.41 242.316 1204.1 242.316H1195.74C1194.4 242.316 1193.31 243.396 1193.31 244.724V257.534Z" fill="#F5E3CF"/>
</g>
<defs>
<clipPath id="clip0_54_712">
<rect width="1440" height="851" fill="white"/>
</clipPath>
</defs>
</svg>
