<svg width="146" height="32" viewBox="0 0 146 32" fill="none" xmlns="http://www.w3.org/2000/svg">
<path d="M16 21.6471C12.8812 21.6471 10.353 19.1188 10.353 16C10.353 12.8812 12.8812 10.3529 16 10.3529C19.1188 10.3529 21.6471 12.8812 21.6471 16C21.6471 19.1188 19.1188 21.6471 16 21.6471Z" fill="#AE9AFF"/>
<path d="M5.10548 18.2821C3.48683 18.5623 2.37733 20.0973 2.99867 21.5912C3.86615 23.6768 5.2501 25.5349 7.04429 26.987C9.60985 29.0631 12.8458 30.1725 16.1701 30.1156C19.4945 30.0586 22.689 28.839 25.1793 26.6761C26.9207 25.1636 28.2378 23.2591 29.0306 21.1451C29.5985 19.6309 28.435 18.1348 26.8074 17.9102C25.1798 17.6857 23.7185 18.8487 22.9145 20.2562C22.4787 21.019 21.913 21.7111 21.2353 22.2998C19.8065 23.5408 17.9736 24.2405 16.0663 24.2732C14.1589 24.3058 12.3023 23.6694 10.8303 22.4781C10.132 21.913 9.54208 21.2407 9.07942 20.4932C8.22596 19.1142 6.72414 18.0019 5.10548 18.2821Z" fill="#AE9AFF"/>
<path d="M30.0084 17.4048C30.0805 16.8399 30.1176 16.2644 30.1176 15.6805C30.1176 8.05998 23.797 1.88235 16 1.88235C8.20301 1.88235 1.88232 8.05998 1.88232 15.6805C1.88232 16.4299 1.94345 17.1653 2.06111 17.8824C2.70956 17.0147 3.72163 16.3954 4.8148 16.207C5.99757 16.0031 7.07252 16.2835 7.9814 16.8076C7.92771 16.4394 7.89992 16.0631 7.89992 15.6805C7.89992 11.3082 11.5265 7.76375 16 7.76375C20.4735 7.76375 24.1 11.3082 24.1 15.6805C24.1 15.9687 24.0842 16.2534 24.0535 16.5337C24.9432 15.9788 26.0077 15.6617 27.1972 15.8252C28.2962 15.9761 29.3294 16.5602 30.0084 17.4048Z" fill="#5429FF"/>
<path d="M45.2784 21.5V9.86364H49.4261C50.3314 9.86364 51.0814 10.0284 51.6761 10.358C52.2708 10.6875 52.7159 11.1383 53.0114 11.7102C53.3068 12.2784 53.4545 12.9186 53.4545 13.6307C53.4545 14.3466 53.3049 14.9905 53.0057 15.5625C52.7102 16.1307 52.2633 16.5814 51.6648 16.9148C51.0701 17.2443 50.322 17.4091 49.4205 17.4091H46.5682V15.9205H49.2614C49.8333 15.9205 50.2973 15.822 50.6534 15.625C51.0095 15.4242 51.2708 15.1515 51.4375 14.8068C51.6042 14.4621 51.6875 14.0701 51.6875 13.6307C51.6875 13.1913 51.6042 12.8011 51.4375 12.4602C51.2708 12.1193 51.0076 11.8523 50.6477 11.6591C50.2917 11.4659 49.822 11.3693 49.2386 11.3693H47.0341V21.5H45.2784ZM65.0648 9.86364V21.5H63.4512L57.5364 12.9659H57.4285V21.5H55.6728V9.86364H57.2978L63.2182 18.4091H63.3262V9.86364H65.0648ZM67.7859 21.5V9.86364H75.0018V11.375H69.5416V14.9205H74.4848V16.4261H69.5416V21.5H67.7859ZM76.747 11.375V9.86364H85.7527V11.375H82.122V21.5H80.372V11.375H76.747ZM92.2972 9.86364H94.4278L98.1324 18.9091H98.2687L101.973 9.86364H104.104V21.5H102.434V13.0795H102.326L98.8937 21.483H97.5074L94.0756 13.0739H93.9676V21.5H92.2972V9.86364ZM109.22 21.6932C108.667 21.6932 108.167 21.5909 107.72 21.3864C107.273 21.178 106.919 20.8769 106.657 20.483C106.4 20.089 106.271 19.6061 106.271 19.0341C106.271 18.5417 106.366 18.1364 106.555 17.8182C106.745 17.5 107 17.2481 107.322 17.0625C107.644 16.8769 108.004 16.7367 108.402 16.642C108.799 16.5473 109.205 16.4754 109.618 16.4261C110.14 16.3655 110.565 16.3163 110.89 16.2784C111.216 16.2367 111.453 16.1705 111.601 16.0795C111.748 15.9886 111.822 15.8409 111.822 15.6364V15.5966C111.822 15.1004 111.682 14.7159 111.402 14.4432C111.125 14.1705 110.712 14.0341 110.163 14.0341C109.591 14.0341 109.14 14.161 108.811 14.4148C108.485 14.6648 108.26 14.9432 108.135 15.25L106.538 14.8864C106.728 14.3561 107.004 13.928 107.368 13.6023C107.735 13.2727 108.157 13.0341 108.635 12.8864C109.112 12.7348 109.614 12.6591 110.14 12.6591C110.489 12.6591 110.858 12.7008 111.248 12.7841C111.642 12.8636 112.01 13.0114 112.351 13.2273C112.695 13.4432 112.978 13.7519 113.197 14.1534C113.417 14.5511 113.527 15.0682 113.527 15.7045V21.5H111.868V20.3068H111.799C111.69 20.5265 111.525 20.7424 111.305 20.9545C111.085 21.1667 110.803 21.3428 110.459 21.483C110.114 21.6231 109.701 21.6932 109.22 21.6932ZM109.589 20.3295C110.059 20.3295 110.46 20.2367 110.794 20.0511C111.131 19.8655 111.387 19.6231 111.561 19.3239C111.739 19.0208 111.828 18.697 111.828 18.3523V17.2273C111.767 17.2879 111.65 17.3447 111.476 17.3977C111.305 17.447 111.11 17.4905 110.89 17.5284C110.671 17.5625 110.457 17.5947 110.248 17.625C110.04 17.6515 109.866 17.6742 109.726 17.6932C109.396 17.7348 109.095 17.8049 108.822 17.9034C108.553 18.0019 108.337 18.1439 108.174 18.3295C108.015 18.5114 107.936 18.7538 107.936 19.0568C107.936 19.4773 108.091 19.7955 108.402 20.0114C108.712 20.2235 109.108 20.3295 109.589 20.3295ZM115.95 21.5V12.7727H117.592V14.1591H117.683C117.842 13.6894 118.122 13.3201 118.523 13.0511C118.929 12.7784 119.387 12.642 119.898 12.642C120.004 12.642 120.129 12.6458 120.273 12.6534C120.421 12.661 120.537 12.6705 120.62 12.6818V14.3068C120.552 14.2879 120.431 14.267 120.256 14.2443C120.082 14.2178 119.908 14.2045 119.734 14.2045C119.332 14.2045 118.974 14.2898 118.66 14.4602C118.349 14.6269 118.103 14.8598 117.921 15.1591C117.739 15.4545 117.648 15.7917 117.648 16.1705V21.5H115.95ZM123.813 18.5398L123.801 16.4659H124.097L127.574 12.7727H129.608L125.642 16.9773H125.375L123.813 18.5398ZM122.25 21.5V9.86364H123.949V21.5H122.25ZM127.762 21.5L124.637 17.3523L125.807 16.1648L129.847 21.5H127.762ZM134.718 21.6761C133.859 21.6761 133.118 21.4924 132.497 21.125C131.879 20.7538 131.402 20.233 131.065 19.5625C130.732 18.8883 130.565 18.0985 130.565 17.1932C130.565 16.2992 130.732 15.5114 131.065 14.8295C131.402 14.1477 131.872 13.6155 132.474 13.233C133.08 12.8504 133.788 12.6591 134.599 12.6591C135.092 12.6591 135.569 12.7405 136.031 12.9034C136.493 13.0663 136.908 13.322 137.275 13.6705C137.643 14.0189 137.932 14.4716 138.145 15.0284C138.357 15.5814 138.463 16.2538 138.463 17.0455V17.6477H131.525V16.375H136.798C136.798 15.928 136.707 15.5322 136.525 15.1875C136.343 14.839 136.088 14.5644 135.758 14.3636C135.432 14.1629 135.05 14.0625 134.61 14.0625C134.133 14.0625 133.717 14.1799 133.36 14.4148C133.008 14.6458 132.735 14.9489 132.542 15.3239C132.353 15.6951 132.258 16.0985 132.258 16.5341V17.5284C132.258 18.1117 132.36 18.608 132.565 19.017C132.773 19.4261 133.063 19.7386 133.434 19.9545C133.806 20.1667 134.239 20.2727 134.735 20.2727C135.057 20.2727 135.351 20.2273 135.616 20.1364C135.881 20.0417 136.11 19.9015 136.304 19.7159C136.497 19.5303 136.645 19.3011 136.747 19.0284L138.355 19.3182C138.226 19.7917 137.995 20.2064 137.662 20.5625C137.332 20.9148 136.917 21.1894 136.417 21.3864C135.921 21.5795 135.355 21.6761 134.718 21.6761ZM144.582 12.7727V14.1364H139.814V12.7727H144.582ZM141.093 10.6818H142.792V18.9375C142.792 19.267 142.841 19.5152 142.939 19.6818C143.038 19.8447 143.165 19.9564 143.32 20.017C143.479 20.0739 143.652 20.1023 143.837 20.1023C143.974 20.1023 144.093 20.0928 144.195 20.0739C144.297 20.0549 144.377 20.0398 144.434 20.0284L144.741 21.4318C144.642 21.4697 144.502 21.5076 144.32 21.5455C144.138 21.5871 143.911 21.6098 143.638 21.6136C143.191 21.6212 142.775 21.5417 142.388 21.375C142.002 21.2083 141.689 20.9508 141.451 20.6023C141.212 20.2538 141.093 19.8163 141.093 19.2898V10.6818Z" fill="black"/>
</svg>
