<?xml version="1.0" encoding="utf-8"?>
<!-- Generator: Adobe Illustrator 23.0.5, SVG Export Plug-In . SVG Version: 6.00 Build 0)  -->
<svg version="1.1" id="Layer_1" xmlns="http://www.w3.org/2000/svg" xmlns:xlink="http://www.w3.org/1999/xlink" x="0px" y="0px"
	 viewBox="0 0 16 16" style="enable-background:new 0 0 16 16;" xml:space="preserve">
<style type="text/css">
	.st0{fill:#5D46E2;}
</style>
<g>
	<path class="st0" d="M5.9,3.3c2.3,0,3.4,1.3,3.4,2.9c0,1.1-0.5,2.1-1.7,2.6C7.4,8.9,7.3,9.1,7.4,9.3l1.6,2.8
		c0.1,0.2,1.5,0.5,1.2,0.5H7c-0.1,0-0.2-0.1-0.3-0.2L5,9.3C4.9,9.2,4.8,9.1,4.7,9.1h0c-0.2,0-0.3,0.2-0.3,0.3v2.8
		c0,0.2-0.2,0.3-0.3,0.3H2.4c-0.2,0-0.3-0.2-0.3-0.3V3.7c0-0.2,0.2-0.3,0.3-0.3H5.9z M5.7,5.2H4.7c-0.2,0-0.3,0.2-0.3,0.3v1.6
		c0,0.2,0.2,0.3,0.3,0.3h1.1C6.6,7.5,7,7.1,7,6.4C7,5.7,6.6,5.2,5.7,5.2z"/>
	<path class="st0" d="M10.3,12.7c-2.2,0-3.8-1.5-3.8-3.8C6.5,6.5,8.1,5,10.3,5C12.4,5,14,6.5,14,8.7c0,0,0,0,0,0
		c0,0.4-0.3,0.7-0.7,0.7H8.8c0.1,1,0.7,1.4,1.4,1.4c0.5,0,0.8-0.2,1-0.5c0.1-0.2,0.3-0.3,0.5-0.3h1c0.5,0,0.8,0.6,0.6,1
		C12.7,12.1,11.6,12.7,10.3,12.7z M8.8,8.1h2.8c0-0.8-0.6-1.3-1.4-1.3C9.5,6.9,8.9,7.3,8.8,8.1z"/>
</g>
</svg>
