<svg width="793" height="477" viewBox="0 0 793 477" fill="none" xmlns="http://www.w3.org/2000/svg">
<g id="Group">
<path id="Vector" d="M824.72 207.91C820.495 184.072 811.634 159.935 794.685 142.183C778.205 124.925 753.971 117.195 730.97 113.67C715.705 111.33 698.677 108.901 683.339 109.425C664.475 110.071 646.488 112.823 627.423 111.437C588.966 108.642 551.474 98.7914 514.153 89.6607C447.012 73.24 382.441 65.0297 315.373 88.4416C216.888 122.82 152.714 207.871 122.403 304.965C115.549 326.918 110.345 349.375 106.605 372.057C129.816 372.057 153.022 372.057 176.233 372.057C231.967 372.057 287.696 372.057 343.431 372.057C410.93 372.057 478.423 372.057 545.922 372.057C604.423 372.057 662.928 372.057 721.428 372.057C750.509 372.057 779.591 372.106 808.672 372.033C806.885 364.591 808.917 356.831 810.816 349.419C822.478 303.956 833.048 254.856 824.72 207.91Z" fill="url(#paint0_radial_13_61)"/>
<path id="Vector_2" d="M0.614258 332.156H940.614V476.583H0.614258V332.156Z" fill="url(#paint1_radial_13_61)"/>
<path id="Vector_3" d="M376.125 355.411H198.896" stroke="#0061FE" stroke-width="0.489583" stroke-miterlimit="10"/>
<path id="Vector_4" d="M444.177 347.578H266.948" stroke="#0061FE" stroke-width="0.489583" stroke-miterlimit="10"/>
<path id="Vector_5" d="M644.172 379.401H745.516" stroke="#0061FE" stroke-width="0.489583" stroke-miterlimit="10"/>
<path id="Vector_6" d="M427.531 137.792C427.531 137.792 430.958 164.719 421.656 166.677C412.354 168.635 395.708 169.125 395.708 169.125L391.302 189.687L405.99 222.49L428.021 232.771L456.417 221.51L487.75 185.281L493.625 161.292C493.625 161.292 477.469 166.187 472.573 161.781C467.677 157.375 464.735 133.566 472.573 112.671C480.411 91.7756 461.312 101.562 461.312 101.562L423.615 132.896L427.531 137.792Z" fill="#FFDE99"/>
<path id="Vector_7" d="M427.531 137.792C427.531 137.792 430.958 164.719 421.656 166.677C412.354 168.635 395.708 169.125 395.708 169.125L391.302 189.687L405.99 222.49L428.021 232.771L456.417 221.51L487.75 185.281L493.625 161.292C493.625 161.292 477.469 166.187 472.573 161.781C467.677 157.375 464.735 133.566 472.573 112.671C480.411 91.7756 461.312 101.562 461.312 101.562L423.615 132.896L427.531 137.792Z" fill="url(#paint2_radial_13_61)"/>
<path id="Vector_8" d="M427.531 137.792C427.531 137.792 430.958 164.719 421.656 166.677C412.354 168.635 395.708 169.125 395.708 169.125L391.302 189.687L405.99 222.49L428.021 232.771L456.417 221.51L487.75 185.281L493.625 161.292C493.625 161.292 477.469 166.187 472.573 161.781C467.677 157.375 464.735 133.566 472.573 112.671C480.411 91.7756 461.312 101.562 461.312 101.562L423.615 132.896L427.531 137.792Z" fill="url(#paint3_radial_13_61)"/>
<path id="Vector_9" d="M405.255 72.4322C405.255 72.4322 394.881 125.253 417.177 146.188C417.984 146.947 419.086 147.324 420.192 147.241C426.307 146.785 447.056 144.303 454.948 131.427C464.25 116.25 470.614 110.865 470.614 110.865C470.614 110.865 482.119 122.859 486.036 113.068C489.953 103.276 487.505 91.0364 475.755 91.0364L449.318 46.9739L422.88 49.9114L405.255 72.4322Z" fill="#FFDE99"/>
<path id="Vector_10" d="M442.708 97.1562L452.5 99.1145L442.464 117.229L417.74 140.729C417.74 140.729 414.073 138.384 409.142 134.761C403.551 122.786 402.523 107.491 402.925 95.0461C427.747 91.0217 442.708 97.1562 442.708 97.1562Z" fill="url(#paint4_radial_13_61)"/>
<path id="Vector_11" d="M438.302 55.0521C438.302 55.0521 439.771 93.7291 470.614 97.1562C470.614 97.1562 450.052 92.2604 445.156 64.3541C445.156 64.3541 460.333 99.1146 476 93.7291C480.891 92.045 483.818 95.4721 485.547 99.2614C487.946 104.529 485.894 110.894 480.636 113.317C477.811 114.62 474.335 114.585 470.614 110.865C470.614 110.865 462.781 153.948 477.958 151.5C477.958 151.5 468.166 151.99 470.614 128.979C470.614 128.979 482.854 126.042 495.093 129.469C507.333 132.896 527.896 107.927 518.104 55.0521L498.521 29.1041C498.521 29.1041 447.687 14.3873 422.195 34.3231C420.138 35.9289 417.96 37.3732 415.742 38.7489C410.396 42.0781 399.747 53.4609 400.114 91.2812C400.114 91.2812 399.625 77.5729 407.458 69.25C407.458 69.25 404.54 70.6306 403.796 82.6695C403.796 82.6695 411.864 62.8854 438.302 55.0521Z" fill="#241921"/>
<path id="Vector_12" d="M508.801 26.6562C509.291 25.677 510.27 -5.16673 544.051 1.19786C551.596 2.61765 557.481 5.09004 562.068 8.0716C578.028 18.441 578.322 34.9791 578.322 34.9791L554.822 6.58327C554.822 6.58327 524.958 -7.12506 518.103 17.8437C518.103 17.8437 537.609 -8.63297 567.287 11.0238C575.448 16.4288 581.71 24.2523 585.495 33.2803C591.59 47.8209 604.084 73.3576 615.046 68.7604C615.046 68.7604 606.601 83.2569 591.546 85.4062C574.41 87.8541 548.502 81.8224 535.053 53.4756C533.638 50.494 531.273 48.0363 528.287 46.6312C525.829 45.4758 522.95 45.04 520.556 47.2187C515.171 52.1145 508.806 28.6145 508.806 28.6145V26.6562H508.801Z" fill="#241921"/>
<path id="Vector_13" d="M498.52 29.1041C498.52 29.1041 499.499 20.7812 505.864 20.2916C512.229 19.802 537.197 56.5208 518.104 55.052C518.104 55.052 502.926 39.3853 498.52 29.1041Z" fill="#0061FE"/>
<path id="Vector_14" d="M498.52 29.1041C498.52 29.1041 499.499 20.7812 505.864 20.2916C512.229 19.802 537.197 56.5208 518.104 55.052C518.104 55.052 502.926 39.3853 498.52 29.1041Z" fill="url(#paint5_radial_13_61)"/>
<path id="Vector_15" d="M520.748 41.9508L515.024 46.5529" stroke="#0144B9" stroke-width="0.489583" stroke-miterlimit="10"/>
<path id="Vector_16" d="M517.526 37.946L511.808 42.5481" stroke="#0144B9" stroke-width="0.489583" stroke-miterlimit="10"/>
<path id="Vector_17" d="M510.167 28.7907L504.444 33.3928" stroke="#0144B9" stroke-width="0.489583" stroke-miterlimit="10"/>
<path id="Vector_18" d="M519.367 40.2372L513.644 44.8393" stroke="#0144B9" stroke-width="0.489583" stroke-miterlimit="10"/>
<path id="Vector_19" d="M514.153 33.7502L508.43 38.3523" stroke="#0144B9" stroke-width="0.489583" stroke-miterlimit="10"/>
<path id="Vector_20" d="M514.432 93.4844C514.432 93.4844 508.067 126.776 493.38 120.901" stroke="#0144B9" stroke-width="0.489583" stroke-miterlimit="10"/>
<path id="Vector_21" d="M438.057 49.4218C438.057 49.4218 420.921 50.401 407.702 67.5364" stroke="#0144B9" stroke-width="0.489583" stroke-miterlimit="10"/>
<path id="Vector_22" d="M581.995 211.963C581.995 211.963 546.755 208.179 526.814 209.364C519.847 209.78 513.982 214.705 512.381 221.496C510.163 230.905 506.32 244.844 501.703 251.615C495.902 260.124 500.797 311.124 503.108 332.151H405.985C399.728 318.345 388.115 291.878 383.224 275.115C376.37 251.615 387.141 248.677 388.609 228.604C388.609 228.604 368.536 246.229 362.661 253.084C362.661 253.084 365.109 254.552 364.13 256.511C363.151 258.469 362.661 261.406 362.661 261.406C362.661 261.406 332.307 254.552 325.943 262.386L323.005 257.979L326.922 249.656L331.818 245.25C331.818 245.25 370.495 181.115 383.714 172.792C396.932 164.469 410.734 168.18 410.734 168.18C410.734 168.18 404.766 222.729 429.734 220.281C454.703 217.834 481.508 163.553 481.508 163.553C481.508 163.553 484.078 159.088 493.87 158.599C503.661 158.109 617.734 176.224 633.891 190.911C633.891 190.911 642.214 190.422 643.682 197.276C643.682 197.276 655.922 198.255 652.005 212.453L581.995 211.963Z" fill="#0061FE"/>
<path id="Vector_23" d="M325.943 262.391C325.943 262.391 332.797 302.047 341.61 315.266C341.61 315.266 348.464 308.901 358.255 309.391C358.255 309.391 355.386 277.553 360.248 260.912C360.248 260.912 334.266 254.557 325.943 262.391Z" fill="#FFDE99"/>
<path id="Vector_24" d="M325.943 262.391C325.943 262.391 332.797 302.047 341.61 315.266C341.61 315.266 348.464 308.901 358.255 309.391C358.255 309.391 355.386 277.553 360.248 260.912C360.248 260.912 334.266 254.557 325.943 262.391Z" fill="url(#paint6_radial_13_61)"/>
<path id="Vector_25" d="M358.333 307.638L371.229 299.844C371.229 299.844 381.51 323.344 381.51 330.688C381.51 330.688 378.572 334.604 372.697 320.896L371.229 326.281L363.885 327.26L361.926 325.302L360.947 327.75L358.499 328.24L354.093 326.281L352.135 328.24L346.749 327.75C346.749 327.75 341.364 322.365 341.364 315.021C341.364 307.677 358.333 307.638 358.333 307.638Z" fill="#FFDE99"/>
<path id="Vector_26" d="M367.801 310.614L372.697 320.896L371.229 326.281L363.885 327.26L361.926 325.302L360.947 327.75L358.499 328.239L354.093 326.281L352.135 328.239L346.749 327.75C346.749 327.75 341.364 322.364 341.364 315.021C355.072 307.677 367.801 310.614 367.801 310.614Z" fill="url(#paint7_radial_13_61)"/>
<path id="Vector_27" d="M505.844 243.365C505.653 243.85 505.458 244.325 505.262 244.79C505.223 244.878 505.188 244.961 505.149 245.05C504.953 245.515 504.753 245.97 504.547 246.411C504.518 246.479 504.483 246.543 504.454 246.611C504.239 247.076 504.023 247.527 503.808 247.967C503.671 248.242 503.534 248.506 503.396 248.77C502.985 249.554 502.559 250.293 502.133 250.969C501.991 251.194 501.849 251.414 501.702 251.625C501.619 251.742 501.546 251.874 501.467 252.006C501.453 252.036 501.433 252.065 501.419 252.1C501.345 252.237 501.272 252.379 501.203 252.525C501.193 252.55 501.184 252.574 501.174 252.594C501.11 252.736 501.046 252.878 500.988 253.03C500.973 253.059 500.963 253.093 500.949 253.123C500.885 253.289 500.821 253.465 500.758 253.652C500.743 253.691 500.733 253.73 500.718 253.769C500.66 253.94 500.606 254.122 500.552 254.308C500.547 254.327 500.537 254.352 500.532 254.371C500.474 254.572 500.42 254.782 500.366 254.998C500.351 255.047 500.341 255.101 500.327 255.15C500.273 255.37 500.219 255.595 500.17 255.825C500.165 255.845 500.16 255.864 500.16 255.884C500.111 256.104 500.067 256.334 500.023 256.565C500.013 256.618 500.004 256.672 499.994 256.721C499.95 256.966 499.906 257.221 499.862 257.475C499.852 257.524 499.847 257.573 499.837 257.622C499.798 257.857 499.764 258.097 499.729 258.342C499.725 258.391 499.715 258.435 499.71 258.484C499.671 258.758 499.636 259.037 499.602 259.321C499.592 259.385 499.587 259.448 499.578 259.512C499.543 259.791 499.514 260.075 499.485 260.364C499.485 260.383 499.48 260.398 499.48 260.418C499.45 260.721 499.421 261.03 499.392 261.343C499.387 261.416 499.377 261.485 499.372 261.558C499.348 261.867 499.318 262.185 499.294 262.503C499.289 262.552 499.289 262.601 499.284 262.645C499.264 262.939 499.245 263.233 499.225 263.531C499.22 263.605 499.215 263.673 499.21 263.747C499.191 264.08 499.171 264.413 499.152 264.75C499.147 264.824 499.147 264.897 499.142 264.971C499.127 265.284 499.113 265.597 499.098 265.92C499.098 265.969 499.093 266.023 499.093 266.072C499.078 266.425 499.064 266.787 499.054 267.149C499.049 267.233 499.049 267.316 499.044 267.404C499.034 267.771 499.024 268.143 499.015 268.525C499.015 268.54 499.015 268.559 499.015 268.574C499.005 268.941 499 269.308 498.995 269.685C498.995 269.773 498.99 269.862 498.99 269.955C498.985 270.332 498.98 270.713 498.976 271.1C498.976 271.169 498.976 271.242 498.976 271.311C498.976 271.658 498.971 272.006 498.971 272.354C498.971 272.432 498.971 272.51 498.971 272.593C498.971 272.99 498.971 273.387 498.976 273.788C498.976 273.876 498.976 273.964 498.976 274.052C498.976 274.429 498.98 274.806 498.985 275.188C498.985 275.232 498.985 275.281 498.985 275.325C498.99 275.737 498.995 276.158 499.005 276.574C499.005 276.672 499.01 276.77 499.01 276.868C499.02 277.284 499.024 277.705 499.034 278.131C499.034 278.185 499.039 278.238 499.039 278.287C499.049 278.674 499.059 279.066 499.069 279.462C499.073 279.56 499.073 279.653 499.078 279.751C499.088 280.177 499.103 280.603 499.117 281.034C499.122 281.117 499.122 281.205 499.127 281.288C499.142 281.675 499.152 282.062 499.166 282.449C499.171 282.527 499.171 282.605 499.176 282.684C499.191 283.115 499.211 283.55 499.225 283.986C499.23 284.094 499.235 284.202 499.24 284.309C499.259 284.74 499.274 285.171 499.294 285.607C499.294 285.626 499.294 285.651 499.299 285.67C499.318 286.116 499.338 286.566 499.362 287.017C499.367 287.124 499.372 287.232 499.377 287.345C499.397 287.79 499.421 288.241 499.446 288.686C499.45 288.75 499.45 288.809 499.455 288.872C499.475 289.283 499.499 289.695 499.519 290.106C499.524 290.204 499.529 290.302 499.534 290.4C499.558 290.84 499.583 291.286 499.607 291.731C499.612 291.834 499.622 291.942 499.627 292.045C499.651 292.461 499.676 292.872 499.7 293.288C499.705 293.342 499.705 293.401 499.71 293.455C499.739 293.91 499.764 294.365 499.793 294.821C499.798 294.928 499.808 295.041 499.813 295.149C499.842 295.609 499.871 296.074 499.901 296.534C499.901 296.549 499.901 296.563 499.906 296.578C499.935 297.033 499.964 297.489 499.999 297.944C500.004 298.037 500.013 298.135 500.018 298.228C500.048 298.683 500.082 299.139 500.116 299.594C500.121 299.677 500.126 299.756 500.136 299.839C500.165 300.25 500.195 300.656 500.224 301.068C500.229 301.151 500.234 301.229 500.244 301.312C500.278 301.763 500.312 302.213 500.346 302.659C500.356 302.762 500.361 302.86 500.371 302.962C500.405 303.418 500.439 303.873 500.479 304.323C500.479 304.328 500.479 304.328 500.479 304.333C500.513 304.793 500.552 305.249 500.586 305.704C500.596 305.807 500.601 305.915 500.611 306.017C500.645 306.468 500.684 306.918 500.718 307.364C500.723 307.403 500.723 307.442 500.728 307.481C500.762 307.912 500.802 308.338 500.836 308.764C500.841 308.842 500.851 308.921 500.856 308.994C500.895 309.44 500.929 309.88 500.968 310.321C500.973 310.404 500.983 310.487 500.988 310.566C501.022 310.977 501.061 311.388 501.095 311.799C501.1 311.838 501.1 311.878 501.105 311.922C501.144 312.372 501.184 312.818 501.223 313.263C501.228 313.337 501.237 313.405 501.242 313.479C501.321 314.375 501.404 315.256 501.482 316.127C501.487 316.191 501.492 316.255 501.502 316.313C501.541 316.739 501.58 317.165 501.619 317.586C501.624 317.64 501.629 317.694 501.634 317.748C501.673 318.154 501.712 318.551 501.747 318.952C501.751 318.986 501.751 319.016 501.756 319.05C501.796 319.471 501.84 319.887 501.879 320.299C501.884 320.362 501.893 320.426 501.898 320.494C501.938 320.896 501.977 321.292 502.016 321.684C502.016 321.694 502.016 321.699 502.016 321.708C502.055 322.115 502.094 322.516 502.138 322.918C502.143 322.977 502.148 323.035 502.158 323.094C502.236 323.892 502.319 324.675 502.398 325.439C502.403 325.478 502.407 325.517 502.407 325.552C502.447 325.934 502.486 326.315 502.525 326.688C502.525 326.707 502.53 326.727 502.53 326.751C502.569 327.128 502.608 327.5 502.647 327.867C502.647 327.872 502.647 327.877 502.647 327.887C502.687 328.244 502.721 328.597 502.76 328.945C502.765 328.998 502.77 329.047 502.775 329.101C502.848 329.787 502.922 330.452 502.99 331.094C502.995 331.128 502.995 331.162 503 331.192C503.034 331.52 503.068 331.843 503.108 332.156H405.984C405.96 332.102 405.935 332.048 405.911 331.995C405.769 331.681 405.622 331.358 405.475 331.035C405.426 330.922 405.372 330.81 405.318 330.692C405.147 330.31 404.971 329.919 404.789 329.522C404.736 329.4 404.682 329.277 404.623 329.155C404.491 328.856 404.354 328.553 404.217 328.244C404.143 328.083 404.07 327.916 403.996 327.75C403.825 327.368 403.649 326.976 403.472 326.585C403.389 326.399 403.306 326.213 403.223 326.022C403.105 325.757 402.988 325.493 402.87 325.229C402.767 325.003 402.67 324.773 402.567 324.543C402.439 324.254 402.312 323.965 402.185 323.677C402.043 323.349 401.896 323.021 401.749 322.693C401.641 322.448 401.534 322.203 401.426 321.953C401.309 321.689 401.191 321.42 401.074 321.15C400.98 320.935 400.883 320.72 400.79 320.504C400.594 320.054 400.393 319.593 400.192 319.133C400.094 318.913 400.001 318.693 399.903 318.472C399.781 318.183 399.654 317.9 399.526 317.611C399.438 317.405 399.345 317.195 399.257 316.989C399.032 316.47 398.807 315.946 398.582 315.417C398.503 315.231 398.42 315.045 398.342 314.859C398.205 314.536 398.063 314.213 397.926 313.885C397.852 313.714 397.779 313.547 397.705 313.376C397.455 312.788 397.206 312.201 396.951 311.608C396.878 311.442 396.809 311.275 396.736 311.104C396.589 310.761 396.442 310.414 396.3 310.066C396.232 309.91 396.168 309.748 396.099 309.591C395.84 308.97 395.575 308.348 395.316 307.721C395.247 307.56 395.184 307.403 395.115 307.241C394.968 306.889 394.822 306.536 394.675 306.184C394.606 306.017 394.538 305.851 394.469 305.689C394.21 305.058 393.95 304.426 393.691 303.795C393.627 303.638 393.563 303.481 393.5 303.325C393.353 302.967 393.206 302.61 393.064 302.248C392.995 302.086 392.932 301.92 392.863 301.758C392.609 301.131 392.354 300.5 392.104 299.873C392.036 299.707 391.967 299.535 391.904 299.369C391.762 299.016 391.62 298.664 391.483 298.311C391.414 298.135 391.345 297.964 391.277 297.787C391.037 297.175 390.792 296.563 390.557 295.956C390.489 295.78 390.42 295.604 390.347 295.423C390.215 295.085 390.082 294.742 389.95 294.404C389.877 294.209 389.798 294.018 389.725 293.822C389.505 293.244 389.284 292.671 389.064 292.098C388.991 291.908 388.917 291.712 388.844 291.521C388.721 291.193 388.599 290.87 388.477 290.547C388.398 290.341 388.32 290.13 388.246 289.925C388.051 289.406 387.86 288.892 387.674 288.378C387.59 288.148 387.502 287.917 387.419 287.687C387.306 287.384 387.199 287.085 387.091 286.787C387.008 286.561 386.929 286.336 386.851 286.116C386.685 285.656 386.523 285.205 386.366 284.75C386.273 284.49 386.18 284.231 386.092 283.971C385.994 283.692 385.896 283.413 385.803 283.134C385.725 282.904 385.642 282.669 385.564 282.439C385.436 282.062 385.309 281.685 385.182 281.313C385.079 281.009 384.976 280.706 384.878 280.402C384.795 280.148 384.712 279.893 384.628 279.639C384.55 279.394 384.472 279.154 384.393 278.914C384.315 278.674 384.242 278.434 384.163 278.199C385.49 278.953 386.719 279.457 390.817 279.79C408.931 281.259 408.931 273.426 432.921 278.322C456.911 283.217 478.452 282.728 482.369 254.332C486.183 226.685 500.483 200.967 530.348 199.009C560.213 197.051 588.966 206.172 588.966 206.172L584.427 211.998L582.004 211.983C582.004 211.983 581.989 211.983 581.97 211.978C581.96 211.978 581.95 211.978 581.935 211.973C581.921 211.973 581.906 211.968 581.886 211.968C581.867 211.968 581.847 211.963 581.828 211.963C581.798 211.959 581.759 211.959 581.72 211.954C581.691 211.949 581.661 211.949 581.627 211.944C581.598 211.939 581.563 211.939 581.529 211.934C581.48 211.929 581.436 211.924 581.387 211.919C581.304 211.91 581.211 211.9 581.113 211.89C581.084 211.885 581.049 211.885 581.015 211.88C580.927 211.87 580.834 211.861 580.736 211.851C580.707 211.846 580.672 211.846 580.638 211.841C580.535 211.831 580.432 211.821 580.32 211.807C580.276 211.802 580.232 211.797 580.183 211.792C580.08 211.782 579.977 211.773 579.864 211.763C579.801 211.758 579.737 211.748 579.669 211.743C579.532 211.728 579.39 211.714 579.238 211.699C579.204 211.694 579.179 211.694 579.145 211.689C578.959 211.67 578.768 211.65 578.567 211.635C578.508 211.631 578.445 211.626 578.381 211.616C578.234 211.601 578.082 211.587 577.931 211.572C577.857 211.567 577.779 211.557 577.701 211.552C577.534 211.538 577.363 211.518 577.191 211.503C577.137 211.498 577.079 211.493 577.025 211.489C576.829 211.469 576.623 211.449 576.413 211.43C576.359 211.425 576.305 211.42 576.251 211.415C575.992 211.391 575.723 211.366 575.448 211.342C575.444 211.342 575.434 211.342 575.429 211.342C575.179 211.317 574.92 211.298 574.66 211.273C574.562 211.263 574.459 211.254 574.357 211.244C574.161 211.224 573.96 211.21 573.754 211.19C573.661 211.18 573.573 211.175 573.48 211.165C573.265 211.146 573.045 211.126 572.819 211.107C572.731 211.097 572.643 211.092 572.555 211.082C572.281 211.058 572.002 211.033 571.713 211.009C571.674 211.004 571.635 211.004 571.595 210.999C571.272 210.97 570.944 210.945 570.611 210.916C570.523 210.906 570.435 210.901 570.347 210.891C570.097 210.872 569.848 210.847 569.588 210.828C569.475 210.818 569.363 210.808 569.255 210.798C569.01 210.779 568.761 210.759 568.511 210.74C568.403 210.73 568.296 210.72 568.188 210.715C567.924 210.695 567.659 210.671 567.39 210.651C567.287 210.642 567.184 210.637 567.081 210.627C566.347 210.568 565.598 210.509 564.829 210.456C564.722 210.446 564.619 210.441 564.511 210.431C564.237 210.412 563.968 210.392 563.689 210.372C563.552 210.363 563.41 210.353 563.268 210.343C563.003 210.323 562.739 210.304 562.47 210.284C562.337 210.274 562.205 210.265 562.073 210.255C561.76 210.23 561.441 210.211 561.123 210.186C561.04 210.181 560.957 210.177 560.874 210.167C560.467 210.137 560.061 210.113 559.65 210.083C559.566 210.079 559.483 210.074 559.4 210.069C559.072 210.049 558.739 210.025 558.406 210.005C558.279 209.995 558.151 209.99 558.029 209.981C557.74 209.961 557.446 209.942 557.158 209.927C557.011 209.917 556.869 209.907 556.722 209.897C556.428 209.878 556.134 209.863 555.836 209.844C555.708 209.834 555.576 209.829 555.449 209.819C550.524 209.53 545.373 209.3 540.438 209.202C540.061 209.192 539.689 209.188 539.312 209.183C539.302 209.183 539.293 209.183 539.288 209.183C538.798 209.173 538.314 209.168 537.829 209.163C537.711 209.163 537.589 209.163 537.471 209.158C536.487 209.148 535.513 209.148 534.558 209.153C534.441 209.153 534.328 209.153 534.211 209.153C533.261 209.158 532.326 209.173 531.41 209.197C531.298 209.202 531.185 209.202 531.073 209.207C530.162 209.232 529.276 209.261 528.414 209.3C528.306 209.305 528.199 209.31 528.096 209.315C527.665 209.334 527.239 209.359 526.823 209.383C525.08 209.486 523.411 209.873 521.854 210.5C521.496 210.642 521.144 210.803 520.801 210.975C520.757 210.999 520.708 211.019 520.664 211.038C520.336 211.2 520.018 211.376 519.704 211.562C519.651 211.596 519.592 211.631 519.538 211.66C519.23 211.846 518.931 212.047 518.637 212.252C518.588 212.287 518.539 212.321 518.49 212.36C518.192 212.575 517.898 212.801 517.614 213.041C517.589 213.06 517.565 213.085 517.54 213.104C517.261 213.344 516.987 213.589 516.723 213.848C516.698 213.873 516.679 213.892 516.654 213.912C516.39 214.171 516.14 214.441 515.896 214.72C515.856 214.764 515.817 214.808 515.778 214.857C515.543 215.131 515.318 215.41 515.102 215.704C515.063 215.758 515.024 215.807 514.985 215.861C514.769 216.154 514.564 216.458 514.368 216.771C514.344 216.815 514.314 216.859 514.29 216.898C514.089 217.227 513.893 217.564 513.717 217.907C513.546 218.245 513.384 218.592 513.237 218.945C513.193 219.048 513.154 219.155 513.11 219.258C513.002 219.523 512.904 219.787 512.816 220.061C512.777 220.169 512.743 220.277 512.708 220.389C512.591 220.761 512.483 221.133 512.395 221.515C512.302 221.907 512.209 222.308 512.111 222.71C512.087 222.813 512.062 222.915 512.038 223.018C511.94 223.425 511.842 223.836 511.734 224.252C511.729 224.267 511.729 224.281 511.724 224.291C511.621 224.707 511.514 225.128 511.406 225.554C511.377 225.662 511.352 225.77 511.323 225.877C511.098 226.749 510.867 227.645 510.623 228.551C510.593 228.663 510.559 228.781 510.53 228.893C510.285 229.804 510.03 230.724 509.761 231.65C509.727 231.762 509.697 231.88 509.663 231.992C509.531 232.457 509.394 232.927 509.252 233.393C509.046 234.088 508.831 234.788 508.615 235.483C508.4 236.178 508.175 236.873 507.95 237.559C507.724 238.244 507.489 238.93 507.254 239.605V239.61C507.019 240.286 506.779 240.952 506.535 241.608C506.339 242.132 506.138 242.646 505.937 243.155C505.903 243.218 505.874 243.292 505.844 243.365Z" fill="url(#paint8_radial_13_61)"/>
<path id="Vector_28" d="M574.362 372.072H713.981C717.066 372.072 719.567 369.57 719.567 366.486V224.448H568.776V366.486C568.776 369.57 571.277 372.072 574.362 372.072Z" fill="#FB8F8F"/>
<path id="Vector_29" d="M505.086 224.678H568.776V366.481C568.776 369.565 571.278 372.067 574.362 372.067H646.292C645.788 372.214 645.259 372.297 644.706 372.297H505.086C502.002 372.297 499.5 369.795 499.5 366.711V230.264C499.5 227.18 502.002 224.678 505.086 224.678Z" fill="#EECFF8"/>
<path id="Vector_30" d="M501.634 237.358C501.634 237.358 492.646 245.5 490.198 249.906C487.75 254.312 487.75 259.698 485.791 267.042C485.791 267.042 492.646 266.062 496.562 252.354C500.479 238.646 501.634 237.358 501.634 237.358Z" fill="url(#paint9_radial_13_61)"/>
<path id="Vector_31" opacity="0.57" d="M581.26 235.708L568.775 237.358V230.44L579.301 231.302L581.26 235.708Z" fill="url(#paint10_radial_13_61)"/>
<path id="Vector_32" d="M594.479 255.781H745.271L719.323 224.448H568.531L594.479 255.781Z" fill="#F9C1DA"/>
<path id="Vector_33" d="M406.205 332.646C400.364 319.78 389.53 295.173 384.159 278.18C385.486 278.934 386.715 279.438 390.812 279.771C408.927 281.24 408.927 273.406 432.917 278.302C456.906 283.198 478.448 282.708 482.364 254.312C486.178 226.666 500.479 200.948 530.344 198.99C560.208 197.031 588.961 206.152 588.961 206.152L584.423 211.978L582 211.964C582 211.964 568.913 210.558 554.177 209.726C552.664 209.643 551.136 209.56 549.604 209.491C548.835 209.457 548.067 209.423 547.303 209.393C545.002 209.3 542.701 209.227 540.444 209.183C540.067 209.173 539.695 209.168 539.318 209.163C534.838 209.095 530.559 209.144 526.824 209.364C525.081 209.467 523.411 209.853 521.854 210.48C518.359 211.89 515.455 214.514 513.722 217.892C513.145 219.018 512.694 220.228 512.396 221.501C511.563 225.03 510.506 229.197 509.262 233.383C509.057 234.078 508.841 234.778 508.626 235.473C508.41 236.169 508.185 236.864 507.96 237.549C507.735 238.239 507.5 238.92 507.265 239.596C507.03 240.271 506.79 240.937 506.545 241.593C505.688 243.889 504.778 246.053 503.828 247.963C503.284 249.054 502.726 250.063 502.153 250.964C502.011 251.189 501.869 251.409 501.723 251.62C499.701 254.582 498.981 262.694 498.991 272.897C498.971 292.04 501.605 318.82 503.123 332.646H406.205Z" fill="url(#paint11_radial_13_61)"/>
<path id="Vector_34" d="M533.77 225.427H566.572L568.775 230.323V237.667C568.775 237.667 543.072 238.156 532.791 249.417C522.51 260.677 516.145 312.573 499.499 308.656V253.128L533.77 225.427Z" fill="url(#paint12_radial_13_61)"/>
<path id="Vector_35" d="M583.219 242.073L568.531 224.448H649.312C649.312 224.448 660.083 243.052 583.219 242.073Z" fill="url(#paint13_radial_13_61)"/>
<path id="Vector_36" d="M643.564 203.621C647.598 204.169 650.932 207.166 651.73 211.156C652.45 214.769 652.078 219.748 648.333 225.917C640.348 239.072 572.863 229.686 536.272 236.257C533.418 236.771 530.877 238.391 529.188 240.751C524.919 246.709 516.689 258.831 514.187 267.042C510.76 278.302 506.843 294.458 504.395 300.823C504.395 300.823 502.682 301.557 502.192 296.172V275.12L498.275 288.338L496.317 301.068C496.317 301.068 493.869 301.068 491.911 295.682C491.911 295.682 489.953 297.151 488.973 290.786V282.953L486.036 276.099L489.953 253.578C489.953 253.578 504.865 230.538 511.362 225.657C517.859 220.776 557.515 214.901 587.38 206.578C610.199 200.218 633.728 202.289 643.564 203.621Z" fill="#FFDE99"/>
<path id="Vector_37" d="M525.389 246.229C525.389 246.229 525.384 246.229 525.389 246.229C519.998 239.963 515.293 232.697 512.948 224.737C522.75 220.037 559.371 214.387 587.38 206.578C610.199 200.218 633.728 202.289 643.564 203.621C647.598 204.169 650.932 207.166 651.73 211.156C652.45 214.769 652.078 219.748 648.333 225.917C640.759 238.391 579.659 230.592 542.162 235.361C535.65 236.188 529.795 239.738 526.103 245.167C525.868 245.515 525.628 245.867 525.389 246.229Z" fill="url(#paint14_radial_13_61)"/>
<path id="Vector_38" d="M496.317 301.068C496.317 301.068 493.869 301.068 491.911 295.682C491.911 295.682 489.953 297.151 488.974 290.786V282.953L486.036 276.099L489.635 255.801C489.635 255.801 500.968 263.615 507.333 261.656L501.948 274.875L501.82 276.373L498.276 288.339L496.317 301.068Z" fill="url(#paint15_radial_13_61)"/>
<path id="Vector_39" d="M349.197 249.906C365.354 247.458 388.854 212.208 388.854 212.208V228.365L388.584 228.893C388.594 228.8 388.599 228.707 388.609 228.609C388.609 228.609 368.536 246.234 362.661 253.088C362.661 253.088 365.109 254.557 364.13 256.516C363.15 258.474 362.661 261.411 362.661 261.411C362.661 261.411 360.688 260.966 357.643 260.432C357.623 259.154 356.996 257.47 354.583 255.781C349.687 252.354 329.614 255.781 329.614 255.781C329.614 255.781 333.041 252.354 349.197 249.906Z" fill="url(#paint16_radial_13_61)"/>
<path id="Vector_40" d="M514.677 166.187C514.677 166.187 488.239 159.823 483.833 169.615" stroke="#0061FE" stroke-width="0.489583" stroke-miterlimit="10"/>
<path id="Vector_41" d="M399.869 170.838C399.869 170.838 387.14 173.286 381.265 179.651" stroke="#0061FE" stroke-width="0.489583" stroke-miterlimit="10"/>
<path id="Vector_42" d="M432.887 266.219C432.887 266.219 446.365 273.617 458.159 266.41" stroke="#0061FE" stroke-width="0.489583" stroke-miterlimit="10"/>
<path id="Vector_43" d="M522.755 40.6093C522.755 40.6093 530.589 36.2031 542.339 55.2968C554.245 74.6452 568.776 74.8802 582.484 73.4114" stroke="#0061FE" stroke-width="0.489583" stroke-miterlimit="10"/>
<path id="Vector_44" d="M161.996 135.099H178.265L173.114 118.835H156.845L161.996 135.099Z" stroke="#0061FE" stroke-width="0.489583" stroke-miterlimit="10"/>
<path id="Vector_45" d="M238.444 161.468C236.457 158.991 232.706 157.874 230.675 159.152C229.7 159.764 229.137 160.802 228.251 161.512C226.998 162.52 225.088 162.824 223.135 162.325C221.177 161.83 219.204 160.538 217.843 158.868" stroke="#FA404B" stroke-width="0.489583" stroke-miterlimit="10"/>
<path id="Vector_46" d="M151.225 85.651H167.494L162.343 69.387H146.074L151.225 85.651Z" fill="url(#paint17_radial_13_61)"/>
<path id="Vector_47" d="M157.766 106.302H174.03L168.879 90.0328H152.615L157.766 106.302Z" fill="url(#paint18_radial_13_61)"/>
<path id="Vector_48" d="M164.301 126.947H180.565L175.415 110.678H159.151L164.301 126.947Z" fill="url(#paint19_radial_13_61)"/>
<path id="Vector_49" d="M161.09 77.465L159.372 81.7636L149.056 73.1665" stroke="white" stroke-width="0.489583" stroke-miterlimit="10"/>
<path id="Vector_50" d="M217 149.052H279.505C281.596 149.052 282.79 147.358 282.174 145.267L272.024 110.918C271.408 108.828 269.214 107.134 267.124 107.134H204.619C202.528 107.134 201.334 108.828 201.95 110.918L212.099 145.267C212.716 147.358 214.91 149.052 217 149.052Z" fill="#FB8F8F"/>
<path id="Vector_51" d="M202.098 137.792H267.418C269.508 137.792 270.703 136.098 270.086 134.007L259.443 97.9737C258.826 95.8832 256.632 94.1892 254.542 94.1892H189.222C187.131 94.1892 185.937 95.8832 186.553 97.9737L197.197 134.007C197.814 136.098 200.007 137.792 202.098 137.792Z" stroke="#FB8F8F" stroke-width="0.489583" stroke-miterlimit="10"/>
<path id="Vector_52" d="M210.445 139.667H280.514L278.482 132.783H208.408L210.445 139.667Z" fill="url(#paint20_linear_13_61)"/>
<path id="Vector_53" d="M257.181 123.927H265.141C266.223 123.927 266.845 123.05 266.522 121.963L264.97 116.705C264.652 115.623 263.511 114.742 262.429 114.742H254.468C253.386 114.742 252.765 115.618 253.088 116.705L254.64 121.963C254.958 123.05 256.099 123.927 257.181 123.927Z" fill="url(#paint21_radial_13_61)"/>
<path id="Vector_54" d="M261.729 114.742L262.987 119.006L261.837 121.63L262.512 123.927" stroke="#F9C1DA" stroke-width="0.489583" stroke-miterlimit="10"/>
<path id="Vector_55" d="M261.837 121.631L258.899 119.006H253.769" stroke="#F9C1DA" stroke-width="0.489583" stroke-miterlimit="10"/>
<path id="Vector_56" d="M255.687 114.742L256.95 119.006" stroke="#F9C1DA" stroke-width="0.489583" stroke-miterlimit="10"/>
<path id="Vector_57" d="M217.001 149.052C214.91 149.052 212.717 147.358 212.1 145.267L201.951 110.918C201.334 108.828 202.529 107.134 204.619 107.134H215.777L247.051 149.052H217.001Z" fill="url(#paint22_radial_13_61)"/>
<path id="Vector_58" d="M189.378 220.531H327.842L295.055 118.698H156.591L189.378 220.531Z" fill="url(#paint23_radial_13_61)"/>
<path id="Vector_59" d="M187.39 184.057H305.38L301.953 174.755H183.963L187.39 184.057Z" stroke="white" stroke-width="0.489583" stroke-miterlimit="10"/>
<path id="Vector_60" d="M192.776 196.786H310.766L307.339 187.484H189.349L192.776 196.786Z" stroke="white" stroke-width="0.489583" stroke-miterlimit="10"/>
<path id="Vector_61" d="M197.182 209.515H315.172L311.745 200.213H193.755L197.182 209.515Z" stroke="white" stroke-width="0.489583" stroke-miterlimit="10"/>
<path id="Vector_62" d="M196.79 336.097H442.977C444.25 336.097 445.283 335.064 445.283 333.791V330.462C445.283 329.189 444.25 328.156 442.977 328.156H196.79C195.517 328.156 194.484 329.189 194.484 330.462V333.791C194.484 335.064 195.517 336.097 196.79 336.097Z" fill="#FB8F8F"/>
<path id="Vector_63" d="M196.791 336.097H343.715C344.988 336.097 346.021 335.064 346.021 333.791V330.462C346.021 329.189 344.988 328.156 343.715 328.156H196.786C195.513 328.156 194.48 329.189 194.48 330.462V333.791C194.485 335.064 195.518 336.097 196.791 336.097Z" fill="#F9C1DA"/>
<path id="Vector_64" d="M160.257 203.748H302.442C304.357 203.748 306.06 204.977 306.658 206.798L344.096 320.342C345.041 323.216 342.901 326.173 339.881 326.173H197.691C195.777 326.173 194.073 324.945 193.476 323.123L156.037 209.579C155.092 206.705 157.232 203.748 160.257 203.748Z" fill="#EECFF8"/>
<path id="Vector_65" d="M362.466 334.11H374.578C375.253 334.11 375.802 333.561 375.802 332.886V332.024C375.802 331.348 375.253 330.8 374.578 330.8H362.466C361.79 330.8 361.242 331.348 361.242 332.024V332.886C361.242 333.561 361.79 334.11 362.466 334.11Z" stroke="#0061FE" stroke-width="0.489583" stroke-miterlimit="10"/>
<path id="Vector_66" d="M203.978 334.443H216.09C216.766 334.443 217.314 333.894 217.314 333.219V332.357C217.314 331.681 216.766 331.133 216.09 331.133H203.978C203.302 331.133 202.754 331.681 202.754 332.357V333.219C202.754 333.894 203.302 334.443 203.978 334.443Z" stroke="#0061FE" stroke-width="0.489583" stroke-miterlimit="10"/>
<path id="Vector_67" d="M386.622 334.443H398.734C399.41 334.443 399.958 333.894 399.958 333.219V332.357C399.958 331.681 399.41 331.133 398.734 331.133H386.622C385.946 331.133 385.398 331.681 385.398 332.357V333.219C385.398 333.894 385.946 334.443 386.622 334.443Z" stroke="#0061FE" stroke-width="0.489583" stroke-miterlimit="10"/>
<path id="Vector_68" d="M353.531 334.443H354.392C355.068 334.443 355.616 333.894 355.616 333.219V332.357C355.616 331.681 355.068 331.133 354.392 331.133H353.531C352.855 331.133 352.307 331.681 352.307 332.357V333.219C352.307 333.894 352.855 334.443 353.531 334.443Z" stroke="#0061FE" stroke-width="0.489583" stroke-miterlimit="10"/>
<path id="Vector_69" d="M157.648 204.6C158.373 204.071 159.264 203.748 160.258 203.748H302.443C304.357 203.748 306.061 204.977 306.658 206.798L343.656 319.006L157.648 204.6Z" fill="url(#paint24_linear_13_61)"/>
<path id="Vector_70" d="M181.54 212.419L226.542 240.212" stroke="white" stroke-width="0.489583" stroke-miterlimit="10"/>
<path id="Vector_71" d="M713.448 282.885H840.548V371.719H713.448V282.885Z" fill="#DEF4FF"/>
<path id="Vector_72" d="M653.718 266.386H759.635V372.302H653.718V266.386Z" fill="#FFDE99"/>
<path id="Vector_73" d="M687.823 266.386H793.739V372.302H687.823V266.386Z" fill="#F1D23C"/>
<path id="Vector_74" d="M751.611 266.386H769.667V298.483H751.611V266.386Z" fill="#FB8F8F"/>
<path id="Vector_75" d="M476.979 314.042H572.938V381.114H476.979V314.042Z" fill="#F2F6FF"/>
<path id="Vector_76" d="M524.958 314.042H620.916V381.114H524.958V314.042Z" fill="url(#paint25_radial_13_61)"/>
<path id="Vector_77" d="M524.958 314.042L499.5 334.11L476.979 314.042" stroke="#0061FE" stroke-width="0.489583" stroke-miterlimit="10"/>
<path id="Vector_78" d="M525.203 381.359L499.745 366.672L477.224 381.359" stroke="#0061FE" stroke-width="0.489583" stroke-miterlimit="10"/>
<path id="Vector_79" d="M499.744 333.87V366.672" stroke="#0061FE" stroke-width="0.489583" stroke-miterlimit="10"/>
<path id="Vector_80" d="M775.463 109.376C777.901 112.593 777.803 117.484 775.233 120.597C772.266 124.191 766.881 125.146 764.08 128.867C761.946 131.701 761.852 135.907 763.86 138.834" stroke="#0061FE" stroke-width="0.489583" stroke-miterlimit="10"/>
<path id="Vector_81" d="M314.927 44.0364C312.9 44.0364 311.255 42.3924 311.255 40.3645C311.255 38.3366 312.9 36.6926 314.927 36.6926C316.954 36.6926 318.599 38.3366 318.599 40.3645C318.599 42.3924 316.954 44.0364 314.927 44.0364Z" stroke="#0061FE" stroke-width="0.489583" stroke-miterlimit="10"/>
<path id="Vector_82" d="M646.862 144.335L651.59 145.607L650.317 150.335L645.59 149.062L646.862 144.335Z" stroke="#FA404B" stroke-width="0.489583" stroke-miterlimit="10"/>
<path id="Vector_83" d="M121.067 171.756L125.796 173.029L124.523 177.756L119.794 176.484L121.067 171.756Z" stroke="#0061FE" stroke-width="0.489583" stroke-miterlimit="10"/>
<path id="Vector_84" d="M273.557 395.068C273.557 395.068 255.932 375.484 230.473 386.255" stroke="#FA404B" stroke-width="0.489583" stroke-miterlimit="10"/>
<path id="Vector_85" d="M729.848 31.3073L737.682 43.0573" stroke="#FA404B" stroke-width="0.489583" stroke-miterlimit="10"/>
<path id="Vector_86" d="M776.849 395.068L769.505 400.453" stroke="#FA404B" stroke-width="0.489583" stroke-miterlimit="10"/>
<path id="Vector_87" d="M189.006 275.521C187.797 281.244 182.652 285.905 176.84 286.552C174.706 286.787 172.542 286.537 170.407 286.782C166.471 287.237 162.779 289.484 160.566 292.769" stroke="#0061FE" stroke-width="0.489583" stroke-miterlimit="10"/>
</g>
<defs>
<radialGradient id="paint0_radial_13_61" cx="0" cy="0" r="1" gradientUnits="userSpaceOnUse" gradientTransform="translate(615.667 19.639) rotate(166.185) scale(488.808 298.131)">
<stop stop-color="#EECFF8"/>
<stop offset="0.9011" stop-color="white" stop-opacity="0"/>
</radialGradient>
<radialGradient id="paint1_radial_13_61" cx="0" cy="0" r="1" gradientUnits="userSpaceOnUse" gradientTransform="translate(476.551 291.164) rotate(180) scale(333.733 171.406)">
<stop offset="0.3362" stop-color="#DEF4FF"/>
<stop offset="0.5609" stop-color="#E4F6FF" stop-opacity="0.6615"/>
<stop offset="0.8543" stop-color="#F4FBFF" stop-opacity="0.2196"/>
<stop offset="1" stop-color="white" stop-opacity="0"/>
</radialGradient>
<radialGradient id="paint2_radial_13_61" cx="0" cy="0" r="1" gradientUnits="userSpaceOnUse" gradientTransform="translate(424.814 142.765) rotate(180) scale(52.2709)">
<stop stop-color="#FA404B"/>
<stop offset="0.025" stop-color="#FA484F" stop-opacity="0.975"/>
<stop offset="0.1916" stop-color="#FC7565" stop-opacity="0.8084"/>
<stop offset="0.3589" stop-color="#FD9B78" stop-opacity="0.6411"/>
<stop offset="0.5244" stop-color="#FEB886" stop-opacity="0.4756"/>
<stop offset="0.6876" stop-color="#FECD91" stop-opacity="0.3124"/>
<stop offset="0.8474" stop-color="#FFDA97" stop-opacity="0.1526"/>
<stop offset="1" stop-color="#FFDE99" stop-opacity="0"/>
</radialGradient>
<radialGradient id="paint3_radial_13_61" cx="0" cy="0" r="1" gradientUnits="userSpaceOnUse" gradientTransform="translate(495.316 152.412) rotate(180) scale(86.5848)">
<stop stop-color="#FA404B"/>
<stop offset="0.025" stop-color="#FA484F" stop-opacity="0.975"/>
<stop offset="0.1916" stop-color="#FC7565" stop-opacity="0.8084"/>
<stop offset="0.3589" stop-color="#FD9B78" stop-opacity="0.6411"/>
<stop offset="0.5244" stop-color="#FEB886" stop-opacity="0.4756"/>
<stop offset="0.6876" stop-color="#FECD91" stop-opacity="0.3124"/>
<stop offset="0.8474" stop-color="#FFDA97" stop-opacity="0.1526"/>
<stop offset="1" stop-color="#FFDE99" stop-opacity="0"/>
</radialGradient>
<radialGradient id="paint4_radial_13_61" cx="0" cy="0" r="1" gradientUnits="userSpaceOnUse" gradientTransform="translate(421.103 84.5093) rotate(180) scale(49.2942)">
<stop stop-color="#FA404B"/>
<stop offset="0.025" stop-color="#FA484F" stop-opacity="0.975"/>
<stop offset="0.1916" stop-color="#FC7565" stop-opacity="0.8084"/>
<stop offset="0.3589" stop-color="#FD9B78" stop-opacity="0.6411"/>
<stop offset="0.5244" stop-color="#FEB886" stop-opacity="0.4756"/>
<stop offset="0.6876" stop-color="#FECD91" stop-opacity="0.3124"/>
<stop offset="0.8474" stop-color="#FFDA97" stop-opacity="0.1526"/>
<stop offset="1" stop-color="#FFDE99" stop-opacity="0"/>
</radialGradient>
<radialGradient id="paint5_radial_13_61" cx="0" cy="0" r="1" gradientUnits="userSpaceOnUse" gradientTransform="translate(529.055 80.9691) rotate(180) scale(74.3839)">
<stop offset="0.0936" stop-color="#241921"/>
<stop offset="1" stop-color="#0144B9" stop-opacity="0"/>
</radialGradient>
<radialGradient id="paint6_radial_13_61" cx="0" cy="0" r="1" gradientUnits="userSpaceOnUse" gradientTransform="translate(341.081 246.751) rotate(180) scale(76.2305)">
<stop stop-color="#FA404B"/>
<stop offset="0.025" stop-color="#FA484F" stop-opacity="0.975"/>
<stop offset="0.1916" stop-color="#FC7565" stop-opacity="0.8084"/>
<stop offset="0.3589" stop-color="#FD9B78" stop-opacity="0.6411"/>
<stop offset="0.5244" stop-color="#FEB886" stop-opacity="0.4756"/>
<stop offset="0.6876" stop-color="#FECD91" stop-opacity="0.3124"/>
<stop offset="0.8474" stop-color="#FFDA97" stop-opacity="0.1526"/>
<stop offset="1" stop-color="#FFDE99" stop-opacity="0"/>
</radialGradient>
<radialGradient id="paint7_radial_13_61" cx="0" cy="0" r="1" gradientUnits="userSpaceOnUse" gradientTransform="translate(369.652 306.275) rotate(180) scale(27.5441)">
<stop stop-color="#FA404B"/>
<stop offset="0.025" stop-color="#FA484F" stop-opacity="0.975"/>
<stop offset="0.1916" stop-color="#FC7565" stop-opacity="0.8084"/>
<stop offset="0.3589" stop-color="#FD9B78" stop-opacity="0.6411"/>
<stop offset="0.5244" stop-color="#FEB886" stop-opacity="0.4756"/>
<stop offset="0.6876" stop-color="#FECD91" stop-opacity="0.3124"/>
<stop offset="0.8474" stop-color="#FFDA97" stop-opacity="0.1526"/>
<stop offset="1" stop-color="#FFDE99" stop-opacity="0"/>
</radialGradient>
<radialGradient id="paint8_radial_13_61" cx="0" cy="0" r="1" gradientUnits="userSpaceOnUse" gradientTransform="translate(546.644 254.499) rotate(180) scale(90.006)">
<stop offset="0.0936" stop-color="#241921"/>
<stop offset="1" stop-color="#0144B9" stop-opacity="0"/>
</radialGradient>
<radialGradient id="paint9_radial_13_61" cx="0" cy="0" r="1" gradientUnits="userSpaceOnUse" gradientTransform="translate(512.477 246.448) rotate(180) scale(34.5582)">
<stop stop-color="#FA404B"/>
<stop offset="0.025" stop-color="#FA484F"/>
<stop offset="0.1916" stop-color="#FC7565"/>
<stop offset="0.3589" stop-color="#FD9B78"/>
<stop offset="0.5244" stop-color="#FEB886"/>
<stop offset="0.6876" stop-color="#FECD91"/>
<stop offset="0.8474" stop-color="#FFDA97"/>
<stop offset="1" stop-color="#FFDE99"/>
</radialGradient>
<radialGradient id="paint10_radial_13_61" cx="0" cy="0" r="1" gradientUnits="userSpaceOnUse" gradientTransform="translate(594.174 213.373) rotate(180) scale(36.4506)">
<stop offset="0.0936" stop-color="#241921"/>
<stop offset="1" stop-color="#0144B9" stop-opacity="0"/>
</radialGradient>
<radialGradient id="paint11_radial_13_61" cx="0" cy="0" r="1" gradientUnits="userSpaceOnUse" gradientTransform="translate(352.341 273.943) rotate(180) scale(94.0617)">
<stop offset="0.0936" stop-color="#241921"/>
<stop offset="1" stop-color="#0144B9" stop-opacity="0"/>
</radialGradient>
<radialGradient id="paint12_radial_13_61" cx="0" cy="0" r="1" gradientUnits="userSpaceOnUse" gradientTransform="translate(529.966 217.578) rotate(180) scale(86.785)">
<stop stop-color="#FB8F8F"/>
<stop offset="1" stop-color="#F9C1DA" stop-opacity="0"/>
</radialGradient>
<radialGradient id="paint13_radial_13_61" cx="0" cy="0" r="1" gradientUnits="userSpaceOnUse" gradientTransform="translate(621.197 202.057) rotate(180) scale(69.8449)">
<stop stop-color="#FB8F8F"/>
<stop offset="1" stop-color="#F9C1DA" stop-opacity="0"/>
</radialGradient>
<radialGradient id="paint14_radial_13_61" cx="0" cy="0" r="1" gradientUnits="userSpaceOnUse" gradientTransform="translate(697.167 245.361) rotate(180) scale(203.12 203.12)">
<stop stop-color="#FA404B"/>
<stop offset="0.025" stop-color="#FA484F" stop-opacity="0.975"/>
<stop offset="0.1916" stop-color="#FC7565" stop-opacity="0.8084"/>
<stop offset="0.3589" stop-color="#FD9B78" stop-opacity="0.6411"/>
<stop offset="0.5244" stop-color="#FEB886" stop-opacity="0.4756"/>
<stop offset="0.6876" stop-color="#FECD91" stop-opacity="0.3124"/>
<stop offset="0.8474" stop-color="#FFDA97" stop-opacity="0.1526"/>
<stop offset="1" stop-color="#FFDE99" stop-opacity="0"/>
</radialGradient>
<radialGradient id="paint15_radial_13_61" cx="0" cy="0" r="1" gradientUnits="userSpaceOnUse" gradientTransform="translate(498.919 249.503) rotate(180) scale(45.3592)">
<stop stop-color="#FA404B"/>
<stop offset="0.025" stop-color="#FA484F" stop-opacity="0.975"/>
<stop offset="0.1916" stop-color="#FC7565" stop-opacity="0.8084"/>
<stop offset="0.3589" stop-color="#FD9B78" stop-opacity="0.6411"/>
<stop offset="0.5244" stop-color="#FEB886" stop-opacity="0.4756"/>
<stop offset="0.6876" stop-color="#FECD91" stop-opacity="0.3124"/>
<stop offset="0.8474" stop-color="#FFDA97" stop-opacity="0.1526"/>
<stop offset="1" stop-color="#FFDE99" stop-opacity="0"/>
</radialGradient>
<radialGradient id="paint16_radial_13_61" cx="0" cy="0" r="1" gradientUnits="userSpaceOnUse" gradientTransform="translate(377.691 282.528) rotate(180) scale(81.2547)">
<stop offset="0.0936" stop-color="#241921"/>
<stop offset="1" stop-color="#0144B9" stop-opacity="0"/>
</radialGradient>
<radialGradient id="paint17_radial_13_61" cx="0" cy="0" r="1" gradientUnits="userSpaceOnUse" gradientTransform="translate(166.847 62.1074) rotate(180) scale(53.0459)">
<stop stop-color="#0061FE"/>
<stop offset="1" stop-color="white"/>
</radialGradient>
<radialGradient id="paint18_radial_13_61" cx="0" cy="0" r="1" gradientUnits="userSpaceOnUse" gradientTransform="translate(184.903 74.4758) rotate(180) scale(96.2937)">
<stop stop-color="#0061FE"/>
<stop offset="1" stop-color="white"/>
</radialGradient>
<radialGradient id="paint19_radial_13_61" cx="0" cy="0" r="1" gradientUnits="userSpaceOnUse" gradientTransform="translate(182.431 81.8967) rotate(180) scale(76.0237 76.023)">
<stop stop-color="#0061FE"/>
<stop offset="1" stop-color="white"/>
</radialGradient>
<linearGradient id="paint20_linear_13_61" x1="279.496" y1="136.226" x2="215.047" y2="155.264" gradientUnits="userSpaceOnUse">
<stop offset="0.1791" stop-color="#F9C1DA"/>
<stop offset="1" stop-color="#EECFF8" stop-opacity="0"/>
</linearGradient>
<radialGradient id="paint21_radial_13_61" cx="0" cy="0" r="1" gradientUnits="userSpaceOnUse" gradientTransform="translate(256.995 103.372) rotate(180) scale(40.9025 49.6677)">
<stop stop-color="#0061FE"/>
<stop offset="1" stop-color="white"/>
</radialGradient>
<radialGradient id="paint22_radial_13_61" cx="0" cy="0" r="1" gradientUnits="userSpaceOnUse" gradientTransform="translate(209.446 76.8785) rotate(180) scale(60.5243)">
<stop offset="0.1791" stop-color="#F9C1DA"/>
<stop offset="1" stop-color="#EECFF8" stop-opacity="0"/>
</radialGradient>
<radialGradient id="paint23_radial_13_61" cx="0" cy="0" r="1" gradientUnits="userSpaceOnUse" gradientTransform="translate(216.168 277.776) rotate(180) scale(323.147)">
<stop stop-color="#0061FE"/>
<stop offset="0.0281" stop-color="#106CFE" stop-opacity="0.9719"/>
<stop offset="0.1219" stop-color="#408BFE" stop-opacity="0.8781"/>
<stop offset="0.2211" stop-color="#6AA7FE" stop-opacity="0.7789"/>
<stop offset="0.3241" stop-color="#8EBFFF" stop-opacity="0.6759"/>
<stop offset="0.4318" stop-color="#ABD2FF" stop-opacity="0.5682"/>
<stop offset="0.546" stop-color="#C2E1FF" stop-opacity="0.454"/>
<stop offset="0.6696" stop-color="#D2ECFF" stop-opacity="0.3304"/>
<stop offset="0.8094" stop-color="#DBF2FF" stop-opacity="0.1906"/>
<stop offset="1" stop-color="#DEF4FF" stop-opacity="0"/>
</radialGradient>
<linearGradient id="paint24_linear_13_61" x1="343.661" y1="261.375" x2="157.648" y2="261.375" gradientUnits="userSpaceOnUse">
<stop offset="0.1791" stop-color="#F9C1DA"/>
<stop offset="1" stop-color="#EECFF8" stop-opacity="0"/>
</linearGradient>
<radialGradient id="paint25_radial_13_61" cx="0" cy="0" r="1" gradientUnits="userSpaceOnUse" gradientTransform="translate(653.945 221.015) rotate(180) scale(214.603)">
<stop stop-color="#0061FE"/>
<stop offset="1" stop-color="white"/>
</radialGradient>
</defs>
</svg>
