<?xml version="1.0" encoding="utf-8"?>
<!-- Generator: Adobe Illustrator 23.0.5, SVG Export Plug-In . SVG Version: 6.00 Build 0)  -->
<svg version="1.1" id="Layer_1" xmlns="http://www.w3.org/2000/svg" xmlns:xlink="http://www.w3.org/1999/xlink" x="0px" y="0px"
	 viewBox="0 0 550 200" style="enable-background:new 0 0 550 200;" xml:space="preserve">
<style type="text/css">
	.st0{fill:#5D46E2;}
	.st1{fill:#5E47E1;}
	.st2{fill:#BEB5F3;}
	.st3{fill:#5E49D6;}
	.st4{fill:#5C45DF;}
</style>
<g>
	<path class="st0" d="M43.4,59.2C63.1,59.2,73,70.6,73,84.5c0,9.2-4.6,17.9-14.7,22.1c-1.6,0.7-2.3,2.7-1.4,4.2L71,135.2
		c1.1,2,12.9,4.4,10.6,4.4H53.2c-1.1,0-2.1-0.6-2.6-1.5l-15.1-27.3c-0.5-0.9-1.5-1.5-2.6-1.5l0,0c-1.6,0-3,1.3-3,3v24.5
		c0,1.6-1.3,3-3,3H13.4c-1.6,0-3-1.3-3-3V62.2c0-1.6,1.3-3,3-3C13.4,59.2,43.4,59.2,43.4,59.2z M42.2,75.5H33c-1.6,0-3,1.3-3,3v14
		c0,1.6,1.3,3,3,3h9.2c7.3,0,10.8-3.8,10.8-10.1C53,79.4,49.5,75.5,42.2,75.5z"/>
	<path class="st0" d="M81.4,139.7c-18.8,0-32.3-12.6-32.3-32.9s13.3-32.9,32.3-32.9c18.7,0,31.9,12.4,31.9,31.9c0,0,0,0,0,0.1
		c0,3.1-2.6,5.7-5.7,5.7h-39c0.7,8.4,5.8,12.3,12.2,12.3c4.2,0,7-1.6,8.8-3.9c1.1-1.4,2.8-2.2,4.5-2.2h9c4.6,0,7.3,5.1,4.8,9
		C102.5,134.4,93.2,139.7,81.4,139.7z M68.6,100.6h24.5c0-7-5.5-11-12-11C74.7,89.6,69.8,93.5,68.6,100.6z"/>
	<path class="st0" d="M212.7,104.9c0-8.4-4.8-13-12.3-13s-12.3,4.6-12.3,13v32.4c0,1.3-1,2.3-2.3,2.3H171c-1.3,0-2.3-1-2.3-2.3
		v-32.4c0-8.4-4.8-13-12.3-13s-12.3,4.6-12.3,13v32.4c0,1.3-1,2.3-2.3,2.3h-15c-1.3,0-2.3-1-2.3-2.3V78c0-1.3,1-2.3,2.3-2.3h15
		c1.3,0,2.3,1,2.3,2.3l0,0c0,1.9,2.2,3,3.8,1.8c3.8-3,8.9-4.8,14.9-4.8c8.4,0,15.5,3.3,20,9.2c0.9,1.2,2.7,1.3,3.6,0.1
		c4.5-5.5,11.6-9.3,19.7-9.3c15.8,0,26,10.1,26,27.3v35.1c0,1.3-1,2.3-2.3,2.3H215c-1.3,0-2.3-1-2.3-2.3V104.9z"/>
	<path class="st0" d="M275,140.6c-18.8,0-33-12.6-33-32.9s14.6-32.9,33.3-32.9c18.8,0,33.3,12.6,33.3,32.9
		C308.5,128,293.9,140.6,275,140.6z M275,123.6c7,0,13.5-5.2,13.5-15.9c0-10.9-6.4-15.9-13.3-15.9c-7.1,0-13.3,5-13.3,15.9
		C262,118.5,267.9,123.6,275,123.6z"/>
	<path class="st0" d="M318.2,92L318.2,92c-2.2,0-3.9-1.7-3.9-3.9v-8.5c0-2.2,1.7-3.9,3.9-3.9l0,0c2.2,0,3.9-1.7,3.9-3.9V64
		c0-2.2,1.7-3.9,3.9-3.9h11.8c2.2,0,3.9,1.7,3.9,3.9v7.8c0,2.2,1.7,3.9,3.9,3.9h5c2.2,0,3.9,1.7,3.9,3.9v8.5c0,2.2-1.7,3.9-3.9,3.9
		h-5c-2.2,0-3.9,1.7-3.9,3.9v21.8c0,3.8,1.6,5.4,6,5.4h3.1c2.2,0,3.9,1.7,3.9,3.9v8.8c0,2.2-1.7,3.9-3.9,3.9h-6.1
		c-13.3,0-22.6-5.6-22.6-22.2V95.9C322.1,93.7,320.3,92,318.2,92z"/>
	<path class="st0" d="M394,140.6c-18.8,0-32.3-12.6-32.3-32.9S375,74.8,394,74.8c18.7,0,31.9,12.4,31.9,31.9c0,0,0,0,0,0.1
		c0,3.1-2.6,5.7-5.7,5.7h-39c0.7,8.4,5.8,12.3,12.2,12.3c4.2,0,7-1.6,8.8-3.9c1.1-1.4,2.8-2.2,4.5-2.2h9c4.6,0,7.3,5.1,4.8,9
		C415.1,135.3,405.8,140.6,394,140.6z M381.2,101.5h24.5c0-7-5.5-11-12-11C387.3,90.5,382.4,94.4,381.2,101.5z"/>
	<path class="st1" d="M539.5,136.4c-0.3,0.2-0.3,0.5-0.4,0.8c-1,2.3-2.8,3.5-5.3,3.6c-4.5,0-9.1,0-13.6,0c-27,0-54,0-81,0
		c-4,0-6.2-2.2-6.2-6.2c0-1.4,0-2.7,0-4.1c0-0.6,0.2-0.8,0.8-0.8c2.3,0,4.6,0,6.9,0c1,0,1.1-0.3,1.1-1.2c0-16.1,0-32.2-0.1-48.2
		c0-3.3,2.2-5.4,5.4-5.4c26.1,0.1,52.3,0.1,78.4,0c3,0,5.6,2,5.3,5.3c-0.1,1.6,0,1.6,1.6,1.6c1.1,0,2.3-0.1,3.4,0.3
		c2,0.7,3.1,2.3,3.8,4.2C539.5,103.2,539.5,119.8,539.5,136.4z M503.2,83.7c1.6-1.5,3.6-1.8,5.7-1.7c3.8,0.1,7.6,0,11.4,0
		c2.1,0,4.2,0,6.3,0c0.3,0,0.6,0.1,0.8-0.3c0.7-1.8-0.2-3.2-2.2-3.2c-26,0-52,0-78,0c-1.8,0-2.1,0.3-2.1,2.1c0,16,0,32,0,47.9
		c0,0.1,0,0.3,0,0.4c-0.1,0.6,0.1,0.9,0.8,0.8c1.5-0.1,2.9,0,4.4,0c0.3,0,0.6,0,0.8,0c16.5,0,33,0,49.5,0c0.1,0,0.1,0,0.2,0
		c0.6,0.1,0.9-0.1,0.8-0.8c-0.1-1,0-2,0-3c0-1.8,0-1.8,1.7-1.8c0.1,0,0.3,0,0.4,0c1.2-0.2,1.3,0.4,1.3,1.4c-0.1,2.9,0,5.8,0,8.7
		c0,2.4,0.7,3.1,3.1,3.1c8.4,0,16.7,0,25.1,0c2.1,0,2.9-0.8,2.9-2.9c0-15.4,0-30.8,0-46.3c0-2.1-0.8-2.8-2.8-2.8
		c-8.5,0-16.9,0-25.4,0c-2.1,0-2.9,0.8-2.9,2.9c0,2.7,0,5.3,0,8c0,1.7,0,1.7-1.7,1.7c-0.1,0-0.3,0-0.4,0c-1,0.2-1.4-0.2-1.3-1.3
		c0.1-2.5,0.1-5,0-7.5C501.5,87.2,501.9,85.3,503.2,83.7z M469.1,133.2c-5.4,0-10.7,0-16.1,0c-5.2,0-10.3,0-15.5,0
		c-0.3,0-0.7-0.1-1,0.2c-0.8,1,0.2,3.6,1.5,3.9c0.4,0.1,0.9,0.1,1.3,0.1c20.5,0,41.1,0,61.6,0c0.2,0,0.3,0,0.5,0
		c0.5,0,0.6-0.1,0.4-0.6c-0.3-0.8-0.3-1.6-0.2-2.5c0.1-1-0.2-1.2-1.2-1.2C490,133.2,479.6,133.2,469.1,133.2z"/>
	<path class="st2" d="M491.8,106.7c-1.7-1.6-3.3-3.3-4.9-4.9c-0.5-0.5-0.7-0.4-1.2,0.1c-0.9,0.9-1.8,1.8-2.7,2.8
		c-0.3,0.3-0.6,0.6-0.9,0.9c-1.9,1.9-1.9,1.9,0.1,3.7c0.1,0,0.1,0.1,0.1,0.1c0.2,0.3,0.4,0.3,0.7,0.2c0.1,0,0.1-0.1,0.2-0.2
		c0.4-0.4,0.8-0.8,1.5-1.5c0,1.3,0,2.4,0,3.4c0.1,5.5,4.4,9.8,9.9,9.9c2.9,0,5.9,0,8.8,0c0,1,0,2,0,3.1c-1.7,0.1-1.7,0.1-1.7,1.8
		c0,1,0,2,0,3c0,0.7-0.2,0.9-0.8,0.8c-0.1,0-0.1,0-0.2,0h-49.5c-0.3,0-0.6,0-0.8,0c0-6.1,0-12.1,0-18.2c0-7.7,0-15.3,0-23
		c0.1-2.6,2.1-4.8,4.7-4.9c6.5,0,13.1,0,19.6,0c1.2,0,2.5,0,3.7,0l0,0c8.2,0,16.5,0,24.7,0c-1.3,1.6-1.6,3.5-1.5,5.5
		c0.1,2.5,0.1,5,0,7.5c0,1.1,0.3,1.4,1.3,1.3c0.1,0,0.3,0,0.4,0c0,1,0,2,0,3c-1.7,0-3.3,0-5,0c-2.6,0-2.6,0-2.5,2.6
		c0,0.7,0.2,0.9,0.9,0.9c2.2,0,4.4,0,6.6,0c0,4.3,0,8.7,0,13c-2.8,0-5.7,0.1-8.5,0c-2.6,0-4.8-1.1-6.1-3.5c-1.1-1.9-0.8-4-0.8-6.3
		c0.7,0.6,1.4,1.6,1.9,1.6c0.7-0.1,1.2-1.1,1.8-1.6C492.2,107.4,492.3,107.1,491.8,106.7z"/>
	<path class="st3" d="M503.4,101.1c1.6,0,3.2,0,4.8,0c2.1,0.1,4.2-0.2,6.3,0.3c4.6,1,7.7,4.9,7.8,9.6c0,1.1,0,2.2,0,3.3
		c0.9-0.5,1.2-1.6,2-1.5c0.7,0.1,1.1,1,1.8,1.5c0.5,0.4,0.5,0.8,0,1.2c-1.6,1.6-3.3,3.2-4.8,4.9c-0.5,0.5-0.8,0.4-1.2-0.1
		c-1.2-1.2-2.4-2.4-3.6-3.6c-1.9-1.9-1.9-1.9,0.1-3.7c0.4-0.4,0.7-0.3,1,0c0.4,0.4,0.7,0.9,1.1,1.3c0.1-0.1,0.2-0.1,0.3-0.2
		c0-1.1,0-2.1,0-3.2c-0.2-3.7-2.9-6.4-6.7-6.4c-1.3,0-2.7,0-4,0c-1.6,0-3.2,0-4.8,0c-2.2,0-4.4,0-6.6,0c-0.7,0-0.9-0.2-0.9-0.9
		c0-2.6-0.1-2.6,2.5-2.6C500,101.1,501.7,101.1,503.4,101.1z"/>
	<path class="st4" d="M508.2,121.1c-1.6,0-3.2,0-4.8,0c-2.9,0-5.9,0-8.8,0c-5.5,0-9.9-4.3-9.9-9.9c0-1,0-2.1,0-3.4
		c-0.6,0.6-1.1,1-1.5,1.5c-0.3,0.3-0.6,0.4-0.8,0c0-0.1-0.1-0.1-0.1-0.1c-1.9-1.8-1.9-1.8-0.1-3.7c1.2-1.2,2.4-2.4,3.6-3.6
		c0.4-0.4,0.7-0.6,1.2-0.1c1.6,1.7,3.3,3.3,4.9,4.9c0.5,0.5,0.4,0.8,0,1.2c-0.6,0.5-1.1,1.5-1.8,1.6c-0.5,0.1-1.2-0.9-1.9-1.6
		c0,2.3-0.3,4.4,0.8,6.3c1.3,2.4,3.4,3.5,6.1,3.5c2.8,0,5.7,0,8.5,0c1.6,0,3.2,0,4.8,0c0.7,0,1.5,0,2.2,0c0.3,0,0.7,0,0.7,0.4
		c0,0.9,0.3,2-0.1,2.7c-0.3,0.5-1.4,0.1-2.1,0.2C508.5,121.1,508.4,121.1,508.2,121.1z"/>
	<path class="st2" d="M533,110.2c0,3.6,0,7.3,0,10.9v0.1c-0.3,2.3-2.2,4.2-4.6,4.4c-5.2,0-10.4,0-15.6,0c-2.4-0.2-4.4-2-4.7-4.4
		v-0.1c0.2,0,0.4,0,0.6,0c0.7-0.1,1.7,0.3,2.1-0.2c0.5-0.8,0.1-1.8,0.1-2.7c0-0.5-0.3-0.4-0.7-0.4c-0.7,0-1.4,0-2.2,0
		c0-2.5,0-5,0-7.5c0-1.9,0-3.7,0-5.6c1.4,0,2.7,0,4.1,0c3.7,0,6.5,2.7,6.7,6.4c0.1,1.1,0,2.1,0,3.2c-0.1,0.1-0.2,0.1-0.3,0.2
		c-0.4-0.4-0.7-0.9-1.1-1.3c-0.3-0.4-0.6-0.4-1-0.1c-0.9,0.8-1.4,1.2-1.5,1.6c-0.2,0.5,0.3,1,1.4,2.1c1.2,1.2,2.4,2.4,3.6,3.6
		c0.4,0.4,0.7,0.6,1.2,0.1c1.6-1.7,3.2-3.3,4.8-4.8c0.4-0.4,0.5-0.7,0.3-0.9c-0.1-0.1-0.2-0.2-0.3-0.3c-0.6-0.5-1-1.5-1.7-1.5
		c-0.8-0.1-1.1,1-2,1.5c0-1.2,0-2.2,0-3.3c-0.1-4.7-3.2-8.6-7.8-9.6c-1.7-0.4-3.4-0.3-5.1-0.3c-0.4,0-0.8,0-1.3,0c0-2.7,0-5.5,0-8.2
		c0.3-2.4,2.3-4.2,4.7-4.4c5.2,0,10.3,0,15.5,0c2.4,0.2,4.4,2.1,4.7,4.5c0,3.6,0,7.3,0,10.9C533,106,533,108.1,533,110.2z"/>
	<path class="st1" d="M520.5,129.8c1.5,0,2.9,0,4.4,0c0.6,0,0.8,0.2,0.8,0.8c0,2.6,0.1,2.6-2.5,2.6c-2.3,0-4.6,0-6.9,0
		c-0.7,0-1-0.1-1-1c0-2.5,0-2.5,2.5-2.5C518.8,129.8,519.7,129.8,520.5,129.8z"/>
</g>
</svg>
