<svg width="28" height="28" viewBox="0 0 28 28" fill="none" xmlns="http://www.w3.org/2000/svg">
<path d="M6.41699 8.16667C5.45049 8.16667 4.66699 8.95018 4.66699 9.91667V21C4.66699 22.933 6.234 24.5 8.16699 24.5H19.8337C21.7667 24.5 23.3337 22.933 23.3337 21V9.91667C23.3337 8.95017 22.5502 8.16667 21.5837 8.16667H6.41699Z" fill="#90ECF4"/>
<path fill-rule="evenodd" clip-rule="evenodd" d="M16.3337 24.5H11.667V19.8333C11.667 18.5447 12.7117 17.5 14.0003 17.5C15.289 17.5 16.3337 18.5447 16.3337 19.8333V24.5Z" fill="#444BD3"/>
<path d="M8.16667 3.5004C9.33333 3.49902 18.6667 3.50203 19.8333 3.50148C22.1667 3.5004 24.5 5.2504 24.5 8.16706C24.5 9.91706 22.75 11.6671 21 11.6671C18.6667 11.6671 17.5 9.33373 17.5 9.33373C17.5 9.33373 16.9167 11.6675 14 11.6671C11.0833 11.6666 10.5 9.33373 10.5 9.33373C10.5 9.33373 9.33333 11.6667 7 11.6667C5.25 11.6667 3.5 9.91706 3.5 8.16706C3.5 5.2504 5.83333 3.50315 8.16667 3.5004Z" fill="#444BD3"/>
</svg>
