<svg width="28" height="28" viewBox="0 0 28 28" fill="none" xmlns="http://www.w3.org/2000/svg">
<path d="M25.6663 7.00841C25.6663 5.25768 23.8099 4.13056 22.2566 4.93818L16.5793 7.89003C16.3266 8.02144 16.0345 8.05584 15.7582 7.98676L12.4041 7.14823C11.8204 7.00231 11.2029 7.08749 10.6805 7.386L3.50868 11.4842C2.78168 11.8996 2.33301 12.6727 2.33301 13.5101V20.9997C2.33301 22.2884 3.37768 23.333 4.66634 23.333H23.333C24.6217 23.333 25.6663 22.2884 25.6663 20.9997V7.00841Z" fill="#90ECF4"/>
<path d="M10.6459 15.5494L3.09003 18.3828C2.63468 18.5536 2.33301 18.9889 2.33301 19.4752V21C2.33301 22.2887 3.37768 23.3333 4.66634 23.3333H23.333C24.6217 23.3333 25.6663 22.2887 25.6663 21V14C25.6663 13.1855 24.8527 12.6216 24.09 12.9076L17.3535 15.9507C16.6889 16.1999 15.9643 16.2412 15.2757 16.069L12.7237 15.431C12.0351 15.2589 11.3104 15.3001 10.6459 15.5494Z" fill="#444BD3"/>
</svg>
