<svg width="88" height="36" viewBox="0 0 88 36" fill="none" xmlns="http://www.w3.org/2000/svg">
<path d="M33.498 7.87509V26.8991H40.2914C45.8602 26.8991 49.1344 23.3658 49.1344 17.341C49.1344 11.316 45.8473 7.87509 40.2914 7.87509H33.498ZM36.8239 10.7491H39.9434C43.6559 10.7491 45.7441 13.0958 45.7441 17.3541C45.7441 21.6914 43.6816 24.025 39.9434 24.025H36.8239V10.7491Z" fill="#444BD3"/>
<path d="M51.5449 26.8991H54.7546V7.87509H51.5449V26.8991Z" fill="#444BD3"/>
<path d="M66.5373 22.7198C66.1893 23.88 65.0549 24.6446 63.5595 24.6446C61.4584 24.6446 60.1177 23.1417 60.1177 20.9005V20.7027H69.6697V19.6349C69.6697 15.3898 67.2463 12.6344 63.3662 12.6344C59.4216 12.6344 56.9209 15.548 56.9209 19.9645C56.9209 24.4205 59.3959 27.1758 63.4952 27.1758C66.7307 27.1758 69.1284 25.3566 69.5409 22.7198H66.5373ZM63.3791 15.1788C65.2225 15.1788 66.46 16.5632 66.5245 18.5407H60.1436C60.2725 16.5895 61.5745 15.1788 63.3791 15.1788Z" fill="#444BD3"/>
<path d="M76.8496 21.8892L79.6855 26.899H83.1918L78.8477 19.8326L83.2434 12.9244H79.7242L77.0043 17.8287H76.9398L74.1812 12.9244H70.5718L74.9418 19.9248L70.5332 26.899H73.9493L76.7852 21.8892H76.8496Z" fill="#444BD3"/>
<path fill-rule="evenodd" clip-rule="evenodd" d="M13.209 31.4999C20.4951 31.4949 26.4001 25.4528 26.4001 18C26.4001 10.5472 20.4951 4.50494 13.209 4.50009C18.3715 6.70646 21.9992 11.9199 21.9992 18C21.9992 24.0799 18.3715 29.2934 13.209 31.4999Z" fill="#444BD3" fill-opacity="0.32"/>
<path d="M0 9.30052C0 6.64955 2.07363 4.50052 4.63158 4.50052H7.70016C14.9902 4.50052 20.9 10.5446 20.9 18.0004C20.9 25.4562 14.9902 31.5002 7.70016 31.5002H4.63158C2.07363 31.5002 0 29.3512 0 26.7002V9.30052Z" fill="#444BD3"/>
</svg>
