<svg width="45" height="45" viewBox="0 0 45 45" fill="none" xmlns="http://www.w3.org/2000/svg">
<rect width="44.075" height="44.075" rx="10" fill="#212B36"/>
<path d="M28.384 22.1669C28.3728 20.3185 29.2337 18.9255 30.9723 17.8983C29.9999 16.5432 28.5288 15.7978 26.5897 15.6542C24.7537 15.5133 22.7449 16.6949 22.0093 16.6949C21.232 16.6949 19.4544 15.703 18.0558 15.703C15.1694 15.7463 12.1019 17.9416 12.1019 22.4081C12.1019 23.728 12.3498 25.0912 12.8458 26.4951C13.5089 28.3435 15.8994 32.8723 18.3929 32.7991C19.6968 32.7693 20.619 31.8993 22.3158 31.8993C23.9624 31.8993 24.8149 32.7991 26.2693 32.7991C28.7852 32.7639 30.9472 28.647 31.5769 26.7933C28.2029 25.2457 28.384 22.2617 28.384 22.1669ZM25.4558 13.9007C26.8683 12.2691 26.7402 10.7839 26.6984 10.25C25.4502 10.3205 24.007 11.0766 23.1851 12.0062C22.2796 13.0036 21.7474 14.2367 21.8617 15.6271C23.2101 15.7274 24.4416 15.0525 25.4558 13.9007Z" fill="white"/>
</svg>
