<svg width="40" height="40" viewBox="0 0 40 40" fill="none" xmlns="http://www.w3.org/2000/svg">
<path fill-rule="evenodd" clip-rule="evenodd" d="M10.9641 36.3454C6.80921 37.7304 3.00781 33.4832 4.84313 29.5067L15.4603 6.50292C17.2478 2.63008 22.7523 2.63008 24.5398 6.50292L35.1568 29.5067C36.9922 33.4832 33.1908 37.7304 29.036 36.3454L21.5812 33.8605C20.5548 33.5184 19.4453 33.5184 18.419 33.8605L10.9641 36.3454Z" fill="#3056D3"/>
<path d="M21.6667 33.8889L21.5812 33.8604C20.5548 33.5183 19.4453 33.5183 18.419 33.8604L18.3333 33.8889L18.3333 16.6667C18.3333 15.7462 19.0795 15 20 15C20.9205 15 21.6667 15.7462 21.6667 16.6667L21.6667 33.8889Z" fill="#98AAE9"/>
</svg>
