<svg width="103" height="60" viewBox="0 0 103 60" fill="none" xmlns="http://www.w3.org/2000/svg">
<path d="M64.72 23.988C65.488 23.988 66.088 24.204 66.52 24.636C66.976 25.068 67.204 25.668 67.204 26.436C67.204 26.628 67.192 26.832 67.168 27.048C67.144 27.24 67.096 27.408 67.024 27.552C66.712 27.504 66.364 27.468 65.98 27.444C65.596 27.396 65.14 27.372 64.612 27.372C63.532 27.372 62.452 27.468 61.372 27.66C60.292 27.852 59.26 28.008 58.276 28.128C57.196 30.672 56.308 33.06 55.612 35.292C54.916 37.524 54.376 39.732 53.992 41.916C53.176 41.724 52.456 41.376 51.832 40.872C51.208 40.368 50.62 39.66 50.068 38.748C50.236 38.364 50.44 37.908 50.68 37.38C50.92 36.828 51.208 36.144 51.544 35.328C51.88 34.488 52.276 33.48 52.732 32.304C53.212 31.104 53.776 29.676 54.424 28.02C53.416 27.684 52.756 27.096 52.444 26.256C52.564 26.136 52.9 26.004 53.452 25.86C54.004 25.692 54.676 25.512 55.468 25.32C55.828 24.384 56.14 23.556 56.404 22.836C56.668 22.092 56.908 21.396 57.124 20.748C57.34 20.076 57.532 19.428 57.7 18.804C57.892 18.156 58.06 17.472 58.204 16.752H58.024C57.112 16.752 56.368 16.536 55.792 16.104C55.24 15.672 54.964 15.108 54.964 14.412C54.964 14.22 54.988 13.992 55.036 13.728C55.108 13.464 55.192 13.236 55.288 13.044C55.744 13.116 56.188 13.164 56.62 13.188C57.076 13.212 57.664 13.224 58.384 13.224C59.896 13.224 61.312 13.188 62.632 13.116C63.952 13.02 65.14 12.924 66.196 12.828C67.276 12.732 68.2 12.648 68.968 12.576C69.736 12.48 70.324 12.432 70.732 12.432C71.284 12.432 71.776 12.72 72.208 13.296C72.64 13.872 72.976 14.688 73.216 15.744C72.448 15.672 71.824 15.624 71.344 15.6C70.888 15.576 70.48 15.564 70.12 15.564C68.896 15.564 67.768 15.624 66.736 15.744C65.728 15.84 64.768 15.96 63.856 16.104C63.712 16.32 63.544 16.596 63.352 16.932C63.184 17.268 62.956 17.748 62.668 18.372C62.38 18.972 62.008 19.764 61.552 20.748C61.12 21.732 60.568 22.98 59.896 24.492C60.832 24.348 61.72 24.228 62.56 24.132C63.424 24.036 64.144 23.988 64.72 23.988ZM69.1083 36.696C69.1083 35.64 69.3603 34.164 69.8643 32.268C70.3683 30.348 71.0763 28.116 71.9883 25.572C73.4763 21.516 74.8683 18.144 76.1643 15.456C77.4843 12.744 78.7683 10.632 80.0163 9.12C80.3043 9.168 80.6523 9.288 81.0603 9.48C81.4923 9.672 81.9123 9.888 82.3203 10.128C82.7283 10.344 83.0883 10.572 83.4003 10.812C83.7363 11.052 83.9523 11.244 84.0483 11.388C82.1763 13.596 80.5323 15.972 79.1163 18.516C77.7003 21.06 76.4043 23.976 75.2283 27.264C74.2203 30.096 73.4523 32.652 72.9243 34.932C72.3963 37.188 72.1323 39.072 72.1323 40.584C72.1323 40.992 72.1323 41.244 72.1323 41.34C72.1323 41.436 72.1443 41.532 72.1683 41.628C71.8323 41.58 71.5443 41.496 71.3043 41.376C71.0643 41.256 70.9083 41.112 70.8363 40.944C70.7883 40.824 70.6563 40.644 70.4403 40.404C70.2243 40.188 70.0323 40.02 69.8643 39.9C69.6483 39.756 69.4683 39.384 69.3243 38.784C69.1803 38.16 69.1083 37.464 69.1083 36.696ZM91.1882 33.42C90.6362 35.172 90.0842 36.768 89.5322 38.208C88.9802 39.648 88.3922 40.968 87.7682 42.168C87.1442 43.392 86.4722 44.508 85.7522 45.516C85.0322 46.548 84.2402 47.52 83.3762 48.432C82.2722 49.584 81.1322 50.46 79.9562 51.06C78.7802 51.684 77.6042 51.996 76.4282 51.996C75.8282 51.996 75.2282 51.924 74.6282 51.78C74.0522 51.66 73.5122 51.48 73.0082 51.24C72.4802 51.024 72.0242 50.76 71.6402 50.448C71.2322 50.16 70.9442 49.848 70.7762 49.512C70.7762 49.224 70.9442 48.972 71.2802 48.756C71.5682 49.02 71.8082 49.224 72.0002 49.368C72.1922 49.512 72.3842 49.632 72.5762 49.728C72.7442 49.824 72.9362 49.884 73.1522 49.908C73.3442 49.932 73.5722 49.944 73.8362 49.944C75.2042 49.944 76.5362 49.536 77.8322 48.72C79.1522 47.928 80.3882 46.788 81.5402 45.3C82.7162 43.836 83.7842 42.048 84.7442 39.936C85.7042 37.848 86.5202 35.508 87.1922 32.916C86.8802 33.396 86.4962 33.984 86.0402 34.68C85.5842 35.376 85.0802 36.072 84.5282 36.768C83.9762 37.44 83.4002 38.052 82.8002 38.604C82.2242 39.156 81.6602 39.528 81.1082 39.72C80.7242 39.696 80.3162 39.612 79.8842 39.468C79.4762 39.348 79.0802 39.168 78.6962 38.928C78.3362 38.688 78.0122 38.4 77.7242 38.064C77.4362 37.728 77.2442 37.344 77.1482 36.912C77.1482 36.216 77.1722 35.664 77.2202 35.256C77.2682 34.824 77.3522 34.356 77.4722 33.852C77.6882 32.94 78.0002 31.908 78.4082 30.756C78.8402 29.604 79.3322 28.476 79.8842 27.372C80.4602 26.244 81.0842 25.2 81.7562 24.24C82.4522 23.256 83.1722 22.488 83.9162 21.936C84.1082 21.936 84.3482 21.96 84.6362 22.008C84.9242 22.032 85.2242 22.092 85.5362 22.188C85.8482 22.284 86.1482 22.404 86.4362 22.548C86.7242 22.668 86.9762 22.836 87.1922 23.052C86.9282 23.292 86.3522 24.096 85.4642 25.464C84.5762 26.832 83.5922 28.8 82.5122 31.368C82.3922 31.632 82.2482 32.016 82.0802 32.52C81.9122 33.024 81.7442 33.552 81.5762 34.104C81.4322 34.656 81.3002 35.196 81.1802 35.724C81.0602 36.252 81.0002 36.672 81.0002 36.984C81.0002 37.176 81.0242 37.32 81.0722 37.416C81.1442 37.512 81.2042 37.584 81.2522 37.632C81.6842 37.56 82.2602 37.212 82.9802 36.588C83.7002 35.94 84.5162 34.944 85.4282 33.6C86.0042 32.736 86.5322 31.884 87.0122 31.044C87.4922 30.18 87.9602 29.316 88.4162 28.452C88.8962 27.588 89.3882 26.7 89.8922 25.788C90.3962 24.876 90.9362 23.94 91.5122 22.98C91.8242 22.98 92.1602 23.016 92.5202 23.088C92.8802 23.16 93.2282 23.256 93.5642 23.376C93.9002 23.472 94.1882 23.592 94.4282 23.736C94.6922 23.856 94.8842 23.988 95.0042 24.132C94.2602 25.716 93.5642 27.264 92.9162 28.776C92.2682 30.288 91.6922 31.836 91.1882 33.42Z" fill="#0F025F"/>
<path fill-rule="evenodd" clip-rule="evenodd" d="M10.9641 42.3454C6.80921 43.7304 3.00781 39.4832 4.84313 35.5067L15.4603 12.5029C17.2478 8.63008 22.7523 8.63008 24.5398 12.5029L35.1568 35.5067C36.9922 39.4832 33.1908 43.7304 29.036 42.3454L21.5812 39.8605C20.5548 39.5184 19.4453 39.5184 18.419 39.8605L10.9641 42.3454Z" fill="#3056D3"/>
<path d="M21.6667 39.8889L21.5812 39.8604C20.5548 39.5183 19.4453 39.5183 18.419 39.8604L18.3333 39.8889L18.3333 22.6667C18.3333 21.7462 19.0795 21 20 21C20.9205 21 21.6667 21.7462 21.6667 22.6667L21.6667 39.8889Z" fill="#98AAE9"/>
</svg>
