<svg width="32" height="32" viewBox="0 0 32 32" fill="none" xmlns="http://www.w3.org/2000/svg">
<path d="M29.6278 12.1591L6.2082 0.47616C4.84543 -0.228846 3.28076 -0.128131 2.01893 0.627233C0.757098 1.43295 0 2.79261 0 4.30334V27.6692C0 29.18 0.757098 30.5396 2.0694 31.3454C2.77603 31.7986 3.53312 32 4.34069 32C4.99684 32 5.653 31.8489 6.25867 31.5468L29.6278 19.8135C31.0915 19.0581 32 17.5977 32 15.9863C32 14.3748 31.0915 12.8641 29.6278 12.1591ZM18.776 8.68444L14.2334 14.5259L4.29022 1.7351C4.69401 1.7351 5.04732 1.83581 5.40063 1.98689L18.776 8.68444ZM1.76656 27.6692V4.30334C1.76656 3.59833 2.0694 2.89332 2.62461 2.4401L13.123 15.9863L2.57413 29.5325C2.01893 29.0793 1.76656 28.3743 1.76656 27.6692ZM5.40063 29.9353C5.04732 30.1368 4.64353 30.1871 4.23975 30.1871L14.183 17.3963L18.7256 23.2881L5.40063 29.9353ZM28.8707 18.2524L20.3912 22.4824L15.3438 15.9863L20.3912 9.49016L28.8707 13.7202C29.7287 14.1734 30.2839 15.0295 30.2839 15.9863C30.2839 16.9431 29.7287 17.7992 28.8707 18.2524Z" fill="#212B36"/>
</svg>
