<svg width="54" height="54" viewBox="0 0 54 54" fill="none" xmlns="http://www.w3.org/2000/svg">
<path d="M9 29.25C11.475 29.25 13.5 27.225 13.5 24.75C13.5 22.275 11.475 20.25 9 20.25C6.525 20.25 4.5 22.275 4.5 24.75C4.5 27.225 6.525 29.25 9 29.25ZM11.5425 31.725C10.71 31.59 9.8775 31.5 9 31.5C6.7725 31.5 4.6575 31.9725 2.745 32.805C1.08 33.525 0 35.145 0 36.9675V40.5H10.125V36.8775C10.125 35.01 10.6425 33.255 11.5425 31.725ZM45 29.25C47.475 29.25 49.5 27.225 49.5 24.75C49.5 22.275 47.475 20.25 45 20.25C42.525 20.25 40.5 22.275 40.5 24.75C40.5 27.225 42.525 29.25 45 29.25ZM54 36.9675C54 35.145 52.92 33.525 51.255 32.805C49.3425 31.9725 47.2275 31.5 45 31.5C44.1225 31.5 43.29 31.59 42.4575 31.725C43.3575 33.255 43.875 35.01 43.875 36.8775V40.5H54V36.9675ZM36.54 30.7125C33.9075 29.5425 30.6675 28.6875 27 28.6875C23.3325 28.6875 20.0925 29.565 17.46 30.7125C15.03 31.7925 13.5 34.2225 13.5 36.8775V40.5H40.5V36.8775C40.5 34.2225 38.97 31.7925 36.54 30.7125ZM18.1575 36C18.36 35.4825 18.45 35.1225 20.205 34.4475C22.3875 33.5925 24.6825 33.1875 27 33.1875C29.3175 33.1875 31.6125 33.5925 33.795 34.4475C35.5275 35.1225 35.6175 35.4825 35.8425 36H18.1575ZM27 18C28.2375 18 29.25 19.0125 29.25 20.25C29.25 21.4875 28.2375 22.5 27 22.5C25.7625 22.5 24.75 21.4875 24.75 20.25C24.75 19.0125 25.7625 18 27 18ZM27 13.5C23.265 13.5 20.25 16.515 20.25 20.25C20.25 23.985 23.265 27 27 27C30.735 27 33.75 23.985 33.75 20.25C33.75 16.515 30.735 13.5 27 13.5Z" fill="white"/>
</svg>
