<svg width="34" height="34" viewBox="0 0 34 34" fill="none" xmlns="http://www.w3.org/2000/svg">
<path d="M19.6666 17.3333C19.6666 15.775 18.3916 14.5 16.8333 14.5C15.275 14.5 14 15.775 14 17.3333C14 18.8917 15.275 20.1667 16.8333 20.1667C18.3916 20.1667 19.6666 18.8917 19.6666 17.3333ZM19.6666 25.8333C19.6666 24.275 18.3916 23 16.8333 23C15.275 23 14 24.275 14 25.8333C14 27.3917 15.275 28.6667 16.8333 28.6667C18.3916 28.6667 19.6666 27.3917 19.6666 25.8333ZM19.6666 8.83333C19.6666 7.275 18.3916 6 16.8333 6C15.275 6 14 7.275 14 8.83333C14 10.3917 15.275 11.6667 16.8333 11.6667C18.3916 11.6667 19.6666 10.3917 19.6666 8.83333Z" fill="white"/>
</svg>
