<svg width="24" height="24" viewBox="0 0 24 24" fill="none" xmlns="http://www.w3.org/2000/svg">
<g id="User Interface / Megaphone">
<path id="Shape" d="M10 18.3759V14H6L6.77381 18.6429C6.90433 19.426 7.58191 20 8.37586 20C9.27285 20 10 19.2728 10 18.3759Z" fill="#444BD3"/>
<path id="Shape_2" d="M3 10.9995C3 9.34268 4.34315 7.99953 6 7.99953H9L11 7.99992L17.2375 4.35059C18.9042 3.37552 21 4.57751 21 6.50842V15.4971C21 17.4289 18.9026 18.6308 17.236 17.6541L11 13.9995H9H6C4.34315 13.9995 3 12.6564 3 10.9995Z" fill="#90ECF4"/>
<path id="Shape_3" d="M18 10.7778C18 9.79594 18.7959 9 19.7778 9H20C21.1046 9 22 9.89543 22 11C22 12.1046 21.1046 13 20 13H19.7778C18.7959 13 18 12.2041 18 11.2222V10.7778Z" fill="#90ECF4"/>
<path id="Shape_4" d="M11 7.99998L17.2376 4.35065C18.9042 3.37558 21 4.57757 21 6.50848V15.4972C21 17.4289 18.9026 18.6308 17.236 17.6541L11 13.9996V7.99998Z" fill="#444BD3"/>
</g>
</svg>
