<svg width="24" height="24" viewBox="0 0 24 24" fill="none" xmlns="http://www.w3.org/2000/svg">
<g id="User Interface / Bank Cards">
<path id="Shape" d="M6 7.2C6 6.0799 6 5.51984 6.21799 5.09202C6.40973 4.71569 6.71569 4.40973 7.09202 4.21799C7.51984 4 8.0799 4 9.2 4H18.8C19.9201 4 20.4802 4 20.908 4.21799C21.2843 4.40973 21.5903 4.71569 21.782 5.09202C22 5.51984 22 6.0799 22 7.2V12.8C22 13.9201 22 14.4802 21.782 14.908C21.5903 15.2843 21.2843 15.5903 20.908 15.782C20.4802 16 19.9201 16 18.8 16H9.2C8.0799 16 7.51984 16 7.09202 15.782C6.71569 15.5903 6.40973 15.2843 6.21799 14.908C6 14.4802 6 13.9201 6 12.8V7.2Z" fill="#90ECF4"/>
<path id="Shape_2" fill-rule="evenodd" clip-rule="evenodd" d="M2.21799 9.09202C2.07741 9.36792 2.02749 9.69882 2.00976 10.1995C2.00019 10.4699 1.9954 10.6051 2.04844 10.7159C2.09406 10.8112 2.17411 10.8941 2.26772 10.9431C2.37658 11 2.51795 11 2.80067 11H17.1993C17.4821 11 17.6234 11 17.7323 10.9431C17.8259 10.8941 17.9059 10.8112 17.9516 10.7159C18.0046 10.6051 17.9998 10.4699 17.9902 10.1995C17.9725 9.69882 17.9226 9.36792 17.782 9.09202C17.5903 8.71569 17.2843 8.40973 16.908 8.21799C16.4802 8 15.9201 8 14.8 8H5.2C4.07989 8 3.51984 8 3.09202 8.21799C2.71569 8.40973 2.40973 8.71569 2.21799 9.09202ZM18 13.8C18 13.52 18 13.38 17.9455 13.273C17.8976 13.1789 17.8211 13.1024 17.727 13.0545C17.62 13 17.48 13 17.2 13H2.8C2.51997 13 2.37996 13 2.273 13.0545C2.17892 13.1024 2.10243 13.1789 2.0545 13.273C2 13.38 2 13.52 2 13.8V16.8C2 17.9201 2 18.4802 2.21799 18.908C2.40973 19.2843 2.71569 19.5903 3.09202 19.782C3.51984 20 4.07989 20 5.2 20H14.8C15.9201 20 16.4802 20 16.908 19.782C17.2843 19.5903 17.5903 19.2843 17.782 18.908C18 18.4802 18 17.9201 18 16.8V13.8Z" fill="#444BD3"/>
</g>
</svg>
