<svg width="128" height="26" viewBox="0 0 128 26" fill="none" xmlns="http://www.w3.org/2000/svg">
<path d="M20.5008 0C22.8158 0.417015 25.0302 1.14938 27.1012 2.15709C30.7223 7.78093 32.5214 14.1238 31.8571 21.4396C29.0866 23.594 26.3991 24.9011 23.757 25.7564C23.1027 24.8236 22.5239 23.8292 22.0232 22.7868C22.9769 22.4099 23.8928 21.9448 24.7584 21.4022C24.532 21.2258 24.308 21.0413 24.0891 20.8516C18.8878 23.4123 13.1681 23.4123 7.90387 20.8516C7.68748 21.0413 7.46351 21.2258 7.23454 21.4022C8.09762 21.9422 9.01106 22.4072 9.96475 22.7841C9.464 23.8292 8.88273 24.8209 8.23099 25.7538C5.59134 24.8984 2.90638 23.5913 0.13586 21.4396C-0.430322 15.1288 0.702039 8.72716 4.8792 2.16243C6.95017 1.15207 9.1671 0.417015 11.4847 0C11.7715 0.534598 12.1112 1.25364 12.3402 1.82564C14.7559 1.44074 17.1943 1.44074 19.6553 1.82564C19.8843 1.25364 20.2165 0.534598 20.5008 0ZM83.9839 8.23849C85.7451 8.23849 87.2073 8.63143 88.3699 9.41725V12.8413C87.9599 12.5419 87.4814 12.2987 86.9354 12.1116C86.3894 11.9245 85.8057 11.8309 85.1816 11.8309C84.0896 11.8309 83.2366 12.0421 82.62 12.4671C82.0033 12.8921 81.6942 13.4454 81.6942 14.1323C81.6942 14.8059 81.9933 15.3565 82.5923 15.7896C83.1914 16.2199 84.0593 16.4364 85.1991 16.4364C85.7855 16.4364 86.3644 16.3455 86.9354 16.1664C87.5042 15.9847 87.995 15.7628 88.405 15.5008V18.8126C87.1143 19.6359 85.6171 20.0475 83.9133 20.0475C82.4792 20.0422 81.256 19.7802 80.2469 19.2563C79.2382 18.7324 78.4756 18.0214 77.9673 17.1233C77.459 16.2252 77.2024 15.2149 77.2024 14.0922C77.2024 12.9696 77.4664 11.9646 77.9949 11.0798C78.5234 10.1951 79.2983 9.50012 80.3202 8.99494C81.3416 8.48976 82.5621 8.23849 83.9839 8.23849ZM70.7547 8.23594C71.741 8.23594 72.6445 8.34819 73.4676 8.57273C74.2904 8.79727 74.9697 9.08324 75.5109 9.43339V12.371C74.957 12.0208 74.3228 11.7455 73.5983 11.537C72.876 11.3312 72.134 11.2296 71.3687 11.2296C70.264 11.2296 69.7131 11.4301 69.7131 11.8283C69.7131 12.0155 69.7986 12.1545 69.9697 12.248C70.1407 12.3415 70.4552 12.4378 70.9108 12.5394L72.6721 12.8761C73.8224 13.0873 74.6803 13.4589 75.2438 13.9881C75.8078 14.5173 76.0894 15.3005 76.0894 16.3376C76.0894 17.4736 75.624 18.3744 74.6903 19.0426C73.7567 19.7108 72.4331 20.0449 70.717 20.0449C69.7079 20.0423 68.7268 19.9113 67.7756 19.6494C66.8243 19.3874 65.9661 19.0079 65.2038 18.508V15.4021C65.7801 15.8752 66.5524 16.2654 67.5212 16.5728C68.49 16.8775 69.4263 17.0299 70.3319 17.0299C70.7547 17.0299 71.0744 16.9711 71.2906 16.8535C71.5073 16.7359 71.6156 16.5942 71.6156 16.4312C71.6156 16.2441 71.5577 16.089 71.4393 15.9634C71.3209 15.8378 71.092 15.7335 70.7525 15.6453L68.6387 15.1401C67.4282 14.8408 66.57 14.4264 66.0595 13.8945C65.5486 13.3653 65.2942 12.6703 65.2942 11.8096C65.2942 11.0853 65.5157 10.4572 65.9639 9.91987C66.409 9.38263 67.0432 8.9683 67.8659 8.67695C68.6891 8.38294 69.65 8.23594 70.7547 8.23594ZM128 6.19648V19.6681H123.684V17.217C123.319 18.1392 122.766 18.8422 122.021 19.3233C121.276 19.8018 120.355 20.0423 119.263 20.0423C118.287 20.0423 117.436 19.791 116.709 19.2859C115.982 18.7807 115.421 18.0884 115.026 17.209C114.633 16.3296 114.434 15.3353 114.434 14.2233C114.422 13.0767 114.63 12.0475 115.061 11.1361C115.489 10.2246 116.095 9.51362 116.875 9.00306C117.655 8.49254 118.546 8.23594 119.545 8.23594C121.566 8.23594 122.932 9.15238 123.647 10.9827L123.684 11.0796L123.684 6.19648H128ZM96.3666 8.23325C97.7635 8.23325 98.9686 8.48182 99.9777 8.98167C100.987 9.48151 101.757 10.1658 102.285 11.0398C102.814 11.9139 103.078 12.9162 103.078 14.0523C103.078 15.1749 102.814 16.1906 102.285 17.102C101.757 18.0135 100.984 18.7299 99.9677 19.2537C98.9511 19.7777 97.7507 20.0396 96.3644 20.0396C94.9777 20.0396 93.7774 19.7803 92.7634 19.2564C91.7468 18.7326 90.9719 18.0162 90.4382 17.1047C89.9049 16.1932 89.6356 15.1776 89.6356 14.0549C89.6356 12.9323 89.9023 11.9299 90.4382 11.0506C90.9741 10.1711 91.7442 9.48151 92.756 8.98167C93.7647 8.48182 94.9703 8.23325 96.3666 8.23325ZM63.2768 11.3017V19.7268H58.9741V11.3017C60.2924 11.9058 61.9282 11.9325 63.2768 11.3017ZM112.059 8.47913C112.68 8.47913 113.214 8.62883 113.662 8.92817V12.9696C113.214 12.6569 112.635 12.5019 111.918 12.5019C110.979 12.5019 110.255 12.8039 109.751 13.408C109.245 14.0121 108.994 14.953 108.994 16.2253V19.668H104.678V8.72237H108.906V12.2025C109.14 10.9302 109.52 9.99203 110.043 9.38523C110.564 8.78117 111.238 8.47913 112.059 8.47913ZM49.8613 6.57066C51.5173 6.57066 52.9163 6.84597 54.064 7.39393C55.2086 7.94184 56.0669 8.70632 56.6357 9.68461C57.2041 10.6629 57.4909 11.7829 57.4909 13.0445C57.4909 14.2794 57.194 15.3994 56.6002 16.4017C56.0064 17.4067 55.1029 18.2006 53.8877 18.786C52.6724 19.3713 51.1673 19.6653 49.3683 19.6653H42.9918V6.57066H49.8613ZM10.6819 10.7506C9.07399 10.7506 7.80572 12.2875 7.80572 14.1559C7.80572 16.0243 9.10166 17.5585 10.6819 17.5585C12.2899 17.5585 13.5606 16.0243 13.5581 14.1559C13.5858 12.2848 12.2899 10.7506 10.6819 10.7506ZM21.3111 10.7506C19.7031 10.7506 18.4348 12.2875 18.4348 14.1559C18.4348 16.0243 19.7308 17.5585 21.3111 17.5585C22.919 17.5585 24.1873 16.0243 24.1873 14.1559C24.2149 12.2848 22.919 10.7506 21.3111 10.7506ZM96.3644 11.6813C95.6119 11.6813 95.0229 11.9032 94.5927 12.3469C94.1651 12.7906 93.951 13.384 93.951 14.1324C93.951 14.8809 94.1651 15.4823 94.5927 15.9366C95.0207 16.3911 95.6119 16.6209 96.3644 16.6209C97.1039 16.6182 97.688 16.3911 98.1156 15.9366C98.5436 15.4823 98.7599 14.8809 98.7599 14.1324C98.7599 13.384 98.5458 12.7879 98.1156 12.3469C97.688 11.9032 97.1039 11.6813 96.3644 11.6813ZM121.306 11.7375C120.579 11.7375 119.998 11.9593 119.563 12.403C119.127 12.8468 118.911 13.4214 118.911 14.1324C118.911 14.8435 119.127 15.4235 119.563 15.8725C119.998 16.3215 120.572 16.5461 121.289 16.5461C122.016 16.5434 122.6 16.3162 123.04 15.8618C123.481 15.4074 123.699 14.8167 123.699 14.095C123.699 13.3974 123.485 12.828 123.058 12.3924C122.63 11.9567 122.043 11.7375 121.306 11.7375ZM49.5468 9.90112H47.3979V16.3376H49.2977C50.4125 16.3376 51.2708 16.0409 51.8694 15.4501C52.4685 14.8567 52.768 14.0495 52.768 13.0258C52.768 12.0769 52.5009 11.3204 51.9677 10.7538C51.4344 10.1871 50.6265 9.90112 49.5468 9.90112ZM61.1274 5.78206C62.3155 5.78206 63.279 6.70111 63.279 7.83484C63.279 8.96858 62.3155 9.88767 61.1274 9.88767C59.9389 9.88767 58.9759 8.96858 58.9759 7.83484C58.9759 6.70111 59.9389 5.78206 61.1274 5.78206Z" fill="white"/>
</svg>
