<svg id="Layer_1" data-name="Layer 1" xmlns="http://www.w3.org/2000/svg" viewBox="0 0 150 150"><defs><style>.cls-1{fill:#edddd6;}.cls-2{fill:#f7734f;}.cls-3{fill:#5c5cc6;}.cls-4{fill:#f49282;}.cls-5{fill:#7772d3;}.cls-6{fill:#46467f;}</style></defs><title>profile-2</title><path class="cls-1" d="M175,100a75,75,0,0,1-5.16,27.41,73.39,73.39,0,0,1-10.43,18.32c-.75,1-1.54,2-2.38,2.91-.58.69-1.17,1.37-1.78,2A74.57,74.57,0,0,1,141,162.84c-1.61,1-3.25,2-4.94,3a75.06,75.06,0,0,1-77.5-3.31c-.31-.21-.61-.42-.92-.65a68.38,68.38,0,0,1-7.79-6.13c-.27-.24-.54-.48-.8-.74-1.13-1-2.2-2.09-3.25-3.18-.53-.56-1.06-1.13-1.58-1.71l-.2-.24A75,75,0,1,1,175,100Z" transform="translate(-25 -25)"/><path class="cls-2" d="M155.25,150.69A74.57,74.57,0,0,1,141,162.84c-1.61,1-3.25,2-4.94,3a75.06,75.06,0,0,1-77.5-3.31c-.31-.21-.61-.42-.92-.65a68.38,68.38,0,0,1-7.79-6.13c-.27-.24-.54-.48-.8-.74-1.13-1-2.2-2.09-3.25-3.18C48.58,143.25,55,132.31,60,124.47a34.19,34.19,0,0,1,26.24-15.7c13.67-1,30.45,1,42.51,3.43,5,1,9.43,4.52,12.41,9.83A257.55,257.55,0,0,1,155.25,150.69Z" transform="translate(-25 -25)"/><path d="M126.38,72.53s-.63,11.43-5.77,12-12.72-6-12.72-6l3.55-12.86Z" transform="translate(-25 -25)"/><path class="cls-3" d="M87.12,69.28S70.33,63.89,67.83,56.76s29.22,3.66,29.22,3.66Z" transform="translate(-25 -25)"/><path class="cls-4" d="M111.44,93.75l-1.3,18.17s-3.28,5.13-13.78,5.88c-7.81.57-10.54-1.22-10.54-1.22L87,107.51l1.15-8.84,19-4Z" transform="translate(-25 -25)"/><path d="M107.11,94.67a6,6,0,0,1-.53,1.72c-4.09,8.92-15.08,10.76-19.59,11.12l1.15-8.84Z" transform="translate(-25 -25)"/><path class="cls-4" d="M84.51,57.77s-9.61,22.39-6,34.91,15,10.47,21.83,8a22.68,22.68,0,0,0,10-6.68,9.64,9.64,0,0,0,10.63-3.85c4.24-6,1.56-12.77-2.1-14.31s-8,1.13-8,1.13l3.35-6.51S99.69,37.58,84.51,57.77Z" transform="translate(-25 -25)"/><path d="M111.44,86.74a.82.82,0,0,1-.66-.34.8.8,0,0,1,.2-1.12l8.12-5.74a.81.81,0,0,1,.93,1.32l-8.13,5.73A.79.79,0,0,1,111.44,86.74Z" transform="translate(-25 -25)"/><path d="M118.8,86.71a.76.76,0,0,1-.21,0l-5.3-1.42a.8.8,0,1,1,.41-1.55L119,85.13a.8.8,0,0,1,.57,1A.81.81,0,0,1,118.8,86.71Z" transform="translate(-25 -25)"/><path d="M99.44,68.53a.8.8,0,0,1-.64-.32,3.59,3.59,0,0,0-2.32-1.56,3.48,3.48,0,0,0-2.31.63.81.81,0,1,1-1-1.27,5.06,5.06,0,0,1,3.49-1,5.14,5.14,0,0,1,3.41,2.19.81.81,0,0,1-.15,1.13A.82.82,0,0,1,99.44,68.53Z" transform="translate(-25 -25)"/><path d="M82.06,66.94a.82.82,0,0,1-.62-.3.8.8,0,0,1,.12-1.13,3.72,3.72,0,0,1,3-1.06,2.11,2.11,0,0,1,1.44,1,.79.79,0,0,1-.31,1.09.81.81,0,0,1-1.09-.3.52.52,0,0,0-.37-.23c-.23,0-.75,0-1.64.74A.81.81,0,0,1,82.06,66.94Z" transform="translate(-25 -25)"/><path d="M85.21,85.52a.81.81,0,0,1-.78-.6A18.09,18.09,0,0,1,85,75.1a.81.81,0,0,1,1-.47.8.8,0,0,1,.47,1A16.64,16.64,0,0,0,86,84.5a.8.8,0,0,1-.56,1A.76.76,0,0,1,85.21,85.52Z" transform="translate(-25 -25)"/><path d="M82.07,75.53a.78.78,0,0,1-.22,0,.81.81,0,0,1-.56-1l1.16-4.1a.79.79,0,0,1,1-.55.8.8,0,0,1,.56,1l-1.16,4.1A.81.81,0,0,1,82.07,75.53Z" transform="translate(-25 -25)"/><path d="M95.22,75.89l-.22,0a.81.81,0,0,1-.55-1l1.15-4.1a.82.82,0,0,1,1-.55.8.8,0,0,1,.55,1L96,75.3A.81.81,0,0,1,95.22,75.89Z" transform="translate(-25 -25)"/><path d="M83.23,61s1.32-1.79,5.79-1.78a9.67,9.67,0,0,1,7.06,3.18s.37,8.11,6.42,12.16S110.86,77,110.86,77l4.42-1.54L118.57,69,105.94,55.15,90.75,48.67,83.23,57Z" transform="translate(-25 -25)"/><path d="M89.73,90.73c-.28,0-.47,0-.5,0a.81.81,0,0,1-.72-.88.8.8,0,0,1,.88-.72,5.31,5.31,0,0,0,5.13-2.83A.81.81,0,1,1,96,87,6.75,6.75,0,0,1,89.73,90.73Z" transform="translate(-25 -25)"/><path class="cls-5" d="M82.65,56.08s6.33-18,28.79-14.15,14.94,32.4,14.94,32.4L116.15,71Z" transform="translate(-25 -25)"/><path class="cls-3" d="M76.11,54.81s7.87.29,28.12,9.67a137.12,137.12,0,0,1,13.08,7S94,61.69,84.92,61.8a12.78,12.78,0,0,0-5.73,1.35Z" transform="translate(-25 -25)"/><path class="cls-6" d="M92.68,118.41a32.57,32.57,0,0,1-7.05-.71.81.81,0,0,1,.37-1.57c.14,0,13.4,3.08,23.66-4.52a.81.81,0,0,1,1.12.17.8.8,0,0,1-.16,1.12A30,30,0,0,1,92.68,118.41Z" transform="translate(-25 -25)"/></svg>