<svg id="Layer_1" data-name="Layer 1" xmlns="http://www.w3.org/2000/svg" viewBox="0 0 150 150"><defs><style>.cls-1{fill:#edddd6;}.cls-2{fill:#ffbf69;}.cls-3{fill:#7772d3;}.cls-4{fill:#f27e64;}.cls-5{fill:#fff;}</style></defs><title>profile-3</title><path class="cls-1" d="M175,100a74.69,74.69,0,0,1-17.65,48.34c-1.38,1.64-2.84,3.24-4.36,4.75a70.76,70.76,0,0,1-7.85,6.8c-1.35,1-2.75,2-4.18,3a4.14,4.14,0,0,1-.5.3,64.41,64.41,0,0,1-6.3,3.64l-1.51.76a76.69,76.69,0,0,1-7.18,3,73.13,73.13,0,0,1-10,2.85A75.31,75.31,0,0,1,100,175q-3.41,0-6.74-.31a67.17,67.17,0,0,1-6.85-.94q-1.89-.34-3.72-.78a70.38,70.38,0,0,1-10.38-3.28,71.65,71.65,0,0,1-8.63-4.09c-.33-.17-.65-.35-.95-.54a61.22,61.22,0,0,1-5.5-3.46c-1.53-1-3-2.17-4.48-3.36l-.51-.41a78.87,78.87,0,0,1-5.87-5.4c-.53-.53-1.05-1.08-1.55-1.63-1.43-1.54-2.8-3.15-4.08-4.81s-2.48-3.33-3.61-5.06A75,75,0,1,1,175,100Z" transform="translate(-25 -25)"/><path class="cls-2" d="M157.35,148.34c-1.38,1.64-2.84,3.24-4.36,4.75a70.76,70.76,0,0,1-7.85,6.8c-1.35,1-2.75,2-4.18,3a4.14,4.14,0,0,1-.5.3l.45-33A180.92,180.92,0,0,1,157.35,148.34Z" transform="translate(-25 -25)"/><path class="cls-3" d="M134.16,166.78l-1.51.76a74.3,74.3,0,0,1-17.22,5.87A75.31,75.31,0,0,1,100,175q-3.41,0-6.74-.31a67.17,67.17,0,0,1-6.85-.94q-1.89-.34-3.72-.78a70.38,70.38,0,0,1-10.38-3.28l15.64-53a115,115,0,0,1,26-.39C123,117.23,130.22,146.53,134.16,166.78Z" transform="translate(-25 -25)"/><path class="cls-2" d="M114,116.28l-23.77,1.5s-2.38,24.71-3.78,56q-1.89-.34-3.72-.78a73.72,73.72,0,0,1-19-7.37c-.33-.17-.65-.35-.95-.54a61.22,61.22,0,0,1-5.5-3.46c-1.53-1-3-2.17-4.48-3.36l-.51-.41a78.87,78.87,0,0,1-5.87-5.4c-.53-.53-1.05-1.08-1.55-1.63.45-10.21,1.85-17.82,4.7-20.48,12.64-11.76,44-15.68,44-15.68l14.67-.21S110.53,115.11,114,116.28Z" transform="translate(-25 -25)"/><path class="cls-2" d="M145.14,159.89c-1.35,1-2.75,2-4.18,3a71.57,71.57,0,0,1-6.8,3.94l-1.51.76a76.69,76.69,0,0,1-7.18,3l0-.58c-4.21-43.79-11-53.12-11.4-53.68,9.06,3.1,25.88,9.71,29,16.84C144.16,135.86,144.82,146.25,145.14,159.89Z" transform="translate(-25 -25)"/><path d="M99,60.07S83.58,25.57,66,43.1C51.19,57.76,74.08,80.36,87.31,73.91S99,60.07,99,60.07Z" transform="translate(-25 -25)"/><path d="M122.58,88.22A22.81,22.81,0,0,0,126.92,70c-1.37-7.48-4.74-9.86-4.74-9.86s4.94-10.3-10.17-9.47S88.1,59,88.1,59s-7-3.3-9.95,4.81.28,20,.28,20Z" transform="translate(-25 -25)"/><path class="cls-4" d="M89.55,101.15l.72,18.45s3.54,5.18,14.37,5.63c8.07.34,10.45-3.89,10.45-3.89l-2.58-16.07-19.66-3.53Z" transform="translate(-25 -25)"/><path d="M89.54,100a6,6,0,0,0,.6,1.76c4.49,9.06,19.17,12.33,23.83,12.56l-1.46-9.07Z" transform="translate(-25 -25)"/><path class="cls-4" d="M115,63s10.59,22.76,7.28,35.77-15.14,11.25-22.24,8.92a23.37,23.37,0,0,1-10.47-6.58,9.92,9.92,0,0,1-11.07-3.63c-4.54-6-2-13.1,1.72-14.8s8.25.91,8.25.91L84.79,77S98.72,42.72,115,63Z" transform="translate(-25 -25)"/><path d="M88.45,83.63s9.92,1.86,16.63-9.25,6-15.61,6-15.61l7,11.27s1.42-7.9-1.8-12.88-6.48-3.89-6.48-3.89L88.1,59,82.6,76.58Z" transform="translate(-25 -25)"/><path d="M114.6,92.36a.91.91,0,0,1-.23,0,.8.8,0,0,1-.54-1c1.22-4.21-2-8.71-2-8.76a.81.81,0,0,1,1.3-.95c.15.21,3.72,5.18,2.27,10.16A.8.8,0,0,1,114.6,92.36Z" transform="translate(-25 -25)"/><path d="M87.64,94.5a.78.78,0,0,1-.57-.24l-6.36-6.51a.81.81,0,0,1,0-1.14.81.81,0,0,1,1.14,0l6.36,6.52a.81.81,0,0,1,0,1.14A.79.79,0,0,1,87.64,94.5Z" transform="translate(-25 -25)"/><path d="M81,92.84a.81.81,0,0,1-.8-.67.8.8,0,0,1,.66-.92l4.31-.73a.82.82,0,0,1,.93.66.8.8,0,0,1-.66.92l-4.31.73Z" transform="translate(-25 -25)"/><path d="M118.76,73.46h-.12l-4.1-.65a.81.81,0,1,1,.26-1.59l4.09.65a.8.8,0,0,1,.67.92A.81.81,0,0,1,118.76,73.46Z" transform="translate(-25 -25)"/><path d="M101.82,76.38a.81.81,0,0,1-.37-1.52l6.65-3.48a.8.8,0,1,1,.75,1.42l-6.65,3.49A.85.85,0,0,1,101.82,76.38Z" transform="translate(-25 -25)"/><path d="M118.89,82.9a.8.8,0,0,1-.76-.56l-1.33-4.13a.81.81,0,0,1,.13-.75l1.26-1.58a.81.81,0,0,1,1.13-.12.82.82,0,0,1,.13,1.13l-1,1.24,1.2,3.72a.8.8,0,0,1-.52,1A.69.69,0,0,1,118.89,82.9Z" transform="translate(-25 -25)"/><path d="M105.68,84.18a.8.8,0,0,1-.76-.56l-1.33-4.13a.8.8,0,0,1,.14-.76l1.74-2.08a.8.8,0,0,1,1.13-.11.81.81,0,0,1,.1,1.14l-1.45,1.74,1.2,3.71a.8.8,0,0,1-.52,1A.69.69,0,0,1,105.68,84.18Z" transform="translate(-25 -25)"/><path d="M111.35,98.47c-2.88,0-6.06-3.07-6.48-3.49A.8.8,0,1,1,106,93.84c1.06,1,4.47,3.81,6.26,2.79a.82.82,0,0,1,1.1.31.8.8,0,0,1-.3,1.09A3.38,3.38,0,0,1,111.35,98.47Z" transform="translate(-25 -25)"/><path class="cls-2" d="M57.24,161.6c-1.53-1-3-2.17-4.48-3.36l-.51-.41a78.87,78.87,0,0,1-5.87-5.4A73.3,73.3,0,0,1,40.75,146c-1.27-1.64-2.48-3.33-3.61-5.06a133.47,133.47,0,0,1,18.47-15Z" transform="translate(-25 -25)"/><path class="cls-5" d="M106.27,126.11a16.77,16.77,0,0,1-1.7-.08c-7.25-.66-14.45-5.56-14.75-5.76a.81.81,0,1,1,.91-1.33c.07,0,7.16,4.86,14,5.49,7.15.66,9.59-3.32,9.69-3.49a.81.81,0,0,1,1.1-.29.8.8,0,0,1,.29,1.09C115.68,121.93,113.2,126.11,106.27,126.11Z" transform="translate(-25 -25)"/></svg>