<svg id="Layer_1" data-name="Layer 1" xmlns="http://www.w3.org/2000/svg" viewBox="0 0 150 150"><defs><style>.cls-1{fill:#e8e1ef;}.cls-2{fill:#6876aa;}.cls-3{fill:#f48462;}.cls-4{fill:#f7b369;}</style></defs><title>profile-1</title><path class="cls-1" d="M175,100a74.72,74.72,0,0,1-9.78,37.05,75.78,75.78,0,0,1-5.95,8.9,74.56,74.56,0,0,1-10.86,11.32l-.34.28a75.13,75.13,0,0,1-16,10.27,72.81,72.81,0,0,1-8.07,3.27,75.33,75.33,0,0,1-44.69,1,74.17,74.17,0,0,1-16.41-6.92A75,75,0,0,1,44.09,150c-.32-.35-.62-.7-.93-1.06-.5-.56-1-1.14-1.45-1.72A75,75,0,1,1,175,100Z" transform="translate(-25 -25)"/><path d="M88.43,68s-13-10.39-7.08-19S100,49.1,100,49.1s4.94-5,11.94-.94,7.79,13.76,7.79,13.76,7.13-.16,7.53,8.51-8.92,16.39-8.92,16.39Z" transform="translate(-25 -25)"/><path class="cls-2" d="M148.07,157.55a75.13,75.13,0,0,1-16,10.27,72.81,72.81,0,0,1-8.07,3.27,75.33,75.33,0,0,1-44.69,1,74.17,74.17,0,0,1-16.41-6.92L62,115c19.85-13.93,39.1-10.46,39.1-10.46s25.29-2.87,38.5,9.21a22.83,22.83,0,0,1,4.84,6.19C146.54,123.92,147.59,139.75,148.07,157.55Z" transform="translate(-25 -25)"/><path class="cls-3" d="M111.25,91.59l.17,16.53s-2.94,4.77-12.59,5.66c-7.2.65-9.74-1-9.74-1l.92-8.38.91-8.17,17.41-4Z" transform="translate(-25 -25)"/><path d="M108.33,92.27a5.5,5.5,0,0,1-.46,1.6C104.25,102.16,94.16,104,90,104.45l.91-8.17Z" transform="translate(-25 -25)"/><path class="cls-3" d="M86.86,58.66s-8.46,20.8-4.93,32.27,14,9.39,20.26,7a20.87,20.87,0,0,0,9.06-6.33A8.9,8.9,0,0,0,121,87.87c3.79-5.57,1.21-11.8-2.19-13.15s-7.33,1.17-7.33,1.17l3-6.06S100.51,39.78,86.86,58.66Z" transform="translate(-25 -25)"/><path d="M112.17,85a.79.79,0,0,1-.65-.33.8.8,0,0,1,.17-1.12l7.39-5.43a.81.81,0,0,1,1,1.3l-7.39,5.43A.82.82,0,0,1,112.17,85Z" transform="translate(-25 -25)"/><path d="M119,84.79a.62.62,0,0,1-.19,0l-4.92-1.21a.81.81,0,0,1-.58-1,.8.8,0,0,1,1-.59l4.91,1.22a.8.8,0,0,1-.19,1.58Z" transform="translate(-25 -25)"/><path d="M100.78,67.38a.69.69,0,0,1-.28,0,30.2,30.2,0,0,0-6-.68.8.8,0,0,1-.78-.82.76.76,0,0,1,.83-.78,30.61,30.61,0,0,1,6.48.77.8.8,0,0,1-.27,1.56Z" transform="translate(-25 -25)"/><path d="M84.75,66.76a.81.81,0,0,1-.8-.68.8.8,0,0,1,.67-.92,15.25,15.25,0,0,1,3-.3.8.8,0,0,1-.13,1.6,18.13,18.13,0,0,0-2.58.29Z" transform="translate(-25 -25)"/><path d="M89,85.14a.81.81,0,0,1-.77-.57,13.72,13.72,0,0,1,1.53-11.71.8.8,0,0,1,1.3.94,12.4,12.4,0,0,0-1.29,10.3.8.8,0,0,1-.53,1A.67.67,0,0,1,89,85.14Z" transform="translate(-25 -25)"/><path d="M84.9,74.7l-.2,0a.82.82,0,0,1-.58-1l1-3.8a.8.8,0,1,1,1.55.41l-1,3.8A.81.81,0,0,1,84.9,74.7Z" transform="translate(-25 -25)"/><path d="M95.36,74.8l-.21,0a.82.82,0,0,1-.57-1l1-3.8a.8.8,0,1,1,1.55.41l-1,3.8A.8.8,0,0,1,95.36,74.8Z" transform="translate(-25 -25)"/><path d="M85.17,63.34a7,7,0,0,1,5.88-3.41,9,9,0,0,1,6.56,2.81s-1.74,7,3.9,10.59,10,2.56,10,2.56l4-1.49,2.93-6L106.56,55.87,91.26,48l-7.68,7.12Z" transform="translate(-25 -25)"/><path d="M92.13,89h-.35a.81.81,0,0,1-.74-.87.83.83,0,0,1,.87-.73,4.79,4.79,0,0,0,4.61-2.66.82.82,0,0,1,1.07-.4A.81.81,0,0,1,98,85.4,6.28,6.28,0,0,1,92.13,89Z" transform="translate(-25 -25)"/><path class="cls-4" d="M90,104.45a27.87,27.87,0,0,0-5.44,10.28c-1.15,3.78-.87,9.36-.07,9.37s6.74-9.2,10.53-9.76,7,10.46,8.59,10.84,7.92-4,10.16-10.23A10.12,10.12,0,0,0,112,104.63S92.42,119.5,90,104.45Z" transform="translate(-25 -25)"/><path class="cls-2" d="M79.29,172.09a74.17,74.17,0,0,1-16.41-6.92A75,75,0,0,1,44.09,150c-.32-.35-.62-.7-.93-1.06.71-2.17,1.48-4.34,2.33-6.45C53.23,123.2,62,115,62,115Z" transform="translate(-25 -25)"/><path class="cls-2" d="M159.27,146a74.56,74.56,0,0,1-10.86,11.32l-.34.28a75.13,75.13,0,0,1-16,10.27l7.55-54S150.18,121.94,159.27,146Z" transform="translate(-25 -25)"/><path class="cls-4" d="M61.84,162.13h-.08a.79.79,0,0,1-.72-.88l1.53-14.88a.82.82,0,0,1,.88-.72.81.81,0,0,1,.72.88L62.64,161.4A.8.8,0,0,1,61.84,162.13Z" transform="translate(-25 -25)"/></svg>