<svg width="20" height="20" viewBox="0 0 20 20" fill="none" xmlns="http://www.w3.org/2000/svg">
<path d="M10 2.5C5.85786 2.5 2.5 5.85786 2.5 10C2.5 11.0901 2.73257 12.1259 3.15079 13.0604C3.19242 13.1535 3.20725 13.2565 3.19049 13.3571L2.55754 17.1548C2.52934 17.324 2.67603 17.4707 2.84524 17.4425L6.64293 16.8095C6.74348 16.7928 6.84653 16.8076 6.93958 16.8492C7.87413 17.2674 8.9099 17.5 10 17.5C14.1421 17.5 17.5 14.1421 17.5 10C17.5 5.85786 14.1421 2.5 10 2.5Z" stroke="#475569" stroke-width="1.67"/>
<rect x="6" y="10.67" width="7" height="1.67" rx="0.835" fill="#475569"/>
<rect x="6" y="7" width="8" height="1.67" rx="0.835" fill="#475569"/>
</svg>
