<svg width="20" height="20" viewBox="0 0 20 20" fill="none" xmlns="http://www.w3.org/2000/svg">
<path d="M12.5 17.5V13.3333C12.5 11.9526 11.3807 10.8333 10 10.8333C8.61929 10.8333 7.5 11.9526 7.5 13.3333V17.5M6.33801 4.70856L4.17134 6.75486C3.55527 7.3367 3.24723 7.62763 3.02659 7.97203C2.83101 8.27731 2.68654 8.61246 2.59889 8.96427C2.5 9.36115 2.5 9.78485 2.5 10.6323V12.1667C2.5 14.0335 2.5 14.9669 2.86331 15.68C3.18289 16.3072 3.69282 16.8171 4.32003 17.1367C5.03307 17.5 5.96649 17.5 7.83333 17.5H12.1667C14.0335 17.5 14.9669 17.5 15.68 17.1367C16.3072 16.8171 16.8171 16.3072 17.1367 15.68C17.5 14.9669 17.5 14.0335 17.5 12.1667V10.6323C17.5 9.78485 17.5 9.36115 17.4011 8.96427C17.3135 8.61246 17.169 8.27731 16.9734 7.97203C16.7528 7.62763 16.4447 7.3367 15.8287 6.75486L13.662 4.70856C12.3732 3.4914 11.7289 2.88283 10.9938 2.65323C10.3467 2.45112 9.65333 2.45112 9.00623 2.65323C8.27114 2.88283 7.62676 3.4914 6.33801 4.70856Z" stroke="#475569" stroke-width="1.66667" stroke-linecap="round" stroke-linejoin="round"/>
</svg>
