<svg width="20" height="20" viewBox="0 0 20 20" fill="none" xmlns="http://www.w3.org/2000/svg">
<mask id="mask0_102_40" style="mask-type:alpha" maskUnits="userSpaceOnUse" x="0" y="0" width="20" height="20">
<rect width="20" height="20" fill="#D9D9D9"/>
</mask>
<g mask="url(#mask0_102_40)">
<path d="M4.5 17C4.0875 17 3.73437 16.8531 3.44062 16.5594C3.14687 16.2656 3 15.9125 3 15.5V10V4.5C3 4.0875 3.14687 3.73437 3.44062 3.44062C3.73437 3.14687 4.0875 3 4.5 3H15.5C15.9125 3 16.2656 3.14687 16.5594 3.44062C16.8531 3.73437 17 4.0875 17 4.5V9.59659C17 9.73337 16.8657 9.82988 16.7346 9.79099C16.5818 9.74568 16.4265 9.7048 16.2688 9.66833C16.0761 9.6238 15.8796 9.58851 15.6795 9.56245C15.5777 9.54921 15.5 9.46358 15.5 9.36096V4.5H4.5V15.5H9.33913C9.44218 15.5 9.528 15.5784 9.54066 15.6806C9.56615 15.8866 9.60077 16.0851 9.64454 16.2762C9.67975 16.43 9.72019 16.5817 9.76588 16.7315C9.80614 16.8635 9.70948 17 9.57149 17H4.5ZM4.5 15.5V4.5V9.54167V9.5V15.5ZM6 13.25C6 13.6642 6.33579 14 6.75 14H9.42105C9.51563 14 9.59696 13.9337 9.61871 13.8416C9.66797 13.6331 9.72695 13.4292 9.79563 13.2299C9.84767 13.0789 9.90334 12.9301 9.96264 12.7837C10.017 12.6494 9.91991 12.5 9.77503 12.5H6.75C6.33579 12.5 6 12.8358 6 13.25ZM6 10C6 10.4142 6.33579 10.75 6.75 10.75H11.432C11.4761 10.75 11.5189 10.7353 11.5541 10.7088C11.8999 10.4485 12.2707 10.2226 12.6667 10.0312C13.0686 9.837 13.4963 9.69766 13.9499 9.61325C13.9789 9.60786 14 9.58271 14 9.55328C14 9.38578 13.8642 9.25 13.6967 9.25H6.75C6.33579 9.25 6 9.58579 6 10ZM6 6.75C6 7.16421 6.33579 7.5 6.75 7.5H13.25C13.6642 7.5 14 7.16421 14 6.75C14 6.33579 13.6642 6 13.25 6H6.75C6.33579 6 6 6.33579 6 6.75ZM14.9953 19C13.8873 19 12.9444 18.6095 12.1667 17.8286C11.3889 17.0477 11 16.1033 11 14.9953C11 13.8873 11.3905 12.9444 12.1714 12.1667C12.9523 11.3889 13.8967 11 15.0047 11C16.1127 11 17.0556 11.3905 17.8333 12.1714C18.6111 12.9523 19 13.8967 19 15.0047C19 16.1127 18.6095 17.0556 17.8286 17.8333C17.0477 18.6111 16.1033 19 14.9953 19ZM14.5 17H15.5V15.5H17V14.5H15.5V13H14.5V14.5H13V15.5H14.5V17Z" fill="#475569"/>
</g>
</svg>
