<svg width="20" height="20" viewBox="0 0 20 20" fill="none" xmlns="http://www.w3.org/2000/svg">
<mask id="mask0_102_46" style="mask-type:alpha" maskUnits="userSpaceOnUse" x="0" y="0" width="20" height="20">
<rect width="20" height="20" fill="#D9D9D9"/>
</mask>
<g mask="url(#mask0_102_46)">
<path d="M14 17C13.4477 17 13 16.5523 13 16V14.75H10.25C9.69772 14.75 9.25 14.3023 9.25 13.75V6.75H7V8C7 8.55228 6.55228 9 6 9H3C2.44772 9 2 8.55228 2 8V4C2 3.44772 2.44772 3 3 3H6C6.55228 3 7 3.44772 7 4V5.25H13V4C13 3.44772 13.4477 3 14 3H17C17.5523 3 18 3.44772 18 4V8C18 8.55228 17.5523 9 17 9H14C13.4477 9 13 8.55228 13 8V6.75H10.75V13.25H13V12C13 11.4477 13.4477 11 14 11H17C17.5523 11 18 11.4477 18 12V16C18 16.5523 17.5523 17 17 17H14ZM14.5 7.5H16.5V4.5H14.5V7.5ZM14.5 15.5H16.5V12.5H14.5V15.5ZM3.5 7.5H5.5V4.5H3.5V7.5Z" fill="#475569"/>
</g>
</svg>
