<svg width="20" height="20" viewBox="0 0 20 20" fill="none" xmlns="http://www.w3.org/2000/svg">
<path d="M2.5 5.16667C2.5 4.23325 2.5 3.76654 2.68166 3.41002C2.84144 3.09641 3.09641 2.84144 3.41002 2.68166C3.76654 2.5 4.23325 2.5 5.16667 2.5H5.66667C6.60009 2.5 7.0668 2.5 7.42332 2.68166C7.73692 2.84144 7.99189 3.09641 8.15168 3.41002C8.33333 3.76654 8.33333 4.23325 8.33333 5.16667V5.66667C8.33333 6.60009 8.33333 7.0668 8.15168 7.42332C7.99189 7.73692 7.73692 7.99189 7.42332 8.15168C7.0668 8.33333 6.60009 8.33333 5.66667 8.33333H5.16667C4.23325 8.33333 3.76654 8.33333 3.41002 8.15168C3.09641 7.99189 2.84144 7.73692 2.68166 7.42332C2.5 7.0668 2.5 6.60009 2.5 5.66667V5.16667Z" stroke="#475569" stroke-width="1.66667" stroke-linecap="round" stroke-linejoin="round"/>
<path d="M2.5 14.3333C2.5 13.3999 2.5 12.9332 2.68166 12.5767C2.84144 12.2631 3.09641 12.0081 3.41002 11.8483C3.76654 11.6667 4.23325 11.6667 5.16667 11.6667H5.66667C6.60009 11.6667 7.0668 11.6667 7.42332 11.8483C7.73692 12.0081 7.99189 12.2631 8.15168 12.5767C8.33333 12.9332 8.33333 13.3999 8.33333 14.3333V14.8333C8.33333 15.7668 8.33333 16.2335 8.15168 16.59C7.99189 16.9036 7.73692 17.1586 7.42332 17.3183C7.0668 17.5 6.60009 17.5 5.66667 17.5H5.16667C4.23325 17.5 3.76654 17.5 3.41002 17.3183C3.09641 17.1586 2.84144 16.9036 2.68166 16.59C2.5 16.2335 2.5 15.7668 2.5 14.8333V14.3333Z" stroke="#475569" stroke-width="1.66667" stroke-linecap="round" stroke-linejoin="round"/>
<path d="M11.6667 5.16667C11.6667 4.23325 11.6667 3.76654 11.8483 3.41002C12.0081 3.09641 12.2631 2.84144 12.5767 2.68166C12.9332 2.5 13.3999 2.5 14.3333 2.5H14.8333C15.7668 2.5 16.2335 2.5 16.59 2.68166C16.9036 2.84144 17.1586 3.09641 17.3183 3.41002C17.5 3.76654 17.5 4.23325 17.5 5.16667V5.66667C17.5 6.60009 17.5 7.0668 17.3183 7.42332C17.1586 7.73692 16.9036 7.99189 16.59 8.15168C16.2335 8.33333 15.7668 8.33333 14.8333 8.33333H14.3333C13.3999 8.33333 12.9332 8.33333 12.5767 8.15168C12.2631 7.99189 12.0081 7.73692 11.8483 7.42332C11.6667 7.0668 11.6667 6.60009 11.6667 5.66667V5.16667Z" stroke="#475569" stroke-width="1.66667" stroke-linecap="round" stroke-linejoin="round"/>
<path d="M11.6667 14.3333C11.6667 13.3999 11.6667 12.9332 11.8483 12.5767C12.0081 12.2631 12.2631 12.0081 12.5767 11.8483C12.9332 11.6667 13.3999 11.6667 14.3333 11.6667H14.8333C15.7668 11.6667 16.2335 11.6667 16.59 11.8483C16.9036 12.0081 17.1586 12.2631 17.3183 12.5767C17.5 12.9332 17.5 13.3999 17.5 14.3333V14.8333C17.5 15.7668 17.5 16.2335 17.3183 16.59C17.1586 16.9036 16.9036 17.1586 16.59 17.3183C16.2335 17.5 15.7668 17.5 14.8333 17.5H14.3333C13.3999 17.5 12.9332 17.5 12.5767 17.3183C12.2631 17.1586 12.0081 16.9036 11.8483 16.59C11.6667 16.2335 11.6667 15.7668 11.6667 14.8333V14.3333Z" stroke="#475569" stroke-width="1.66667" stroke-linecap="round" stroke-linejoin="round"/>
</svg>
