<svg width="20" height="20" viewBox="0 0 20 20" fill="none" xmlns="http://www.w3.org/2000/svg">
<path d="M12.7905 8.22053C12.9201 8.25265 13.055 8.26963 13.1935 8.26963C14.16 8.26963 14.9508 7.44343 14.9508 6.41482C14.9508 5.3862 14.16 4.56 13.1935 4.56C13.1454 4.56 13.0976 4.56206 13.0504 4.56609C12.9142 4.02578 12.7028 3.51742 12.4287 3.05402C12.674 2.99256 12.9301 2.96 13.1935 2.96C15.012 2.96 16.4788 4.511 16.4788 6.41482C16.4788 8.31863 15.012 9.86963 13.1935 9.86963C12.7576 9.86963 12.3419 9.78049 11.9617 9.61871C12.2997 9.20075 12.5802 8.73023 12.7905 8.22053Z" fill="#475569"/>
<path d="M15.5203 18H16.9754C18.0976 18 19 17.0433 19 15.8726C19 14.9406 18.6481 13.981 18.0971 13.2506C17.548 12.5226 16.7175 11.92 15.7148 11.92H14.9674C15.3636 12.3959 15.6843 12.9426 15.9098 13.5395C16.2441 13.6056 16.5944 13.8398 16.898 14.2423C17.2595 14.7216 17.472 15.3384 17.472 15.8726C17.472 16.1681 17.2456 16.4 16.9754 16.4H16.2069C16.0924 16.991 15.8536 17.5348 15.5203 18Z" fill="#475569"/>
<path fill-rule="evenodd" clip-rule="evenodd" d="M7.87607 3.6C6.61022 3.6 5.58405 4.67452 5.58405 6C5.58405 7.32548 6.61022 8.4 7.87607 8.4C9.14192 8.4 10.1681 7.32548 10.1681 6C10.1681 4.67452 9.14192 3.6 7.87607 3.6ZM4.05603 6C4.05603 3.79086 5.76632 2 7.87607 2C9.98582 2 11.6961 3.79086 11.6961 6C11.6961 8.20914 9.98582 10 7.87607 10C5.76632 10 4.05603 8.20914 4.05603 6ZM4.82004 13.2C3.55419 13.2 2.52802 14.2745 2.52802 15.6C2.52802 16.0418 2.87007 16.4 3.29202 16.4H12.4601C12.8821 16.4 13.2241 16.0418 13.2241 15.6C13.2241 14.2745 12.1979 13.2 10.9321 13.2H4.82004ZM1 15.6C1 13.3909 2.71029 11.6 4.82004 11.6H10.9321C13.0418 11.6 14.7521 13.3909 14.7521 15.6C14.7521 16.9255 13.726 18 12.4601 18H3.29202C2.02617 18 1 16.9255 1 15.6Z" fill="#475569"/>
</svg>
