<svg width="30" height="30" viewBox="0 0 30 30" fill="none" xmlns="http://www.w3.org/2000/svg">
<rect y="1.52588e-05" width="30" height="30" rx="15" fill="#E7E7E8"/>
<path d="M7.11861 20.5V10.3182H8.65483V15.1804H8.77912L13.0497 10.3182H14.9837L10.8771 14.902L14.9986 20.5H13.1491L9.85795 15.951L8.65483 17.3331V20.5H7.11861ZM19.7116 20.5H16.4155V10.3182H19.8161C20.8137 10.3182 21.6705 10.522 22.3864 10.9297C23.1023 11.334 23.6508 11.9157 24.032 12.6747C24.4164 13.4304 24.6087 14.3369 24.6087 15.3942C24.6087 16.4548 24.4148 17.3662 24.027 18.1286C23.6425 18.8909 23.0857 19.4775 22.3565 19.8885C21.6274 20.2962 20.7457 20.5 19.7116 20.5ZM17.9517 19.1577H19.6271C20.4027 19.1577 21.0473 19.0118 21.5611 18.7202C22.0748 18.4252 22.4593 17.9993 22.7145 17.4425C22.9697 16.8823 23.0973 16.1996 23.0973 15.3942C23.0973 14.5954 22.9697 13.9176 22.7145 13.3608C22.4626 12.804 22.0864 12.3814 21.5859 12.093C21.0855 11.8047 20.464 11.6605 19.7216 11.6605H17.9517V19.1577Z" fill="#4A4B4C"/>
</svg>
