<svg width="18" height="18" viewBox="0 0 18 18" fill="none" xmlns="http://www.w3.org/2000/svg">
<g clip-path="url(#clip0_102_29)">
<path d="M6.72428 2.89285L7.27714 1.46571C7.37038 1.22408 7.53442 1.01624 7.74777 0.869411C7.96113 0.722585 8.21386 0.643618 8.47285 0.642853H9.52714C9.78614 0.643618 10.0389 0.722585 10.2522 0.869411C10.4656 1.01624 10.6296 1.22408 10.7229 1.46571L11.2757 2.89285L13.1529 3.97285L14.67 3.74142C14.9226 3.70713 15.1797 3.74872 15.4087 3.8609C15.6376 3.97307 15.828 4.15078 15.9557 4.37142L16.47 5.27142C16.6018 5.49559 16.6625 5.75444 16.6441 6.01382C16.6258 6.2732 16.5292 6.52092 16.3671 6.72428L15.4286 7.92V10.08L16.3929 11.2757C16.5549 11.4791 16.6515 11.7268 16.6698 11.9862C16.6882 12.2456 16.6275 12.5044 16.4957 12.7286L15.9814 13.6286C15.8537 13.8492 15.6633 14.0269 15.4344 14.1391C15.2054 14.2513 14.9483 14.2929 14.6957 14.2586L13.1786 14.0271L11.3014 15.1071L10.7486 16.5343C10.6553 16.7759 10.4913 16.9838 10.2779 17.1306C10.0646 17.2774 9.81185 17.3564 9.55285 17.3571H8.47285C8.21386 17.3564 7.96113 17.2774 7.74777 17.1306C7.53442 16.9838 7.37038 16.7759 7.27714 16.5343L6.72428 15.1071L4.84714 14.0271L3.33 14.2586C3.07738 14.2929 2.82026 14.2513 2.59133 14.1391C2.3624 14.0269 2.17198 13.8492 2.04428 13.6286L1.53 12.7286C1.39821 12.5044 1.3375 12.2456 1.35586 11.9862C1.37422 11.7268 1.4708 11.4791 1.63285 11.2757L2.57143 10.08V7.92L1.60714 6.72428C1.44509 6.52092 1.34851 6.2732 1.33015 6.01382C1.31178 5.75444 1.3725 5.49559 1.50428 5.27142L2.01857 4.37142C2.14627 4.15078 2.33669 3.97307 2.56562 3.8609C2.79455 3.74872 3.05166 3.70713 3.30428 3.74142L4.82143 3.97285L6.72428 2.89285ZM6.42857 9C6.42857 9.50858 6.57938 10.0057 6.86193 10.4286C7.14448 10.8515 7.54609 11.1811 8.01595 11.3757C8.48582 11.5703 9.00285 11.6212 9.50166 11.522C10.0005 11.4228 10.4587 11.1779 10.8183 10.8183C11.1779 10.4586 11.4228 10.0005 11.522 9.50166C11.6212 9.00285 11.5703 8.48582 11.3757 8.01595C11.1811 7.54608 10.8515 7.14448 10.4286 6.86193C10.0057 6.57938 9.50858 6.42857 9 6.42857C8.31801 6.42857 7.66396 6.69948 7.18172 7.18172C6.69949 7.66396 6.42857 8.31801 6.42857 9Z" stroke="#475569" stroke-width="1.67" stroke-linecap="round" stroke-linejoin="round"/>
</g>
<defs>
<clipPath id="clip0_102_29">
<rect width="18" height="18" fill="white"/>
</clipPath>
</defs>
</svg>
