<svg width="18" height="18" viewBox="0 0 18 18" fill="none" xmlns="http://www.w3.org/2000/svg">
<path d="M0.426918 16.9626H2.14469V7.51481C2.14469 7.35671 2.27288 7.22852 2.43099 7.22852H6.43913V0.643717C6.43913 0.485611 6.56731 0.357422 6.72542 0.357422H14.1691C14.3272 0.357422 14.4554 0.485611 14.4554 0.643717V16.9626H17.0321C17.1902 16.9626 17.3184 17.0908 17.3184 17.2489C17.3184 17.407 17.1902 17.5352 17.0321 17.5352H0.426918C0.26881 17.5352 0.140621 17.407 0.140621 17.2489C0.140621 17.0908 0.26881 16.9626 0.426918 16.9626ZM11.3062 16.9626H12.4513V14.3859C12.4513 14.2278 12.3231 14.0996 12.165 14.0996H11.5924C11.4343 14.0996 11.3062 14.2278 11.3062 14.3859V16.9626ZM10.161 7.51481V16.9626H10.7336V14.3859C10.7336 13.9116 11.1181 13.527 11.5924 13.527H12.165C12.6394 13.527 13.0239 13.9116 13.0239 14.3859V16.9626H13.8828V0.930013H7.01172V7.22852H9.87467C10.0328 7.22852 10.161 7.35671 10.161 7.51481ZM2.71728 16.9626H9.58838V7.80111H2.71728V16.9626Z" fill="#84829A"/>
<path d="M8.15706 4.36523H9.87484C10.0329 4.36523 10.1611 4.49342 10.1611 4.65153V6.3693C10.1611 6.52741 10.0329 6.6556 9.87484 6.6556H8.15706C7.99896 6.6556 7.87077 6.52741 7.87077 6.3693V4.65153C7.87077 4.49342 7.99896 4.36523 8.15706 4.36523ZM8.44336 6.08301H9.58854V4.93783H8.44336V6.08301Z" fill="#84829A"/>
<path d="M8.15706 1.50195H9.87484C10.0329 1.50195 10.1611 1.63014 10.1611 1.78825V3.50602C10.1611 3.66413 10.0329 3.79232 9.87484 3.79232H8.15706C7.99896 3.79232 7.87077 3.66413 7.87077 3.50602V1.78825C7.87077 1.63014 7.99896 1.50195 8.15706 1.50195ZM8.44336 3.21973H9.58854V2.07454H8.44336V3.21973Z" fill="#84829A"/>
<path d="M11.0194 4.36523H12.7371C12.8952 4.36523 13.0234 4.49342 13.0234 4.65153V6.3693C13.0234 6.52741 12.8952 6.6556 12.7371 6.6556H11.0194C10.8613 6.6556 10.7331 6.52741 10.7331 6.3693V4.65153C10.7331 4.49342 10.8613 4.36523 11.0194 4.36523ZM11.3057 6.08301H12.4508V4.93783H11.3057V6.08301Z" fill="#84829A"/>
<path d="M11.0194 1.50195H12.7371C12.8952 1.50195 13.0234 1.63014 13.0234 1.78825V3.50602C13.0234 3.66413 12.8952 3.79232 12.7371 3.79232H11.0194C10.8613 3.79232 10.7331 3.66413 10.7331 3.50602V1.78825C10.7331 1.63014 10.8613 1.50195 11.0194 1.50195ZM11.3057 3.21973H12.4508V2.07454H11.3057V3.21973Z" fill="#84829A"/>
<path d="M11.0194 7.22852H12.7371C12.8952 7.22852 13.0234 7.3567 13.0234 7.51481V9.23259C13.0234 9.39069 12.8952 9.51888 12.7371 9.51888H11.0194C10.8613 9.51888 10.7331 9.39069 10.7331 9.23259V7.51481C10.7331 7.3567 10.8613 7.22852 11.0194 7.22852ZM11.3057 8.94629H12.4508V7.80111H11.3057V8.94629Z" fill="#84829A"/>
<path d="M11.0194 10.0908H12.7371C12.8952 10.0908 13.0234 10.219 13.0234 10.3771V12.0949C13.0234 12.253 12.8952 12.3812 12.7371 12.3812H11.0194C10.8613 12.3812 10.7331 12.253 10.7331 12.0949V10.3771C10.7331 10.219 10.8613 10.0908 11.0194 10.0908ZM11.3057 11.8086H12.4508V10.6634H11.3057V11.8086Z" fill="#84829A"/>
<path d="M5.57992 13.5267H3.86214C3.70403 13.5267 3.57585 13.3985 3.57585 13.2404V11.5226C3.57585 11.3645 3.70403 11.2363 3.86214 11.2363H5.57992C5.73802 11.2363 5.86621 11.3645 5.86621 11.5226V13.2404C5.86621 13.3985 5.73802 13.5267 5.57992 13.5267ZM5.29362 11.8089H4.14844V12.9541H5.29362V11.8089Z" fill="#84829A"/>
<path d="M5.57992 10.6634H3.86214C3.70403 10.6634 3.57585 10.5352 3.57585 10.3771V8.65934C3.57585 8.50124 3.70403 8.37305 3.86214 8.37305H5.57992C5.73802 8.37305 5.86621 8.50124 5.86621 8.65934V10.3771C5.86621 10.5352 5.73802 10.6634 5.57992 10.6634ZM5.29362 8.94564H4.14844V10.0908H5.29362V8.94564Z" fill="#84829A"/>
<path d="M5.57992 16.39H3.86214C3.70403 16.39 3.57585 16.2618 3.57585 16.1037V14.3859C3.57585 14.2278 3.70403 14.0996 3.86214 14.0996H5.57992C5.73802 14.0996 5.86621 14.2278 5.86621 14.3859V16.1037C5.86621 16.2618 5.73802 16.39 5.57992 16.39ZM5.29362 14.6722H4.14844V15.8174H5.29362V14.6722Z" fill="#84829A"/>
<path d="M8.4432 13.5267H6.72542C6.56732 13.5267 6.43913 13.3985 6.43913 13.2404V11.5226C6.43913 11.3645 6.56732 11.2363 6.72542 11.2363H8.4432C8.6013 11.2363 8.72949 11.3645 8.72949 11.5226V13.2404C8.72949 13.3985 8.6013 13.5267 8.4432 13.5267ZM8.1569 11.8089H7.01172V12.9541H8.1569V11.8089Z" fill="#84829A"/>
<path d="M8.4432 10.6634H6.72542C6.56732 10.6634 6.43913 10.5352 6.43913 10.3771V8.65934C6.43913 8.50124 6.56732 8.37305 6.72542 8.37305H8.4432C8.6013 8.37305 8.72949 8.50124 8.72949 8.65934V10.3771C8.72949 10.5352 8.6013 10.6634 8.4432 10.6634ZM8.1569 8.94564H7.01172V10.0908H8.1569V8.94564Z" fill="#84829A"/>
<path d="M8.4432 16.39H6.72542C6.56732 16.39 6.43913 16.2618 6.43913 16.1037V14.3859C6.43913 14.2278 6.56732 14.0996 6.72542 14.0996H8.4432C8.6013 14.0996 8.72949 14.2278 8.72949 14.3859V16.1037C8.72949 16.2618 8.6013 16.39 8.4432 16.39ZM8.1569 14.6722H7.01172V15.8174H8.1569V14.6722Z" fill="#84829A"/>
</svg>
