<svg width="22" height="21" viewBox="0 0 22 21" fill="none" xmlns="http://www.w3.org/2000/svg">
<path d="M19.9389 2.06608C18.8282 0.872309 17.272 0.193073 15.6415 0.190555C14.0096 0.192443 12.4518 0.87132 11.3394 2.06531L10.9603 2.4659L10.5812 2.06531C8.37404 -0.310217 4.65896 -0.44664 2.28348 1.76054C2.17822 1.85839 2.07655 1.96001 1.97871 2.06531C-0.362694 4.5908 -0.362694 8.49383 1.97871 11.0193L10.4032 19.9035C10.6947 20.2112 11.1804 20.2244 11.4881 19.9329C11.4981 19.9234 11.5079 19.9136 11.5175 19.9035L19.9389 11.0193C22.2801 8.4941 22.2801 4.59129 19.9389 2.06608ZM18.8285 9.9626H18.8277L10.9603 18.2605L3.09221 9.9626C1.30352 8.03289 1.30352 5.05097 3.09221 3.12126C4.71656 1.36072 7.46062 1.25033 9.22117 2.87468C9.30665 2.95355 9.38889 3.03579 9.46776 3.12126L10.4032 4.10815C10.7115 4.41445 11.2092 4.41445 11.5175 4.10815L12.4529 3.12203C14.0773 1.36148 16.8213 1.25109 18.5819 2.87544C18.6674 2.95431 18.7496 3.03655 18.8285 3.12203C20.6327 5.05479 20.6459 8.04216 18.8285 9.9626Z" fill="#4475F2"/>
</svg>
