<svg width="16" height="16" viewBox="0 0 16 16" fill="none" xmlns="http://www.w3.org/2000/svg">
<g clip-path="url(#clip0_67_1025)">
<path d="M14.8309 0.617984C14.4349 0.502085 4.74764 -0.462391 1.34556 4.13389C-0.161191 6.17005 -0.183825 8.96129 1.27005 12.4295C0.901248 13.195 0.578386 14.0013 0.315264 14.8522C0.235268 15.1107 0.379966 15.3848 0.638214 15.4646C0.686359 15.4795 0.73512 15.4865 0.783264 15.4865C0.992047 15.4865 1.18589 15.3517 1.25059 15.1416C3.84358 6.75844 12.2703 2.70276 14.8544 1.67819C15.1059 1.57841 15.4419 0.796824 14.8309 0.617984Z" fill="#84829A"/>
<path d="M2.8252 13.4783C4.22776 14.0667 5.63011 14.3683 6.93422 14.3683C8.10639 14.3683 9.19953 14.1272 10.1415 13.6385C12.0373 12.6551 13.1958 10.7739 13.4916 8.19781C13.7931 5.57238 14.1683 3.92789 14.4813 2.92188C11.695 4.20716 5.72056 7.5387 2.8252 13.4783Z" fill="#84829A"/>
</g>
<defs>
<clipPath id="clip0_67_1025">
<rect width="15.0305" height="15.0305" fill="white" transform="translate(0.170898 0.456055)"/>
</clipPath>
</defs>
</svg>
