<svg width="16" height="16" viewBox="0 0 16 16" fill="none" xmlns="http://www.w3.org/2000/svg">
<g clip-path="url(#clip0_67_1039)">
<path d="M14.567 0.381836C14.4836 0.381805 14.4013 0.40118 14.3268 0.438451L10.2589 2.47292L5.65915 0.42826C5.65163 0.425052 5.64304 0.424486 5.63499 0.421278C5.61429 0.41354 5.59313 0.407093 5.57164 0.401966C5.55029 0.39621 5.52859 0.391712 5.50669 0.388535C5.4631 0.38495 5.41929 0.38495 5.37572 0.388535C5.35383 0.391712 5.33213 0.39621 5.31077 0.401966C5.28929 0.407093 5.26812 0.41354 5.24743 0.421278C5.23938 0.424486 5.23079 0.425021 5.22327 0.42826L0.392111 2.57545C0.198173 2.66157 0.0732107 2.85388 0.0732422 3.06606V14.8756C0.0733366 15.0572 0.16521 15.2264 0.317474 15.3254C0.469769 15.4246 0.661851 15.4399 0.827954 15.3662L5.44118 13.3156L10.0544 15.3662C10.0625 15.3694 10.071 15.3662 10.0791 15.3711C10.2091 15.4292 10.3582 15.4258 10.4854 15.3619C10.494 15.3582 10.5037 15.3619 10.5123 15.356L14.8066 13.2088C14.9886 13.1179 15.1036 12.9319 15.1035 12.7284V0.918894C15.1037 0.622419 14.8634 0.381962 14.567 0.381836ZM4.9044 12.3795L1.14682 14.0494V3.415L4.9044 1.745V12.3795ZM9.73557 14.0494L5.97798 12.3795V1.745L9.73557 3.41496V14.0494ZM14.0299 12.3967L10.8091 14.007V3.39779L14.0299 1.7874V12.3967Z" fill="#84829A"/>
</g>
<defs>
<clipPath id="clip0_67_1039">
<rect width="15.0305" height="15.0305" fill="white" transform="translate(0.0722656 0.381836)"/>
</clipPath>
</defs>
</svg>
