<svg width="16" height="16" viewBox="0 0 16 16" fill="none" xmlns="http://www.w3.org/2000/svg">
<path d="M14.005 1.78977L7.22249 8.59734C7.14473 8.55229 7.06296 8.51455 6.97824 8.48461L2.50039 6.96903C2.36497 6.9351 2.24478 6.85688 2.1589 6.74682C2.07301 6.63676 2.02637 6.50116 2.02637 6.36155C2.02637 6.22195 2.07301 6.08634 2.1589 5.97628C2.24478 5.86622 2.36497 5.78801 2.50039 5.75407L13.6105 1.80229C13.6831 1.77763 13.7592 1.76494 13.8359 1.76472C13.8933 1.76379 13.9504 1.77225 14.005 1.78977Z" fill="#84829A"/>
<path d="M14.4375 2.62893L10.4857 13.7515C10.4421 13.8811 10.3573 13.9929 10.2442 14.0698C10.1311 14.1467 9.99598 14.1845 9.85941 14.1774C9.72127 14.1837 9.58492 14.1441 9.47163 14.0648C9.35834 13.9855 9.27448 13.871 9.23314 13.739L7.74261 9.26114C7.71267 9.17642 7.67493 9.09465 7.62988 9.0169L14.45 2.23438C14.4885 2.3638 14.4841 2.5022 14.4375 2.62893Z" fill="#84829A"/>
</svg>
