<?xml version="1.0" encoding="UTF-8"?>
<svg xmlns="http://www.w3.org/2000/svg" xmlns:xlink="http://www.w3.org/1999/xlink" viewBox="0 0 50 50" width="50px" height="50px">
<g id="surface37281685">
<path style=" stroke:none;fill-rule:nonzero;fill:rgb(100%,100%,100%);fill-opacity:1;" d="M 25.984375 0.988281 C 25.605469 0.992188 25.261719 1.210938 25.097656 1.554688 L 11.167969 23.445312 C 11.148438 23.476562 11.125 23.511719 11.105469 23.550781 C 11.089844 23.578125 11.078125 23.609375 11.066406 23.640625 C 11.042969 23.703125 11.023438 23.769531 11.011719 23.832031 C 11.003906 23.898438 10.996094 23.964844 11 24.03125 C 11 24.035156 11 24.035156 11 24.035156 C 11 24.066406 11.003906 24.101562 11.007812 24.132812 C 11.007812 24.140625 11.011719 24.144531 11.011719 24.152344 C 11.019531 24.203125 11.03125 24.25 11.046875 24.296875 C 11.050781 24.308594 11.050781 24.316406 11.054688 24.324219 C 11.054688 24.328125 11.054688 24.328125 11.054688 24.328125 C 11.066406 24.359375 11.078125 24.390625 11.089844 24.417969 C 11.089844 24.421875 11.089844 24.421875 11.089844 24.421875 C 11.105469 24.453125 11.121094 24.480469 11.136719 24.507812 C 11.15625 24.539062 11.171875 24.566406 11.191406 24.589844 C 11.203125 24.605469 11.210938 24.617188 11.222656 24.625 C 11.234375 24.640625 11.246094 24.65625 11.257812 24.667969 C 11.28125 24.695312 11.300781 24.71875 11.324219 24.738281 C 11.328125 24.742188 11.328125 24.742188 11.328125 24.742188 C 11.375 24.785156 11.429688 24.824219 11.488281 24.859375 C 11.492188 24.863281 11.5 24.867188 11.503906 24.867188 C 11.503906 24.871094 11.503906 24.871094 11.507812 24.871094 L 25.378906 32.796875 C 25.742188 33.085938 26.25 33.085938 26.613281 32.800781 L 40.476562 24.878906 C 40.480469 24.878906 40.488281 24.875 40.496094 24.867188 C 40.519531 24.855469 40.539062 24.84375 40.5625 24.828125 C 40.566406 24.824219 40.574219 24.820312 40.582031 24.8125 C 40.585938 24.8125 40.589844 24.808594 40.59375 24.800781 C 40.613281 24.789062 40.632812 24.773438 40.65625 24.757812 C 40.65625 24.757812 40.65625 24.753906 40.660156 24.753906 C 40.664062 24.75 40.667969 24.746094 40.671875 24.742188 C 40.691406 24.726562 40.710938 24.703125 40.730469 24.683594 C 40.753906 24.660156 40.773438 24.632812 40.796875 24.605469 C 40.8125 24.582031 40.832031 24.554688 40.851562 24.527344 C 40.851562 24.527344 40.851562 24.527344 40.851562 24.523438 C 40.851562 24.523438 40.851562 24.519531 40.855469 24.519531 C 40.871094 24.492188 40.886719 24.46875 40.902344 24.4375 C 40.910156 24.414062 40.921875 24.390625 40.933594 24.367188 C 40.933594 24.359375 40.9375 24.351562 40.941406 24.34375 C 40.941406 24.339844 40.945312 24.332031 40.949219 24.320312 C 40.953125 24.300781 40.960938 24.277344 40.96875 24.253906 C 40.96875 24.253906 40.96875 24.25 40.96875 24.25 C 40.96875 24.246094 40.96875 24.246094 40.972656 24.242188 C 40.976562 24.214844 40.984375 24.183594 40.988281 24.152344 C 40.992188 24.128906 40.996094 24.101562 41 24.074219 C 41 24.074219 41 24.070312 41 24.066406 C 41 24.039062 41 24.007812 41 23.976562 C 41 23.957031 40.996094 23.9375 40.996094 23.917969 C 40.996094 23.898438 40.992188 23.875 40.992188 23.855469 C 40.992188 23.855469 40.992188 23.855469 40.992188 23.851562 C 40.988281 23.851562 40.988281 23.847656 40.988281 23.84375 C 40.984375 23.816406 40.976562 23.789062 40.972656 23.757812 C 40.972656 23.757812 40.972656 23.757812 40.972656 23.753906 C 40.964844 23.730469 40.957031 23.707031 40.949219 23.679688 C 40.945312 23.675781 40.945312 23.667969 40.941406 23.660156 C 40.9375 23.652344 40.933594 23.644531 40.933594 23.636719 C 40.921875 23.613281 40.914062 23.59375 40.90625 23.570312 C 40.902344 23.570312 40.902344 23.570312 40.902344 23.566406 C 40.902344 23.566406 40.902344 23.5625 40.902344 23.5625 C 40.886719 23.535156 40.871094 23.507812 40.855469 23.480469 C 40.851562 23.476562 40.851562 23.472656 40.847656 23.46875 C 40.847656 23.46875 40.84375 23.464844 40.84375 23.460938 L 40.8125 23.414062 L 26.898438 1.546875 C 26.726562 1.199219 26.371094 0.980469 25.984375 0.984375 Z M 25 5.433594 L 25 17.339844 L 14.582031 21.800781 Z M 27 5.433594 L 37.417969 21.800781 L 27 17.339844 Z M 25 19.515625 L 25 30.277344 L 14.242188 24.128906 Z M 27 19.515625 L 37.757812 24.128906 L 27 30.277344 Z M 40.007812 27.996094 C 39.832031 27.996094 39.65625 28.042969 39.503906 28.128906 L 26 35.847656 L 12.496094 28.128906 C 12.351562 28.046875 12.1875 28.003906 12.019531 28 C 11.636719 27.992188 11.285156 28.203125 11.113281 28.539062 C 10.9375 28.878906 10.96875 29.289062 11.195312 29.59375 L 25.128906 48.503906 C 25.304688 48.816406 25.636719 49.011719 26 49.011719 C 26.359375 49.011719 26.691406 48.820312 26.867188 48.507812 L 40.804688 29.59375 C 41.027344 29.292969 41.0625 28.886719 40.894531 28.550781 C 40.726562 28.214844 40.382812 28 40.007812 28 Z M 15.613281 32.214844 L 25 37.582031 L 25 44.957031 Z M 36.386719 32.214844 L 27 44.957031 L 27 37.582031 Z M 36.386719 32.214844 "/>
</g>
</svg>
