<svg width="133" height="40" viewBox="0 0 133 40" fill="none" xmlns="http://www.w3.org/2000/svg">
<path d="M53 29.3823H70.0274V24.5059H58.1598V5.00024H53V29.3823Z" fill="black"/>
<path d="M71.2421 20.5002C71.2421 25.725 75.3356 29.9047 80.8738 29.9047C86.3432 29.9047 90.5054 25.725 90.5054 20.5002C90.5054 15.2755 86.3432 11.0957 80.8738 11.0957C75.3356 11.0957 71.2421 15.2755 71.2421 20.5002ZM76.2299 20.5002C76.2299 17.3654 78.2939 15.2755 80.8738 15.2755C83.4537 15.2755 85.5176 17.3654 85.5176 20.5002C85.5176 23.6351 83.4537 25.725 80.8738 25.725C78.2939 25.725 76.2299 23.6351 76.2299 20.5002Z" fill="black"/>
<path d="M92.4094 20.3261C92.4094 25.8643 96.0213 29.5564 100.493 29.5564C102.419 29.5564 103.727 28.8598 104.655 28.1632C105.171 27.7452 105.619 27.2575 105.997 26.7351H106.169V31.8205H94.9893V36.0002H110.985V11.6182H106.169V13.9171H105.997C105.619 13.3946 105.171 12.9418 104.655 12.5238C103.727 11.8272 102.419 11.0957 100.493 11.0957C96.0213 11.0957 92.4094 14.7879 92.4094 20.3261ZM97.3973 20.3261C97.3973 17.1564 99.2548 15.2755 101.869 15.2755C104.311 15.2755 106.169 17.1564 106.169 20.3261C106.169 23.4957 104.311 25.3766 101.869 25.3766C99.2548 25.3766 97.3973 23.4957 97.3973 20.3261Z" fill="black"/>
<path d="M113.737 20.5002C113.737 25.725 117.83 29.9047 123.368 29.9047C128.838 29.9047 133 25.725 133 20.5002C133 15.2755 128.838 11.0957 123.368 11.0957C117.83 11.0957 113.737 15.2755 113.737 20.5002ZM118.725 20.5002C118.725 17.3654 120.788 15.2755 123.368 15.2755C125.948 15.2755 128.012 17.3654 128.012 20.5002C128.012 23.6351 125.948 25.725 123.368 25.725C120.788 25.725 118.725 23.6351 118.725 20.5002Z" fill="black"/>
<path d="M26.16 13.7303C25.77 13.2803 25.19 13.0503 24.41 13.0503C23.63 13.0503 23.05 13.2803 22.66 13.7303C22.29 14.1803 22.1 14.8303 22.1 15.6703V20.0003V24.3303C22.1 25.7703 21.83 26.9803 21.28 27.9803C20.72 28.9803 19.96 29.7303 18.99 30.2503C18.01 30.7503 16.9 31.0003 15.67 31.0003C14.44 31.0003 13.31 30.7503 12.3 30.2503C11.28 29.7403 10.47 28.9803 9.88 27.9803C9.3 26.9703 9 25.7603 9 24.3303V3.30029C3.58 6.88029 0 13.0203 0 20.0003C0 31.0503 8.95 40.0003 20 40.0003C22.38 40.0003 24.65 39.5603 26.77 38.8003V15.6703C26.77 14.8403 26.57 14.2003 26.16 13.7303Z" fill="#FF6524"/>
<path d="M40.0005 20.0002C40.0005 8.95024 31.0505 0.000244141 20.0005 0.000244141C17.6205 0.000244141 15.3505 0.440244 13.2305 1.20024V24.3302C13.2305 25.1502 13.4305 25.8002 13.8305 26.2702C14.2205 26.7202 14.8005 26.9502 15.5805 26.9502C16.3605 26.9502 16.9405 26.7202 17.3305 26.2702C17.7005 25.8202 17.8905 25.1702 17.8905 24.3302V20.0002V15.6702C17.8905 14.2302 18.1605 13.0202 18.7105 12.0202C19.2705 11.0202 20.0305 10.2702 21.0005 9.75024C21.9805 9.25024 23.0905 9.00024 24.3305 9.00024C25.5705 9.00024 26.6905 9.25024 27.7005 9.75024C28.7205 10.2602 29.5305 11.0202 30.1205 12.0202C30.7005 13.0302 31.0005 14.2402 31.0005 15.6702V36.7002C36.4205 33.1202 40.0005 26.9802 40.0005 20.0002Z" fill="#FF6524"/>
<path d="M30.11 12.0102C29.52 11.0102 28.71 10.2602 27.69 9.7402C26.69 9.2502 25.57 9.0002 24.33 9.0002C23.09 9.0002 21.98 9.2502 21 9.7502C20.04 10.2602 19.27 11.0202 18.71 12.0202C18.16 13.0202 17.89 14.2302 17.89 15.6702V20.0002V24.3302C17.89 25.1702 17.7 25.8102 17.33 26.2702C16.94 26.7202 16.36 26.9502 15.58 26.9502C14.8 26.9502 14.22 26.7202 13.83 26.2702C13.43 25.8002 13.23 25.1602 13.23 24.3302V1.2002C11.73 1.7402 10.31 2.4402 9 3.3002V24.3302C9 25.7502 9.3 26.9702 9.89 27.9802C10.48 28.9802 11.29 29.7302 12.31 30.2502C13.32 30.7502 14.44 31.0002 15.68 31.0002C16.92 31.0002 18.03 30.7502 19 30.2502C19.96 29.7402 20.73 28.9802 21.29 27.9802C21.84 26.9802 22.11 25.7702 22.11 24.3302V20.0002V15.6702C22.11 14.8302 22.3 14.1902 22.67 13.7302C23.06 13.2802 23.64 13.0502 24.42 13.0502C25.2 13.0502 25.78 13.2802 26.17 13.7302C26.57 14.2002 26.77 14.8402 26.77 15.6702V38.8002C28.27 38.2602 29.69 37.5602 31 36.6902V15.6702C31 14.2402 30.7 13.0302 30.11 12.0102Z" fill="white"/>
</svg>
